<?xml version="1.0" encoding="UTF-8" standalone="no"?>
<!DOCTYPE svg PUBLIC "-//W3C//DTD SVG 1.1//EN"
 "http://www.w3.org/Graphics/SVG/1.1/DTD/svg11.dtd">
<!-- Generated by graphviz version 2.26.3 (20100126.1600)
 -->
<!-- Title: mesh Pages: 1 -->
<svg width="1770pt" height="1006pt"
 viewBox="0.00 0.00 1770.00 1006.00" xmlns="http://www.w3.org/2000/svg" xmlns:xlink="http://www.w3.org/1999/xlink">
<g id="graph1" class="graph" transform="scale(1 1) rotate(0) translate(4 1002)">
<title>mesh</title>
<polygon fill="white" stroke="white" points="-4,5 -4,-1002 1767,-1002 1767,5 -4,5"/>
<!-- 0 -->
<g id="node1" class="node"><title>0</title>
<ellipse fill="none" stroke="aqua" cx="185" cy="-795" rx="27" ry="18.3848"/>
<text text-anchor="middle" x="185" y="-791.4" font-family="Times Roman,serif" font-size="14.00">0</text>
</g>
<!-- 1 -->
<g id="node2" class="node"><title>1</title>
<ellipse fill="none" stroke="olive" cx="185" cy="-703" rx="27" ry="18.3848"/>
<text text-anchor="middle" x="185" y="-699.4" font-family="Times Roman,serif" font-size="14.00">1</text>
</g>
<!-- 0&#45;&#45;1 -->
<g id="edge4" class="edge"><title>0&#45;&#45;1</title>
<path fill="none" stroke="black" d="M185,-776.382C185,-760.421 185,-737.543 185,-721.59"/>
<text text-anchor="middle" x="199" y="-745.4" font-family="Times Roman,serif" font-size="14.00">162</text>
</g>
<!-- 2 -->
<g id="node3" class="node"><title>2</title>
<ellipse fill="none" stroke="olive" cx="27" cy="-703" rx="27" ry="18.3848"/>
<text text-anchor="middle" x="27" y="-699.4" font-family="Times Roman,serif" font-size="14.00">2</text>
</g>
<!-- 0&#45;&#45;2 -->
<g id="edge8" class="edge"><title>0&#45;&#45;2</title>
<path fill="none" stroke="black" d="M158.845,-789.921C126.187,-783.164 72.6937,-770.598 57,-758 45.295,-748.604 37.4918,-733.355 32.7851,-721.295"/>
<text text-anchor="middle" x="66.5" y="-745.4" font-family="Times Roman,serif" font-size="14.00">77</text>
</g>
<!-- 3 -->
<g id="node4" class="node"><title>3</title>
<ellipse fill="none" stroke="red" cx="79" cy="-611" rx="27" ry="18.3848"/>
<text text-anchor="middle" x="79" y="-607.4" font-family="Times Roman,serif" font-size="14.00">3</text>
</g>
<!-- 0&#45;&#45;3 -->
<g id="edge2" class="edge"><title>0&#45;&#45;3</title>
<path fill="none" stroke="black" d="M171.285,-778.887C159.468,-764.542 142.404,-742.685 130,-722 115.888,-698.466 115.455,-690.935 104,-666 98.3078,-653.61 91.9499,-639.62 87.0702,-628.851"/>
<text text-anchor="middle" x="139.5" y="-699.4" font-family="Times Roman,serif" font-size="14.00">76</text>
</g>
<!-- 6 -->
<g id="node7" class="node"><title>6</title>
<ellipse fill="none" stroke="olive" cx="361" cy="-611" rx="27" ry="18.3848"/>
<text text-anchor="middle" x="361" y="-607.4" font-family="Times Roman,serif" font-size="14.00">6</text>
</g>
<!-- 0&#45;&#45;6 -->
<g id="edge10" class="edge"><title>0&#45;&#45;6</title>
<path fill="none" stroke="black" d="M211.529,-790.667C245.595,-784.595 302.104,-772.637 317,-758 352.533,-723.085 359.632,-660.742 360.878,-629.671"/>
<text text-anchor="middle" x="362.5" y="-699.4" font-family="Times Roman,serif" font-size="14.00">80</text>
</g>
<!-- 8 -->
<g id="node9" class="node"><title>8</title>
<ellipse fill="none" stroke="red" cx="339" cy="-519" rx="27" ry="18.3848"/>
<text text-anchor="middle" x="339" y="-515.4" font-family="Times Roman,serif" font-size="14.00">8</text>
</g>
<!-- 0&#45;&#45;8 -->
<g id="edge6" class="edge"><title>0&#45;&#45;8</title>
<path fill="none" stroke="black" d="M199.685,-779.316C205.371,-772.92 211.758,-765.319 217,-758 255.393,-704.396 262.417,-688.926 292,-630 308.056,-598.019 323.633,-559.236 332.207,-537.008"/>
<text text-anchor="middle" x="291.5" y="-653.4" font-family="Times Roman,serif" font-size="14.00">50</text>
</g>
<!-- 1&#45;&#45;3 -->
<g id="edge16" class="edge"><title>1&#45;&#45;3</title>
<path fill="none" stroke="black" d="M162.901,-691.983C150.744,-685.357 135.783,-676.234 124,-666 111.053,-654.755 98.8986,-639.506 90.4935,-627.917"/>
<text text-anchor="middle" x="138" y="-653.4" font-family="Times Roman,serif" font-size="14.00">171</text>
</g>
<!-- 1&#45;&#45;8 -->
<g id="edge18" class="edge"><title>1&#45;&#45;8</title>
<path fill="none" stroke="black" d="M200.083,-687.302C205.938,-680.905 212.535,-673.306 218,-666 253.294,-618.818 250.458,-597.786 292,-556 300.493,-547.457 310.939,-539.059 319.825,-532.429"/>
<text text-anchor="middle" x="276" y="-607.4" font-family="Times Roman,serif" font-size="14.00">101</text>
</g>
<!-- 9 -->
<g id="node10" class="node"><title>9</title>
<ellipse fill="none" stroke="aqua" cx="339" cy="-407" rx="27" ry="18.3848"/>
<text text-anchor="middle" x="339" y="-403.4" font-family="Times Roman,serif" font-size="14.00">9</text>
</g>
<!-- 1&#45;&#45;9 -->
<g id="edge14" class="edge"><title>1&#45;&#45;9</title>
<path fill="none" stroke="black" d="M191.046,-684.877C200.734,-656.645 221.001,-600.761 244,-556 269.798,-505.791 307.589,-450.784 326.805,-423.814"/>
<text text-anchor="middle" x="258" y="-561.4" font-family="Times Roman,serif" font-size="14.00">149</text>
</g>
<!-- 11 -->
<g id="node12" class="node"><title>11</title>
<ellipse fill="none" stroke="purple" cx="174" cy="-315" rx="27" ry="18.3848"/>
<text text-anchor="middle" x="174" y="-311.4" font-family="Times Roman,serif" font-size="14.00">11</text>
</g>
<!-- 1&#45;&#45;11 -->
<g id="edge12" class="edge"><title>1&#45;&#45;11</title>
<path fill="none" stroke="black" d="M178.988,-684.899C173.422,-666.509 166,-637.095 166,-611 166,-611 166,-611 166,-407 166,-381.508 169.086,-352.192 171.425,-333.636"/>
<text text-anchor="middle" x="175.5" y="-515.4" font-family="Times Roman,serif" font-size="14.00">50</text>
</g>
<!-- 2&#45;&#45;3 -->
<g id="edge22" class="edge"><title>2&#45;&#45;3</title>
<path fill="none" stroke="black" d="M36.2944,-685.569C42.1385,-674.707 49.8925,-660.475 57,-648 60.6997,-641.507 64.8659,-634.44 68.5697,-628.24"/>
<text text-anchor="middle" x="66.5" y="-653.4" font-family="Times Roman,serif" font-size="14.00">74</text>
</g>
<!-- 4 -->
<g id="node5" class="node"><title>4</title>
<ellipse fill="none" stroke="aqua" cx="48" cy="-519" rx="27" ry="18.3848"/>
<text text-anchor="middle" x="48" y="-515.4" font-family="Times Roman,serif" font-size="14.00">4</text>
</g>
<!-- 2&#45;&#45;4 -->
<g id="edge20" class="edge"><title>2&#45;&#45;4</title>
<path fill="none" stroke="black" d="M21.4967,-684.742C15.6273,-662.591 8.05749,-624.212 15,-592 19.3369,-571.878 29.6888,-550.623 37.6514,-536.271"/>
<text text-anchor="middle" x="29" y="-607.4" font-family="Times Roman,serif" font-size="14.00">158</text>
</g>
<!-- 3&#45;&#45;4 -->
<g id="edge28" class="edge"><title>3&#45;&#45;4</title>
<path fill="none" stroke="black" d="M72.8754,-592.824C67.4407,-576.695 59.5428,-553.256 54.1119,-537.138"/>
<text text-anchor="middle" x="81" y="-561.4" font-family="Times Roman,serif" font-size="14.00">204</text>
</g>
<!-- 10 -->
<g id="node11" class="node"><title>10</title>
<ellipse fill="none" stroke="olive" cx="74" cy="-407" rx="27" ry="18.3848"/>
<text text-anchor="middle" x="74" y="-403.4" font-family="Times Roman,serif" font-size="14.00">10</text>
</g>
<!-- 3&#45;&#45;10 -->
<g id="edge24" class="edge"><title>3&#45;&#45;10</title>
<path fill="none" stroke="black" d="M89.5008,-593.538C92.5447,-587.556 95.4607,-580.683 97,-574 109.969,-517.697 112.861,-499.558 97,-444 94.9237,-436.727 90.96,-429.49 86.9002,-423.371"/>
<text text-anchor="middle" x="117.5" y="-515.4" font-family="Times Roman,serif" font-size="14.00">96</text>
</g>
<!-- 3&#45;&#45;11 -->
<g id="edge26" class="edge"><title>3&#45;&#45;11</title>
<path fill="none" stroke="black" d="M60.4598,-597.48C44.195,-584.367 21.6739,-562.847 12,-538 -4.39432,-495.892 26.8807,-402.732 38,-388 65.7674,-351.211 117.615,-330.904 148.65,-321.538"/>
<text text-anchor="middle" x="26.5" y="-459.4" font-family="Times Roman,serif" font-size="14.00">85</text>
</g>
<!-- 4&#45;&#45;10 -->
<g id="edge30" class="edge"><title>4&#45;&#45;10</title>
<path fill="none" stroke="black" d="M52.2934,-500.505C57.1108,-479.754 64.8803,-446.285 69.7003,-425.522"/>
<text text-anchor="middle" x="79" y="-459.4" font-family="Times Roman,serif" font-size="14.00">131</text>
</g>
<!-- 5 -->
<g id="node6" class="node"><title>5</title>
<ellipse fill="none" stroke="aqua" cx="497" cy="-703" rx="27" ry="18.3848"/>
<text text-anchor="middle" x="497" y="-699.4" font-family="Times Roman,serif" font-size="14.00">5</text>
</g>
<!-- 5&#45;&#45;6 -->
<g id="edge38" class="edge"><title>5&#45;&#45;6</title>
<path fill="none" stroke="black" d="M469.743,-700.692C444.329,-697.177 406.857,-688.317 383,-666 372.786,-656.445 367.215,-641.52 364.237,-629.627"/>
<text text-anchor="middle" x="397" y="-653.4" font-family="Times Roman,serif" font-size="14.00">187</text>
</g>
<!-- 7 -->
<g id="node8" class="node"><title>7</title>
<ellipse fill="none" stroke="olive" cx="497" cy="-611" rx="27" ry="18.3848"/>
<text text-anchor="middle" x="497" y="-607.4" font-family="Times Roman,serif" font-size="14.00">7</text>
</g>
<!-- 5&#45;&#45;7 -->
<g id="edge32" class="edge"><title>5&#45;&#45;7</title>
<path fill="none" stroke="black" d="M497,-684.382C497,-668.421 497,-645.543 497,-629.59"/>
<text text-anchor="middle" x="511" y="-653.4" font-family="Times Roman,serif" font-size="14.00">132</text>
</g>
<!-- 5&#45;&#45;8 -->
<g id="edge34" class="edge"><title>5&#45;&#45;8</title>
<path fill="none" stroke="black" d="M483.255,-686.993C453.374,-652.194 382.78,-569.985 352.826,-535.101"/>
<text text-anchor="middle" x="442.5" y="-607.4" font-family="Times Roman,serif" font-size="14.00">32</text>
</g>
<!-- 37 -->
<g id="node38" class="node"><title>37</title>
<ellipse fill="none" stroke="olive" cx="829" cy="-611" rx="27" ry="18.3848"/>
<text text-anchor="middle" x="829" y="-607.4" font-family="Times Roman,serif" font-size="14.00">37</text>
</g>
<!-- 5&#45;&#45;37 -->
<g id="edge40" class="edge"><title>5&#45;&#45;37</title>
<path fill="none" stroke="black" d="M522.226,-696.01C583.966,-678.901 742.112,-635.077 803.812,-617.98"/>
<text text-anchor="middle" x="706" y="-653.4" font-family="Times Roman,serif" font-size="14.00">121</text>
</g>
<!-- 38 -->
<g id="node39" class="node"><title>38</title>
<ellipse fill="none" stroke="red" cx="948" cy="-463" rx="27" ry="18.3848"/>
<text text-anchor="middle" x="948" y="-459.4" font-family="Times Roman,serif" font-size="14.00">38</text>
</g>
<!-- 5&#45;&#45;38 -->
<g id="edge36" class="edge"><title>5&#45;&#45;38</title>
<path fill="none" stroke="black" d="M524.017,-700.519C619.013,-691.147 934.7,-654.27 986,-574 1005.52,-543.45 979.526,-501.719 961.871,-479.126"/>
<text text-anchor="middle" x="976.5" y="-607.4" font-family="Times Roman,serif" font-size="14.00">66</text>
</g>
<!-- 6&#45;&#45;8 -->
<g id="edge42" class="edge"><title>6&#45;&#45;8</title>
<path fill="none" stroke="black" d="M349.06,-594.093C345.437,-588.04 341.911,-580.982 340,-574 336.772,-562.21 336.522,-548.46 337.079,-537.657"/>
<text text-anchor="middle" x="354" y="-561.4" font-family="Times Roman,serif" font-size="14.00">179</text>
</g>
<!-- 7&#45;&#45;8 -->
<g id="edge54" class="edge"><title>7&#45;&#45;8</title>
<path fill="none" stroke="black" d="M473.214,-601.875C456.664,-595.113 434.362,-585.164 416,-574 404.909,-567.257 403.47,-563.672 393,-556 381.725,-547.738 368.818,-538.874 358.451,-531.893"/>
<text text-anchor="middle" x="425.5" y="-561.4" font-family="Times Roman,serif" font-size="14.00">93</text>
</g>
<!-- 7&#45;&#45;9 -->
<g id="edge50" class="edge"><title>7&#45;&#45;9</title>
<path fill="none" stroke="black" d="M482.382,-595.208C476.356,-588.667 469.317,-580.99 463,-574 448.646,-558.118 443.911,-555.076 431,-538 401.109,-498.465 400.622,-483.737 371,-444 365.62,-436.782 359.209,-429.198 353.543,-422.789"/>
<text text-anchor="middle" x="445" y="-515.4" font-family="Times Roman,serif" font-size="14.00">118</text>
</g>
<!-- 15 -->
<g id="node16" class="node"><title>15</title>
<ellipse fill="none" stroke="aqua" cx="554" cy="-519" rx="27" ry="18.3848"/>
<text text-anchor="middle" x="554" y="-515.4" font-family="Times Roman,serif" font-size="14.00">15</text>
</g>
<!-- 7&#45;&#45;15 -->
<g id="edge46" class="edge"><title>7&#45;&#45;15</title>
<path fill="none" stroke="black" d="M507.721,-593.696C517.912,-577.247 533.152,-552.649 543.327,-536.227"/>
<text text-anchor="middle" x="539.5" y="-561.4" font-family="Times Roman,serif" font-size="14.00">90</text>
</g>
<!-- 19 -->
<g id="node20" class="node"><title>19</title>
<ellipse fill="none" stroke="red" cx="374" cy="-203" rx="27" ry="18.3848"/>
<text text-anchor="middle" x="374" y="-199.4" font-family="Times Roman,serif" font-size="14.00">19</text>
</g>
<!-- 7&#45;&#45;19 -->
<g id="edge44" class="edge"><title>7&#45;&#45;19</title>
<path fill="none" stroke="black" d="M491.476,-592.676C471.048,-524.916 399.911,-288.95 379.509,-221.273"/>
<text text-anchor="middle" x="449.5" y="-403.4" font-family="Times Roman,serif" font-size="14.00">55</text>
</g>
<!-- 7&#45;&#45;38 -->
<g id="edge52" class="edge"><title>7&#45;&#45;38</title>
<path fill="none" stroke="black" d="M524.019,-610.429C594.863,-608.565 784.337,-601.114 840,-574 851.663,-568.319 907.125,-508.114 933.716,-478.826"/>
<text text-anchor="middle" x="874" y="-561.4" font-family="Times Roman,serif" font-size="14.00">128</text>
</g>
<!-- 39 -->
<g id="node40" class="node"><title>39</title>
<ellipse fill="none" stroke="purple" cx="855" cy="-203" rx="27" ry="18.3848"/>
<text text-anchor="middle" x="855" y="-199.4" font-family="Times Roman,serif" font-size="14.00">39</text>
</g>
<!-- 7&#45;&#45;39 -->
<g id="edge48" class="edge"><title>7&#45;&#45;39</title>
<path fill="none" stroke="black" d="M523.243,-606.65C579.046,-595.992 710.013,-563.266 779,-482 813.357,-441.527 842.819,-277.495 852.024,-221.691"/>
<text text-anchor="middle" x="830" y="-403.4" font-family="Times Roman,serif" font-size="14.00">113</text>
</g>
<!-- 8&#45;&#45;9 -->
<g id="edge56" class="edge"><title>8&#45;&#45;9</title>
<path fill="none" stroke="black" d="M339,-500.254C339,-479.579 339,-446.506 339,-425.807"/>
<text text-anchor="middle" x="353" y="-459.4" font-family="Times Roman,serif" font-size="14.00">199</text>
</g>
<!-- 9&#45;&#45;11 -->
<g id="edge60" class="edge"><title>9&#45;&#45;11</title>
<path fill="none" stroke="black" d="M317.767,-395.161C286.085,-377.496 226.786,-344.432 195.152,-326.794"/>
<text text-anchor="middle" x="280.5" y="-357.4" font-family="Times Roman,serif" font-size="14.00">45</text>
</g>
<!-- 9&#45;&#45;19 -->
<g id="edge58" class="edge"><title>9&#45;&#45;19</title>
<path fill="none" stroke="black" d="M342.168,-388.537C348.815,-349.795 364.152,-260.401 370.814,-221.569"/>
<text text-anchor="middle" x="371" y="-311.4" font-family="Times Roman,serif" font-size="14.00">202</text>
</g>
<!-- 10&#45;&#45;11 -->
<g id="edge64" class="edge"><title>10&#45;&#45;11</title>
<path fill="none" stroke="black" d="M87.2395,-390.819C96.9009,-379.429 110.598,-364.115 124,-352 133.453,-343.455 144.814,-334.926 154.317,-328.214"/>
<text text-anchor="middle" x="138" y="-357.4" font-family="Times Roman,serif" font-size="14.00">134</text>
</g>
<!-- 14 -->
<g id="node15" class="node"><title>14</title>
<ellipse fill="none" stroke="red" cx="98" cy="-19" rx="27" ry="18.3848"/>
<text text-anchor="middle" x="98" y="-15.4" font-family="Times Roman,serif" font-size="14.00">14</text>
</g>
<!-- 10&#45;&#45;14 -->
<g id="edge62" class="edge"><title>10&#45;&#45;14</title>
<path fill="none" stroke="black" d="M58.0917,-392.029C41.8481,-375.048 19,-345.705 19,-315 19,-315 19,-315 19,-111 19,-75.2102 53.8373,-46.3837 77.2437,-31.0549"/>
<text text-anchor="middle" x="33" y="-199.4" font-family="Times Roman,serif" font-size="14.00">169</text>
</g>
<!-- 12 -->
<g id="node13" class="node"><title>12</title>
<ellipse fill="none" stroke="aqua" cx="194" cy="-203" rx="27" ry="18.3848"/>
<text text-anchor="middle" x="194" y="-199.4" font-family="Times Roman,serif" font-size="14.00">12</text>
</g>
<!-- 11&#45;&#45;12 -->
<g id="edge66" class="edge"><title>11&#45;&#45;12</title>
<path fill="none" stroke="black" d="M177.303,-296.505C181.008,-275.754 186.985,-242.285 190.693,-221.522"/>
<text text-anchor="middle" x="195.5" y="-255.4" font-family="Times Roman,serif" font-size="14.00">87</text>
</g>
<!-- 11&#45;&#45;14 -->
<g id="edge70" class="edge"><title>11&#45;&#45;14</title>
<path fill="none" stroke="black" d="M166.101,-296.979C154.222,-269.288 131.695,-214.395 118,-166 113.562,-150.316 113.988,-146.023 111,-130 106.365,-105.146 103.916,-99.1139 101,-74 99.5992,-61.9363 98.8499,-48.3061 98.4505,-37.6326"/>
<text text-anchor="middle" x="127.5" y="-153.4" font-family="Times Roman,serif" font-size="14.00">61</text>
</g>
<!-- 11&#45;&#45;19 -->
<g id="edge72" class="edge"><title>11&#45;&#45;19</title>
<path fill="none" stroke="black" d="M200.86,-312.865C228.475,-309.46 271.496,-300.663 301,-278 316.656,-265.974 310.703,-254.592 324,-240 332.583,-230.581 343.877,-221.984 353.558,-215.453"/>
<text text-anchor="middle" x="338" y="-255.4" font-family="Times Roman,serif" font-size="14.00">104</text>
</g>
<!-- 20 -->
<g id="node21" class="node"><title>20</title>
<ellipse fill="none" stroke="orchid" cx="400" cy="-19" rx="27" ry="18.3848"/>
<text text-anchor="middle" x="400" y="-15.4" font-family="Times Roman,serif" font-size="14.00">20</text>
</g>
<!-- 11&#45;&#45;20 -->
<g id="edge68" class="edge"><title>11&#45;&#45;20</title>
<path fill="none" stroke="black" d="M189.235,-299.381C195.468,-292.867 202.684,-285.163 209,-278 251.605,-229.683 262.52,-217.663 301,-166 335.002,-120.349 371.562,-63.9099 389.225,-36.1152"/>
<text text-anchor="middle" x="323.5" y="-153.4" font-family="Times Roman,serif" font-size="14.00">78</text>
</g>
<!-- 13 -->
<g id="node14" class="node"><title>13</title>
<ellipse fill="none" stroke="olive" cx="194" cy="-111" rx="27" ry="18.3848"/>
<text text-anchor="middle" x="194" y="-107.4" font-family="Times Roman,serif" font-size="14.00">13</text>
</g>
<!-- 12&#45;&#45;13 -->
<g id="edge74" class="edge"><title>12&#45;&#45;13</title>
<path fill="none" stroke="black" d="M194,-184.382C194,-168.421 194,-145.543 194,-129.59"/>
<text text-anchor="middle" x="208" y="-153.4" font-family="Times Roman,serif" font-size="14.00">143</text>
</g>
<!-- 12&#45;&#45;14 -->
<g id="edge78" class="edge"><title>12&#45;&#45;14</title>
<path fill="none" stroke="black" d="M177.545,-188.315C163.081,-174.566 142.449,-152.776 130,-130 113.551,-99.9071 104.799,-60.4902 100.8,-37.6325"/>
<text text-anchor="middle" x="144" y="-107.4" font-family="Times Roman,serif" font-size="14.00">112</text>
</g>
<!-- 18 -->
<g id="node19" class="node"><title>18</title>
<ellipse fill="none" stroke="olive" cx="447" cy="-111" rx="27" ry="18.3848"/>
<text text-anchor="middle" x="447" y="-107.4" font-family="Times Roman,serif" font-size="14.00">18</text>
</g>
<!-- 12&#45;&#45;18 -->
<g id="edge76" class="edge"><title>12&#45;&#45;18</title>
<path fill="none" stroke="black" d="M213.959,-190.367C224.768,-183.387 238.273,-174.442 250,-166 260.535,-158.416 261.041,-153.046 273,-148 327.958,-124.811 348.743,-146.727 406,-130 412.476,-128.108 419.228,-125.343 425.34,-122.505"/>
<text text-anchor="middle" x="287" y="-153.4" font-family="Times Roman,serif" font-size="14.00">171</text>
</g>
<!-- 12&#45;&#45;20 -->
<g id="edge80" class="edge"><title>12&#45;&#45;20</title>
<path fill="none" stroke="black" d="M207.741,-186.922C213.182,-180.472 219.451,-172.936 225,-166 263.429,-117.968 260.12,-93.3446 309,-56 328.65,-40.987 355.235,-31.1107 374.594,-25.3686"/>
<text text-anchor="middle" x="281.5" y="-107.4" font-family="Times Roman,serif" font-size="14.00">61</text>
</g>
<!-- 13&#45;&#45;14 -->
<g id="edge82" class="edge"><title>13&#45;&#45;14</title>
<path fill="none" stroke="black" d="M178.148,-95.8081C160.36,-78.762 131.673,-51.2698 113.876,-34.2145"/>
<text text-anchor="middle" x="168" y="-61.4" font-family="Times Roman,serif" font-size="14.00">158</text>
</g>
<!-- 16 -->
<g id="node17" class="node"><title>16</title>
<ellipse fill="none" stroke="olive" cx="611" cy="-407" rx="27" ry="18.3848"/>
<text text-anchor="middle" x="611" y="-403.4" font-family="Times Roman,serif" font-size="14.00">16</text>
</g>
<!-- 15&#45;&#45;16 -->
<g id="edge84" class="edge"><title>15&#45;&#45;16</title>
<path fill="none" stroke="black" d="M562.906,-501.5C573.552,-480.582 591.267,-445.773 601.968,-424.747"/>
<text text-anchor="middle" x="604" y="-459.4" font-family="Times Roman,serif" font-size="14.00">106</text>
</g>
<!-- 17 -->
<g id="node18" class="node"><title>17</title>
<ellipse fill="none" stroke="red" cx="503" cy="-259" rx="27" ry="18.3848"/>
<text text-anchor="middle" x="503" y="-255.4" font-family="Times Roman,serif" font-size="14.00">17</text>
</g>
<!-- 15&#45;&#45;17 -->
<g id="edge88" class="edge"><title>15&#45;&#45;17</title>
<path fill="none" stroke="black" d="M547.039,-500.98C544.752,-494.961 542.226,-488.206 540,-482 531.126,-457.261 526.665,-451.665 521,-426 509.31,-373.035 505.105,-308.877 503.679,-277.75"/>
<text text-anchor="middle" x="530.5" y="-403.4" font-family="Times Roman,serif" font-size="14.00">85</text>
</g>
<!-- 15&#45;&#45;19 -->
<g id="edge92" class="edge"><title>15&#45;&#45;19</title>
<path fill="none" stroke="black" d="M538.21,-503.782C532.258,-497.451 525.779,-489.772 521,-482 513.256,-469.407 428.662,-240.844 428,-240 419.512,-229.181 406.984,-220.324 396.131,-213.99"/>
<text text-anchor="middle" x="489" y="-357.4" font-family="Times Roman,serif" font-size="14.00">112</text>
</g>
<!-- 15&#45;&#45;20 -->
<g id="edge90" class="edge"><title>15&#45;&#45;20</title>
<path fill="none" stroke="black" d="M555.665,-500.371C560.001,-445.217 568.839,-278.466 531,-148 517.977,-103.099 514.909,-87.0976 480,-56 464.118,-41.8516 441.897,-32.1593 424.904,-26.2552"/>
<text text-anchor="middle" x="563.5" y="-255.4" font-family="Times Roman,serif" font-size="14.00">26</text>
</g>
<!-- 34 -->
<g id="node35" class="node"><title>34</title>
<ellipse fill="none" stroke="red" cx="679" cy="-315" rx="27" ry="18.3848"/>
<text text-anchor="middle" x="679" y="-311.4" font-family="Times Roman,serif" font-size="14.00">34</text>
</g>
<!-- 15&#45;&#45;34 -->
<g id="edge86" class="edge"><title>15&#45;&#45;34</title>
<path fill="none" stroke="black" d="M578.256,-510.397C592.522,-504.314 610.048,-494.928 622,-482 659.005,-441.972 657.29,-422.491 672,-370 675.325,-358.136 677.075,-344.386 677.994,-333.602"/>
<text text-anchor="middle" x="680" y="-403.4" font-family="Times Roman,serif" font-size="14.00">132</text>
</g>
<!-- 15&#45;&#45;39 -->
<g id="edge94" class="edge"><title>15&#45;&#45;39</title>
<path fill="none" stroke="black" d="M579.417,-512.715C599.537,-506.923 627.699,-496.941 649,-482 676.075,-463.009 676.578,-451.195 698,-426 732.355,-385.595 744.878,-378.325 774,-334 799.758,-294.795 795.504,-278.71 822,-240 827.153,-232.471 833.697,-224.833 839.596,-218.468"/>
<text text-anchor="middle" x="770.5" y="-357.4" font-family="Times Roman,serif" font-size="14.00">90</text>
</g>
<!-- 16&#45;&#45;17 -->
<g id="edge96" class="edge"><title>16&#45;&#45;17</title>
<path fill="none" stroke="black" d="M595.882,-391.63C589.778,-385.154 582.818,-377.411 577,-370 552.257,-338.484 527.162,-298.873 513.489,-276.5"/>
<text text-anchor="middle" x="591" y="-357.4" font-family="Times Roman,serif" font-size="14.00">219</text>
</g>
<!-- 16&#45;&#45;34 -->
<g id="edge100" class="edge"><title>16&#45;&#45;34</title>
<path fill="none" stroke="black" d="M623.472,-390.126C635.742,-373.526 654.365,-348.33 666.607,-331.767"/>
<text text-anchor="middle" x="660.5" y="-357.4" font-family="Times Roman,serif" font-size="14.00">45</text>
</g>
<!-- 36 -->
<g id="node37" class="node"><title>36</title>
<ellipse fill="none" stroke="aqua" cx="675" cy="-19" rx="27" ry="18.3848"/>
<text text-anchor="middle" x="675" y="-15.4" font-family="Times Roman,serif" font-size="14.00">36</text>
</g>
<!-- 16&#45;&#45;36 -->
<g id="edge98" class="edge"><title>16&#45;&#45;36</title>
<path fill="none" stroke="black" d="M613.575,-388.364C615.914,-369.808 619,-340.492 619,-315 619,-315 619,-315 619,-111 619,-80.1475 642.264,-50.8471 658.802,-33.9148"/>
<text text-anchor="middle" x="633" y="-199.4" font-family="Times Roman,serif" font-size="14.00">154</text>
</g>
<!-- 17&#45;&#45;18 -->
<g id="edge102" class="edge"><title>17&#45;&#45;18</title>
<path fill="none" stroke="black" d="M482.918,-246.179C474.769,-239.902 466.094,-231.618 461,-222 445.365,-192.476 444.419,-152.518 445.483,-129.474"/>
<text text-anchor="middle" x="475" y="-199.4" font-family="Times Roman,serif" font-size="14.00">162</text>
</g>
<!-- 17&#45;&#45;20 -->
<g id="edge104" class="edge"><title>17&#45;&#45;20</title>
<path fill="none" stroke="black" d="M503.545,-240.308C503.864,-208.723 501.908,-143.226 483,-92 476.341,-73.9601 472.786,-69.4065 459,-56 448.165,-45.4633 433.845,-36.3949 422.026,-29.873"/>
<text text-anchor="middle" x="513" y="-153.4" font-family="Times Roman,serif" font-size="14.00">132</text>
</g>
<!-- 18&#45;&#45;20 -->
<g id="edge106" class="edge"><title>18&#45;&#45;20</title>
<path fill="none" stroke="black" d="M437.938,-93.2615C429.615,-76.9704 417.348,-52.9579 409.034,-36.6841"/>
<text text-anchor="middle" x="441" y="-61.4" font-family="Times Roman,serif" font-size="14.00">145</text>
</g>
<!-- 19&#45;&#45;20 -->
<g id="edge108" class="edge"><title>19&#45;&#45;20</title>
<path fill="none" stroke="black" d="M374.666,-184.44C375.652,-162.317 377.96,-124.284 383,-92 385.93,-73.2287 391.048,-52.1247 394.904,-37.4542"/>
<text text-anchor="middle" x="397" y="-107.4" font-family="Times Roman,serif" font-size="14.00">170</text>
</g>
<!-- 21 -->
<g id="node22" class="node"><title>21</title>
<ellipse fill="none" stroke="aqua" cx="1644" cy="-979" rx="27" ry="18.3848"/>
<text text-anchor="middle" x="1644" y="-975.4" font-family="Times Roman,serif" font-size="14.00">21</text>
</g>
<!-- 22 -->
<g id="node23" class="node"><title>22</title>
<ellipse fill="none" stroke="olive" cx="1589" cy="-887" rx="27" ry="18.3848"/>
<text text-anchor="middle" x="1589" y="-883.4" font-family="Times Roman,serif" font-size="14.00">22</text>
</g>
<!-- 21&#45;&#45;22 -->
<g id="edge112" class="edge"><title>21&#45;&#45;22</title>
<path fill="none" stroke="black" d="M1624.4,-965.908C1616.34,-959.582 1607.6,-951.333 1602,-942 1595.39,-930.978 1592.14,-916.834 1590.54,-905.65"/>
<text text-anchor="middle" x="1616" y="-929.4" font-family="Times Roman,serif" font-size="14.00">188</text>
</g>
<!-- 24 -->
<g id="node25" class="node"><title>24</title>
<ellipse fill="none" stroke="red" cx="1603" cy="-703" rx="27" ry="18.3848"/>
<text text-anchor="middle" x="1603" y="-699.4" font-family="Times Roman,serif" font-size="14.00">24</text>
</g>
<!-- 21&#45;&#45;24 -->
<g id="edge110" class="edge"><title>21&#45;&#45;24</title>
<path fill="none" stroke="black" d="M1642.27,-960.464C1638.84,-924.688 1630.56,-843.673 1620,-776 1617.49,-759.895 1616.68,-755.878 1613,-740 1611.59,-733.907 1609.86,-727.3 1608.25,-721.378"/>
<text text-anchor="middle" x="1644" y="-837.4" font-family="Times Roman,serif" font-size="14.00">169</text>
</g>
<!-- 40 -->
<g id="node41" class="node"><title>40</title>
<ellipse fill="none" stroke="purple" cx="1696" cy="-519" rx="27" ry="18.3848"/>
<text text-anchor="middle" x="1696" y="-515.4" font-family="Times Roman,serif" font-size="14.00">40</text>
</g>
<!-- 21&#45;&#45;40 -->
<g id="edge114" class="edge"><title>21&#45;&#45;40</title>
<path fill="none" stroke="black" d="M1666.25,-968.448C1692.9,-954.08 1734,-925.655 1734,-887 1734,-887 1734,-887 1734,-611 1734,-583.005 1718.78,-553.599 1707.61,-535.779"/>
<text text-anchor="middle" x="1748" y="-745.4" font-family="Times Roman,serif" font-size="14.00">112</text>
</g>
<!-- 23 -->
<g id="node24" class="node"><title>23</title>
<ellipse fill="none" stroke="aqua" cx="1509" cy="-795" rx="27" ry="18.3848"/>
<text text-anchor="middle" x="1509" y="-791.4" font-family="Times Roman,serif" font-size="14.00">23</text>
</g>
<!-- 22&#45;&#45;23 -->
<g id="edge116" class="edge"><title>22&#45;&#45;23</title>
<path fill="none" stroke="black" d="M1572.58,-872.018C1565.68,-865.475 1557.72,-857.578 1551,-850 1540.16,-837.775 1528.98,-823.016 1520.89,-811.867"/>
<text text-anchor="middle" x="1565" y="-837.4" font-family="Times Roman,serif" font-size="14.00">107</text>
</g>
<!-- 22&#45;&#45;24 -->
<g id="edge118" class="edge"><title>22&#45;&#45;24</title>
<path fill="none" stroke="black" d="M1590.42,-868.345C1593.1,-833.078 1598.89,-757.009 1601.58,-721.705"/>
<text text-anchor="middle" x="1606.5" y="-791.4" font-family="Times Roman,serif" font-size="14.00">58</text>
</g>
<!-- 23&#45;&#45;24 -->
<g id="edge126" class="edge"><title>23&#45;&#45;24</title>
<path fill="none" stroke="black" d="M1519.95,-778.062C1527.81,-766.606 1539.08,-751.524 1551,-740 1560.56,-730.758 1572.58,-722.051 1582.66,-715.407"/>
<text text-anchor="middle" x="1565" y="-745.4" font-family="Times Roman,serif" font-size="14.00">118</text>
</g>
<!-- 25 -->
<g id="node26" class="node"><title>25</title>
<ellipse fill="none" stroke="olive" cx="1509" cy="-611" rx="27" ry="18.3848"/>
<text text-anchor="middle" x="1509" y="-607.4" font-family="Times Roman,serif" font-size="14.00">25</text>
</g>
<!-- 23&#45;&#45;25 -->
<g id="edge124" class="edge"><title>23&#45;&#45;25</title>
<path fill="none" stroke="black" d="M1509,-776.345C1509,-741.078 1509,-665.009 1509,-629.705"/>
<text text-anchor="middle" x="1518.5" y="-699.4" font-family="Times Roman,serif" font-size="14.00">83</text>
</g>
<!-- 27 -->
<g id="node28" class="node"><title>27</title>
<ellipse fill="none" stroke="olive" cx="1280" cy="-611" rx="27" ry="18.3848"/>
<text text-anchor="middle" x="1280" y="-607.4" font-family="Times Roman,serif" font-size="14.00">27</text>
</g>
<!-- 23&#45;&#45;27 -->
<g id="edge122" class="edge"><title>23&#45;&#45;27</title>
<path fill="none" stroke="black" d="M1482.97,-790.007C1430.39,-779.363 1314.43,-752.877 1290,-722 1268.99,-695.448 1272.03,-653.327 1276.06,-629.331"/>
<text text-anchor="middle" x="1299.5" y="-699.4" font-family="Times Roman,serif" font-size="14.00">95</text>
</g>
<!-- 28 -->
<g id="node29" class="node"><title>28</title>
<ellipse fill="none" stroke="red" cx="1334" cy="-519" rx="27" ry="18.3848"/>
<text text-anchor="middle" x="1334" y="-515.4" font-family="Times Roman,serif" font-size="14.00">28</text>
</g>
<!-- 23&#45;&#45;28 -->
<g id="edge120" class="edge"><title>23&#45;&#45;28</title>
<path fill="none" stroke="black" d="M1482.11,-791.835C1435.05,-785.997 1339.94,-772.77 1310,-758 1288.55,-747.418 1283.32,-741.867 1270,-722 1237.19,-673.056 1218.77,-645.246 1244,-592 1257.87,-562.729 1289.89,-541.402 1311.75,-529.605"/>
<text text-anchor="middle" x="1246.5" y="-653.4" font-family="Times Roman,serif" font-size="14.00">91</text>
</g>
<!-- 24&#45;&#45;25 -->
<g id="edge128" class="edge"><title>24&#45;&#45;25</title>
<path fill="none" stroke="black" d="M1585.92,-688.579C1578.17,-681.873 1568.97,-673.694 1561,-666 1547.76,-653.222 1533.45,-637.971 1523.2,-626.773"/>
<text text-anchor="middle" x="1575" y="-653.4" font-family="Times Roman,serif" font-size="14.00">182</text>
</g>
<!-- 24&#45;&#45;40 -->
<g id="edge134" class="edge"><title>24&#45;&#45;40</title>
<path fill="none" stroke="black" d="M1624.97,-691.981C1635.46,-685.691 1647.36,-676.881 1655,-666 1683.01,-626.103 1691.94,-567.617 1694.74,-537.875"/>
<text text-anchor="middle" x="1694.5" y="-607.4" font-family="Times Roman,serif" font-size="14.00">46</text>
</g>
<!-- 41 -->
<g id="node42" class="node"><title>41</title>
<ellipse fill="none" stroke="orchid" cx="1242" cy="-111" rx="27" ry="18.3848"/>
<text text-anchor="middle" x="1242" y="-107.4" font-family="Times Roman,serif" font-size="14.00">41</text>
</g>
<!-- 24&#45;&#45;41 -->
<g id="edge130" class="edge"><title>24&#45;&#45;41</title>
<path fill="none" stroke="black" d="M1603,-684.322C1603,-665.735 1603,-636.396 1603,-611 1603,-611 1603,-611 1603,-203 1603,-134.119 1353.09,-116.171 1269.13,-112.085"/>
<text text-anchor="middle" x="1612.5" y="-403.4" font-family="Times Roman,serif" font-size="14.00">62</text>
</g>
<!-- 42 -->
<g id="node43" class="node"><title>42</title>
<ellipse fill="none" stroke="aqua" cx="1242" cy="-19" rx="27" ry="18.3848"/>
<text text-anchor="middle" x="1242" y="-15.4" font-family="Times Roman,serif" font-size="14.00">42</text>
</g>
<!-- 24&#45;&#45;42 -->
<g id="edge132" class="edge"><title>24&#45;&#45;42</title>
<path fill="none" stroke="black" d="M1610.77,-685.222C1613.11,-679.219 1615.47,-672.413 1617,-666 1648.71,-533.393 1650,-497.347 1650,-361 1650,-361 1650,-361 1650,-111 1650,-71.7896 1359.54,-33.2507 1268.77,-22.1645"/>
<text text-anchor="middle" x="1664" y="-357.4" font-family="Times Roman,serif" font-size="14.00">102</text>
</g>
<!-- 25&#45;&#45;28 -->
<g id="edge140" class="edge"><title>25&#45;&#45;28</title>
<path fill="none" stroke="black" d="M1487.06,-600.018C1473.72,-593.066 1456.52,-583.602 1442,-574 1431.17,-566.84 1430.15,-562.644 1419,-556 1399.5,-544.385 1375.7,-534.341 1358.25,-527.66"/>
<text text-anchor="middle" x="1456" y="-561.4" font-family="Times Roman,serif" font-size="14.00">113</text>
</g>
<!-- 31 -->
<g id="node32" class="node"><title>31</title>
<ellipse fill="none" stroke="purple" cx="1328" cy="-315" rx="27" ry="18.3848"/>
<text text-anchor="middle" x="1328" y="-311.4" font-family="Times Roman,serif" font-size="14.00">31</text>
</g>
<!-- 25&#45;&#45;31 -->
<g id="edge136" class="edge"><title>25&#45;&#45;31</title>
<path fill="none" stroke="black" d="M1503.51,-592.702C1488.45,-542.696 1446.86,-406.25 1436,-388 1416.91,-355.906 1377.56,-334.858 1352,-323.949"/>
<text text-anchor="middle" x="1477.5" y="-459.4" font-family="Times Roman,serif" font-size="14.00">83</text>
</g>
<!-- 33 -->
<g id="node34" class="node"><title>33</title>
<ellipse fill="none" stroke="red" cx="1275" cy="-203" rx="27" ry="18.3848"/>
<text text-anchor="middle" x="1275" y="-199.4" font-family="Times Roman,serif" font-size="14.00">33</text>
</g>
<!-- 25&#45;&#45;33 -->
<g id="edge138" class="edge"><title>25&#45;&#45;33</title>
<path fill="none" stroke="black" d="M1509.16,-592.443C1508.91,-561.057 1506.13,-495.847 1489,-444 1465.78,-373.731 1346.23,-244.482 1341,-240 1328.03,-228.888 1311.22,-219.521 1297.8,-212.991"/>
<text text-anchor="middle" x="1495" y="-403.4" font-family="Times Roman,serif" font-size="14.00">103</text>
</g>
<!-- 25&#45;&#45;41 -->
<g id="edge142" class="edge"><title>25&#45;&#45;41</title>
<path fill="none" stroke="black" d="M1523.4,-595.023C1537.54,-577.633 1557,-548.365 1557,-519 1557,-519 1557,-519 1557,-203 1557,-143.179 1345.03,-119.594 1268.86,-113.049"/>
<text text-anchor="middle" x="1566.5" y="-357.4" font-family="Times Roman,serif" font-size="14.00">82</text>
</g>
<!-- 26 -->
<g id="node27" class="node"><title>26</title>
<ellipse fill="none" stroke="aqua" cx="1345" cy="-703" rx="27" ry="18.3848"/>
<text text-anchor="middle" x="1345" y="-699.4" font-family="Times Roman,serif" font-size="14.00">26</text>
</g>
<!-- 26&#45;&#45;27 -->
<g id="edge148" class="edge"><title>26&#45;&#45;27</title>
<path fill="none" stroke="black" d="M1326.11,-689.443C1318.18,-683.031 1309.34,-674.843 1303,-666 1295.04,-654.9 1289.17,-640.624 1285.36,-629.398"/>
<text text-anchor="middle" x="1317" y="-653.4" font-family="Times Roman,serif" font-size="14.00">122</text>
</g>
<!-- 26&#45;&#45;28 -->
<g id="edge146" class="edge"><title>26&#45;&#45;28</title>
<path fill="none" stroke="black" d="M1343.88,-684.345C1341.78,-649.078 1337.23,-573.009 1335.12,-537.705"/>
<text text-anchor="middle" x="1349.5" y="-607.4" font-family="Times Roman,serif" font-size="14.00">86</text>
</g>
<!-- 30 -->
<g id="node31" class="node"><title>30</title>
<ellipse fill="none" stroke="olive" cx="1400" cy="-407" rx="27" ry="18.3848"/>
<text text-anchor="middle" x="1400" y="-403.4" font-family="Times Roman,serif" font-size="14.00">30</text>
</g>
<!-- 26&#45;&#45;30 -->
<g id="edge144" class="edge"><title>26&#45;&#45;30</title>
<path fill="none" stroke="black" d="M1350.84,-684.652C1352.62,-678.732 1354.5,-672.118 1356,-666 1359.88,-650.17 1360.11,-646.041 1363,-630 1376.64,-554.299 1391.08,-463.797 1397.1,-425.532"/>
<text text-anchor="middle" x="1389" y="-561.4" font-family="Times Roman,serif" font-size="14.00">109</text>
</g>
<!-- 27&#45;&#45;28 -->
<g id="edge150" class="edge"><title>27&#45;&#45;28</title>
<path fill="none" stroke="black" d="M1285.15,-592.648C1288.71,-581.573 1294.04,-567.439 1301,-556 1305.74,-548.205 1312.21,-540.522 1318.17,-534.194"/>
<text text-anchor="middle" x="1315" y="-561.4" font-family="Times Roman,serif" font-size="14.00">203</text>
</g>
<!-- 28&#45;&#45;30 -->
<g id="edge152" class="edge"><title>28&#45;&#45;30</title>
<path fill="none" stroke="black" d="M1338.05,-500.643C1342.13,-484.749 1349.5,-461.611 1361,-444 1366.61,-435.405 1374.6,-427.365 1381.89,-420.99"/>
<text text-anchor="middle" x="1370.5" y="-459.4" font-family="Times Roman,serif" font-size="14.00">95</text>
</g>
<!-- 28&#45;&#45;31 -->
<g id="edge154" class="edge"><title>28&#45;&#45;31</title>
<path fill="none" stroke="black" d="M1333.45,-500.174C1332.3,-461.311 1329.69,-372.605 1328.55,-333.781"/>
<text text-anchor="middle" x="1345" y="-403.4" font-family="Times Roman,serif" font-size="14.00">144</text>
</g>
<!-- 29 -->
<g id="node30" class="node"><title>29</title>
<ellipse fill="none" stroke="aqua" cx="1259" cy="-519" rx="27" ry="18.3848"/>
<text text-anchor="middle" x="1259" y="-515.4" font-family="Times Roman,serif" font-size="14.00">29</text>
</g>
<!-- 29&#45;&#45;30 -->
<g id="edge158" class="edge"><title>29&#45;&#45;30</title>
<path fill="none" stroke="black" d="M1269.56,-501.906C1280.5,-485.334 1298.92,-460.366 1320,-444 1335.08,-432.292 1341.67,-434.013 1359,-426 1364.98,-423.234 1371.45,-420.237 1377.45,-417.459"/>
<text text-anchor="middle" x="1329.5" y="-459.4" font-family="Times Roman,serif" font-size="14.00">96</text>
</g>
<!-- 29&#45;&#45;31 -->
<g id="edge160" class="edge"><title>29&#45;&#45;31</title>
<path fill="none" stroke="black" d="M1263.51,-500.718C1267.36,-485.472 1273.18,-463.218 1279,-444 1286.61,-418.844 1288.78,-412.611 1298,-388 1305.12,-369.01 1314.03,-347.579 1320.29,-332.876"/>
<text text-anchor="middle" x="1312" y="-403.4" font-family="Times Roman,serif" font-size="14.00">120</text>
</g>
<!-- 29&#45;&#45;33 -->
<g id="edge162" class="edge"><title>29&#45;&#45;33</title>
<path fill="none" stroke="black" d="M1259.95,-500.179C1262.8,-443.975 1271.21,-277.797 1274.05,-221.722"/>
<text text-anchor="middle" x="1281" y="-357.4" font-family="Times Roman,serif" font-size="14.00">126</text>
</g>
<!-- 35 -->
<g id="node36" class="node"><title>35</title>
<ellipse fill="none" stroke="olive" cx="984" cy="-111" rx="27" ry="18.3848"/>
<text text-anchor="middle" x="984" y="-107.4" font-family="Times Roman,serif" font-size="14.00">35</text>
</g>
<!-- 29&#45;&#45;35 -->
<g id="edge156" class="edge"><title>29&#45;&#45;35</title>
<path fill="none" stroke="black" d="M1232.12,-515.662C1185.58,-508.373 1090.35,-486.527 1042,-426 969.467,-335.195 976.709,-182.704 981.813,-129.772"/>
<text text-anchor="middle" x="1010" y="-311.4" font-family="Times Roman,serif" font-size="14.00">163</text>
</g>
<!-- 30&#45;&#45;31 -->
<g id="edge164" class="edge"><title>30&#45;&#45;31</title>
<path fill="none" stroke="black" d="M1387.13,-390.552C1374.02,-373.806 1353.83,-348 1340.76,-331.305"/>
<text text-anchor="middle" x="1384" y="-357.4" font-family="Times Roman,serif" font-size="14.00">171</text>
</g>
<!-- 31&#45;&#45;33 -->
<g id="edge166" class="edge"><title>31&#45;&#45;33</title>
<path fill="none" stroke="black" d="M1319.48,-297.005C1309.59,-276.105 1293.38,-241.831 1283.49,-220.95"/>
<text text-anchor="middle" x="1323" y="-255.4" font-family="Times Roman,serif" font-size="14.00">111</text>
</g>
<!-- 32 -->
<g id="node33" class="node"><title>32</title>
<ellipse fill="none" stroke="aqua" cx="1078" cy="-407" rx="27" ry="18.3848"/>
<text text-anchor="middle" x="1078" y="-403.4" font-family="Times Roman,serif" font-size="14.00">32</text>
</g>
<!-- 32&#45;&#45;33 -->
<g id="edge170" class="edge"><title>32&#45;&#45;33</title>
<path fill="none" stroke="black" d="M1098.73,-394.972C1108.9,-388.425 1120.9,-379.69 1130,-370 1156.52,-341.778 1151.46,-325.955 1176,-296 1201.26,-265.172 1236.31,-234.517 1257.22,-217.241"/>
<text text-anchor="middle" x="1190" y="-311.4" font-family="Times Roman,serif" font-size="14.00">208</text>
</g>
<!-- 32&#45;&#45;34 -->
<g id="edge172" class="edge"><title>32&#45;&#45;34</title>
<path fill="none" stroke="black" d="M1051.3,-403.984C1020,-399.677 967.18,-389.964 926,-370 914.32,-364.337 915.05,-356.827 903,-352 827.136,-321.607 798.852,-355.484 720,-334 713.49,-332.226 706.727,-329.5 700.616,-326.662"/>
<text text-anchor="middle" x="940" y="-357.4" font-family="Times Roman,serif" font-size="14.00">161</text>
</g>
<!-- 32&#45;&#45;35 -->
<g id="edge168" class="edge"><title>32&#45;&#45;35</title>
<path fill="none" stroke="black" d="M1079.31,-388.335C1082.66,-335.647 1089.46,-187.064 1063,-148 1051.03,-130.319 1028.28,-120.891 1010.25,-115.987"/>
<text text-anchor="middle" x="1091.5" y="-255.4" font-family="Times Roman,serif" font-size="14.00">74</text>
</g>
<!-- 32&#45;&#45;39 -->
<g id="edge174" class="edge"><title>32&#45;&#45;39</title>
<path fill="none" stroke="black" d="M1052.87,-399.756C1021.53,-389.604 967.947,-368.428 934,-334 901.344,-300.88 913.943,-278.604 888,-240 882.911,-232.427 876.378,-224.782 870.47,-218.423"/>
<text text-anchor="middle" x="948" y="-311.4" font-family="Times Roman,serif" font-size="14.00">151</text>
</g>
<!-- 32&#45;&#45;41 -->
<g id="edge176" class="edge"><title>32&#45;&#45;41</title>
<path fill="none" stroke="black" d="M1085.97,-389.083C1108.94,-337.739 1175.6,-191.004 1206,-148 1211.59,-140.096 1218.87,-132.276 1225.42,-125.875"/>
<text text-anchor="middle" x="1164.5" y="-255.4" font-family="Times Roman,serif" font-size="14.00">75</text>
</g>
<!-- 33&#45;&#45;35 -->
<g id="edge178" class="edge"><title>33&#45;&#45;35</title>
<path fill="none" stroke="black" d="M1250.19,-195.156C1195.21,-177.775 1063.67,-136.187 1008.75,-118.824"/>
<text text-anchor="middle" x="1164.5" y="-153.4" font-family="Times Roman,serif" font-size="14.00">52</text>
</g>
<!-- 33&#45;&#45;41 -->
<g id="edge180" class="edge"><title>33&#45;&#45;41</title>
<path fill="none" stroke="black" d="M1268.48,-184.824C1262.69,-168.695 1254.29,-145.256 1248.51,-129.138"/>
<text text-anchor="middle" x="1275" y="-153.4" font-family="Times Roman,serif" font-size="14.00">104</text>
</g>
<!-- 34&#45;&#45;35 -->
<g id="edge184" class="edge"><title>34&#45;&#45;35</title>
<path fill="none" stroke="black" d="M686.907,-297.154C694.506,-281.171 707.025,-257.607 722,-240 786.382,-164.303 905.759,-128.9 958.18,-116.462"/>
<text text-anchor="middle" x="799" y="-199.4" font-family="Times Roman,serif" font-size="14.00">109</text>
</g>
<!-- 34&#45;&#45;36 -->
<g id="edge182" class="edge"><title>34&#45;&#45;36</title>
<path fill="none" stroke="black" d="M678.75,-296.484C678.031,-243.326 675.968,-90.658 675.25,-37.5091"/>
<text text-anchor="middle" x="685.5" y="-153.4" font-family="Times Roman,serif" font-size="14.00">99</text>
</g>
<!-- 34&#45;&#45;39 -->
<g id="edge186" class="edge"><title>34&#45;&#45;39</title>
<path fill="none" stroke="black" d="M695.363,-299.992C716.413,-280.875 752.043,-249.209 767,-240 787.181,-227.574 812.274,-217.485 830.495,-211"/>
<text text-anchor="middle" x="776.5" y="-255.4" font-family="Times Roman,serif" font-size="14.00">96</text>
</g>
<!-- 35&#45;&#45;36 -->
<g id="edge188" class="edge"><title>35&#45;&#45;36</title>
<path fill="none" stroke="black" d="M959.236,-103.627C901.378,-86.4005 757.856,-43.6692 699.882,-26.4083"/>
<text text-anchor="middle" x="871" y="-61.4" font-family="Times Roman,serif" font-size="14.00">173</text>
</g>
<!-- 37&#45;&#45;38 -->
<g id="edge190" class="edge"><title>37&#45;&#45;38</title>
<path fill="none" stroke="black" d="M852.572,-601.487C865.762,-595.233 881.762,-585.983 893,-574 918.599,-546.704 934.808,-505.234 942.565,-481.468"/>
<text text-anchor="middle" x="920" y="-561.4" font-family="Times Roman,serif" font-size="14.00">119</text>
</g>
<!-- 37&#45;&#45;40 -->
<g id="edge194" class="edge"><title>37&#45;&#45;40</title>
<path fill="none" stroke="black" d="M855.643,-607.572C885.45,-603.744 935.178,-597.379 978,-592 1107.3,-575.758 1139.4,-569.627 1269,-556 1419.96,-540.127 1601.48,-526.056 1668.99,-520.995"/>
<text text-anchor="middle" x="1278.5" y="-561.4" font-family="Times Roman,serif" font-size="14.00">83</text>
</g>
<!-- 37&#45;&#45;42 -->
<g id="edge192" class="edge"><title>37&#45;&#45;42</title>
<path fill="none" stroke="black" d="M821.15,-592.885C810.627,-568.156 791.79,-522.293 779,-482 758.486,-417.376 750.284,-401.294 742,-334 739.936,-317.238 735.327,-311.515 742,-296 746.596,-285.314 755.561,-288.282 761,-278 807.741,-189.646 723.625,-123.877 797,-56 827.695,-27.6052 1122.72,-20.7913 1214.73,-19.3506"/>
<text text-anchor="middle" x="756" y="-311.4" font-family="Times Roman,serif" font-size="14.00">116</text>
</g>
<!-- 38&#45;&#45;39 -->
<g id="edge196" class="edge"><title>38&#45;&#45;39</title>
<path fill="none" stroke="black" d="M931.088,-448.515C912.758,-431.7 884.343,-402.137 871,-370 850.059,-319.564 851.21,-253.423 853.326,-221.638"/>
<text text-anchor="middle" x="885" y="-357.4" font-family="Times Roman,serif" font-size="14.00">176</text>
</g>
<!-- 38&#45;&#45;41 -->
<g id="edge198" class="edge"><title>38&#45;&#45;41</title>
<path fill="none" stroke="black" d="M974.958,-461.687C1009.25,-459.005 1069.37,-450.841 1114,-426 1163.98,-398.184 1178.01,-384.957 1204,-334 1222.29,-298.139 1235.65,-176.713 1240.25,-129.755"/>
<text text-anchor="middle" x="1224.5" y="-311.4" font-family="Times Roman,serif" font-size="14.00">85</text>
</g>
<!-- 38&#45;&#45;42 -->
<g id="edge200" class="edge"><title>38&#45;&#45;42</title>
<path fill="none" stroke="black" d="M959.832,-446.131C976.302,-422.099 1006.33,-376.228 1026,-334 1063.5,-253.502 1046.82,-219.86 1099,-148 1134.95,-98.4885 1192.58,-53.8438 1222.52,-32.4083"/>
<text text-anchor="middle" x="1065.5" y="-255.4" font-family="Times Roman,serif" font-size="14.00">58</text>
</g>
<!-- 39&#45;&#45;41 -->
<g id="edge202" class="edge"><title>39&#45;&#45;41</title>
<path fill="none" stroke="black" d="M880.614,-196.604C922.34,-186.216 1007.6,-165.115 1080,-148 1128.01,-136.65 1184.16,-123.954 1216.16,-116.775"/>
<text text-anchor="middle" x="1089.5" y="-153.4" font-family="Times Roman,serif" font-size="14.00">42</text>
</g>
<!-- 40&#45;&#45;42 -->
<g id="edge204" class="edge"><title>40&#45;&#45;42</title>
<path fill="none" stroke="black" d="M1695.46,-500.374C1694.87,-478.149 1694,-439.866 1694,-407 1694,-407 1694,-407 1694,-111 1694,-83.1556 1687.3,-71.2466 1664,-56 1631,-34.4049 1357.03,-23.0222 1269.07,-19.8992"/>
<text text-anchor="middle" x="1708" y="-255.4" font-family="Times Roman,serif" font-size="14.00">198</text>
</g>
<!-- 41&#45;&#45;42 -->
<g id="edge206" class="edge"><title>41&#45;&#45;42</title>
<path fill="none" stroke="black" d="M1242,-92.3824C1242,-76.4208 1242,-53.5435 1242,-37.5899"/>
<text text-anchor="middle" x="1256" y="-61.4" font-family="Times Roman,serif" font-size="14.00">189</text>
</g>
</g>
</svg>
