<?xml version="1.0" encoding="UTF-8" standalone="no"?>
<!DOCTYPE svg PUBLIC "-//W3C//DTD SVG 1.1//EN"
 "http://www.w3.org/Graphics/SVG/1.1/DTD/svg11.dtd">
<!-- Generated by graphviz version 2.26.3 (20100126.1600)
 -->
<!-- Title: mesh Pages: 1 -->
<svg width="930pt" height="598pt"
 viewBox="0.00 0.00 930.00 598.00" xmlns="http://www.w3.org/2000/svg" xmlns:xlink="http://www.w3.org/1999/xlink">
<g id="graph1" class="graph" transform="scale(1 1) rotate(0) translate(4 594)">
<title>mesh</title>
<polygon fill="white" stroke="white" points="-4,5 -4,-594 927,-594 927,5 -4,5"/>
<!-- 0 -->
<g id="node1" class="node"><title>0</title>
<ellipse fill="none" stroke="aqua" cx="410" cy="-479" rx="27" ry="18.3848"/>
<text text-anchor="middle" x="410" y="-475.4" font-family="Times Roman,serif" font-size="14.00">0</text>
</g>
<!-- 1 -->
<g id="node2" class="node"><title>1</title>
<ellipse fill="none" stroke="olive" cx="249" cy="-387" rx="27" ry="18.3848"/>
<text text-anchor="middle" x="249" y="-383.4" font-family="Times Roman,serif" font-size="14.00">1</text>
</g>
<!-- 0&#45;&#45;1 -->
<g id="edge8" class="edge"><title>0&#45;&#45;1</title>
<path fill="none" stroke="black" d="M388.952,-466.973C358.011,-449.292 300.595,-416.483 269.798,-398.885"/>
<text text-anchor="middle" x="357" y="-429.4" font-family="Times Roman,serif" font-size="14.00">275</text>
</g>
<!-- 6 -->
<g id="node7" class="node"><title>6</title>
<ellipse fill="none" stroke="olive" cx="410" cy="-387" rx="27" ry="18.3848"/>
<text text-anchor="middle" x="410" y="-383.4" font-family="Times Roman,serif" font-size="14.00">6</text>
</g>
<!-- 0&#45;&#45;6 -->
<g id="edge4" class="edge"><title>0&#45;&#45;6</title>
<path fill="none" stroke="black" d="M410,-460.382C410,-444.421 410,-421.543 410,-405.59"/>
<text text-anchor="middle" x="419.5" y="-429.4" font-family="Times Roman,serif" font-size="14.00">31</text>
</g>
<!-- 8 -->
<g id="node9" class="node"><title>8</title>
<ellipse fill="none" stroke="purple" cx="195" cy="-19" rx="27" ry="18.3848"/>
<text text-anchor="middle" x="195" y="-15.4" font-family="Times Roman,serif" font-size="14.00">8</text>
</g>
<!-- 0&#45;&#45;8 -->
<g id="edge6" class="edge"><title>0&#45;&#45;8</title>
<path fill="none" stroke="black" d="M383.099,-475.849C291.885,-464.806 0,-426.393 0,-387 0,-387 0,-387 0,-111 0,-73.9415 116.65,-39.173 169.507,-25.3207"/>
<text text-anchor="middle" x="14" y="-245.4" font-family="Times Roman,serif" font-size="14.00">235</text>
</g>
<!-- 12 -->
<g id="node13" class="node"><title>12</title>
<ellipse fill="none" stroke="olive" cx="554" cy="-295" rx="27" ry="18.3848"/>
<text text-anchor="middle" x="554" y="-291.4" font-family="Times Roman,serif" font-size="14.00">12</text>
</g>
<!-- 0&#45;&#45;12 -->
<g id="edge10" class="edge"><title>0&#45;&#45;12</title>
<path fill="none" stroke="black" d="M435.48,-472.866C453.33,-467.408 476.646,-457.787 492,-442 528.946,-404.012 517.261,-380.765 538,-332 540.629,-325.817 543.537,-319.069 546.144,-313.048"/>
<text text-anchor="middle" x="540" y="-383.4" font-family="Times Roman,serif" font-size="14.00">266</text>
</g>
<!-- 16 -->
<g id="node17" class="node"><title>16</title>
<ellipse fill="none" stroke="purple" cx="581" cy="-203" rx="27" ry="18.3848"/>
<text text-anchor="middle" x="581" y="-199.4" font-family="Times Roman,serif" font-size="14.00">16</text>
</g>
<!-- 0&#45;&#45;16 -->
<g id="edge2" class="edge"><title>0&#45;&#45;16</title>
<path fill="none" stroke="black" d="M421.065,-461.861C424.953,-455.67 429.277,-448.584 433,-442 473.804,-369.852 471.704,-344.753 518,-276 532.399,-254.616 552.273,-232.542 565.823,-218.347"/>
<text text-anchor="middle" x="499" y="-337.4" font-family="Times Roman,serif" font-size="14.00">172</text>
</g>
<!-- 2 -->
<g id="node3" class="node"><title>2</title>
<ellipse fill="none" stroke="aqua" cx="128" cy="-295" rx="27" ry="18.3848"/>
<text text-anchor="middle" x="128" y="-291.4" font-family="Times Roman,serif" font-size="14.00">2</text>
</g>
<!-- 1&#45;&#45;2 -->
<g id="edge14" class="edge"><title>1&#45;&#45;2</title>
<path fill="none" stroke="black" d="M230.885,-373.227C208.074,-355.883 169.108,-326.256 146.239,-308.867"/>
<text text-anchor="middle" x="213" y="-337.4" font-family="Times Roman,serif" font-size="14.00">256</text>
</g>
<!-- 3 -->
<g id="node4" class="node"><title>3</title>
<ellipse fill="none" stroke="red" cx="61" cy="-203" rx="27" ry="18.3848"/>
<text text-anchor="middle" x="61" y="-199.4" font-family="Times Roman,serif" font-size="14.00">3</text>
</g>
<!-- 1&#45;&#45;3 -->
<g id="edge16" class="edge"><title>1&#45;&#45;3</title>
<path fill="none" stroke="black" d="M221.979,-385.274C180.073,-380.983 100.447,-366.038 64,-314 44.7568,-286.525 50.2864,-245.12 55.8032,-221.413"/>
<text text-anchor="middle" x="78" y="-291.4" font-family="Times Roman,serif" font-size="14.00">116</text>
</g>
<!-- 1&#45;&#45;8 -->
<g id="edge12" class="edge"><title>1&#45;&#45;8</title>
<path fill="none" stroke="black" d="M264.908,-372.029C281.152,-355.048 304,-325.705 304,-295 304,-295 304,-295 304,-111 304,-67.0454 251.599,-39.8147 219.462,-27.2476"/>
<text text-anchor="middle" x="313.5" y="-199.4" font-family="Times Roman,serif" font-size="14.00">77</text>
</g>
<!-- 2&#45;&#45;3 -->
<g id="edge22" class="edge"><title>2&#45;&#45;3</title>
<path fill="none" stroke="black" d="M107.028,-282.797C97.6484,-276.436 87.125,-267.91 80,-258 72.2155,-247.173 67.4072,-232.888 64.5756,-221.591"/>
<text text-anchor="middle" x="94" y="-245.4" font-family="Times Roman,serif" font-size="14.00">362</text>
</g>
<!-- 5 -->
<g id="node6" class="node"><title>5</title>
<ellipse fill="none" stroke="olive" cx="177" cy="-203" rx="27" ry="18.3848"/>
<text text-anchor="middle" x="177" y="-199.4" font-family="Times Roman,serif" font-size="14.00">5</text>
</g>
<!-- 2&#45;&#45;5 -->
<g id="edge20" class="edge"><title>2&#45;&#45;5</title>
<path fill="none" stroke="black" d="M136.876,-277.059C142.283,-266.258 149.401,-252.267 156,-240 159.499,-233.495 163.469,-226.427 167.008,-220.227"/>
<text text-anchor="middle" x="170" y="-245.4" font-family="Times Roman,serif" font-size="14.00">247</text>
</g>
<!-- 2&#45;&#45;8 -->
<g id="edge18" class="edge"><title>2&#45;&#45;8</title>
<path fill="none" stroke="black" d="M128.463,-276.201C129.484,-248.017 132.729,-193.282 143,-148 152.609,-105.636 158.708,-95.8499 176,-56 178.817,-49.5082 182.261,-42.5645 185.44,-36.4662"/>
<text text-anchor="middle" x="157" y="-153.4" font-family="Times Roman,serif" font-size="14.00">227</text>
</g>
<!-- 4 -->
<g id="node5" class="node"><title>4</title>
<ellipse fill="none" stroke="aqua" cx="227" cy="-295" rx="27" ry="18.3848"/>
<text text-anchor="middle" x="227" y="-291.4" font-family="Times Roman,serif" font-size="14.00">4</text>
</g>
<!-- 4&#45;&#45;5 -->
<g id="edge26" class="edge"><title>4&#45;&#45;5</title>
<path fill="none" stroke="black" d="M217.359,-277.261C208.449,-260.866 195.288,-236.65 186.441,-220.372"/>
<text text-anchor="middle" x="220" y="-245.4" font-family="Times Roman,serif" font-size="14.00">302</text>
</g>
<!-- 7 -->
<g id="node8" class="node"><title>7</title>
<ellipse fill="none" stroke="red" cx="242" cy="-111" rx="27" ry="18.3848"/>
<text text-anchor="middle" x="242" y="-107.4" font-family="Times Roman,serif" font-size="14.00">7</text>
</g>
<!-- 4&#45;&#45;7 -->
<g id="edge24" class="edge"><title>4&#45;&#45;7</title>
<path fill="none" stroke="black" d="M231.592,-276.661C232.906,-270.741 234.198,-264.125 235,-258 241.007,-212.147 242.019,-157.649 242.096,-129.652"/>
<text text-anchor="middle" x="254" y="-199.4" font-family="Times Roman,serif" font-size="14.00">197</text>
</g>
<!-- 5&#45;&#45;7 -->
<g id="edge28" class="edge"><title>5&#45;&#45;7</title>
<path fill="none" stroke="black" d="M185.231,-185.215C190.73,-174.09 198.495,-159.702 207,-148 212.614,-140.275 219.721,-132.483 226.061,-126.055"/>
<text text-anchor="middle" x="216.5" y="-153.4" font-family="Times Roman,serif" font-size="14.00">73</text>
</g>
<!-- 5&#45;&#45;8 -->
<g id="edge30" class="edge"><title>5&#45;&#45;8</title>
<path fill="none" stroke="black" d="M175.929,-184.459C174.938,-162.355 174.137,-124.339 178,-92 180.254,-73.1356 185.466,-52.0447 189.529,-37.4026"/>
<text text-anchor="middle" x="192" y="-107.4" font-family="Times Roman,serif" font-size="14.00">136</text>
</g>
<!-- 6&#45;&#45;7 -->
<g id="edge34" class="edge"><title>6&#45;&#45;7</title>
<path fill="none" stroke="black" d="M396.493,-370.76C391.774,-364.539 386.73,-357.202 383,-350 365.096,-315.43 348.766,-216.278 327,-184 309.817,-158.518 281.466,-136.683 262.278,-123.7"/>
<text text-anchor="middle" x="367" y="-245.4" font-family="Times Roman,serif" font-size="14.00">254</text>
</g>
<!-- 6&#45;&#45;8 -->
<g id="edge38" class="edge"><title>6&#45;&#45;8</title>
<path fill="none" stroke="black" d="M405.815,-368.431C402.015,-349.926 397,-320.648 397,-295 397,-295 397,-295 397,-111 397,-72.6573 274.939,-38.3333 220.583,-24.9492"/>
<text text-anchor="middle" x="411" y="-199.4" font-family="Times Roman,serif" font-size="14.00">187</text>
</g>
<!-- 15 -->
<g id="node16" class="node"><title>15</title>
<ellipse fill="none" stroke="red" cx="681" cy="-295" rx="27" ry="18.3848"/>
<text text-anchor="middle" x="681" y="-291.4" font-family="Times Roman,serif" font-size="14.00">15</text>
</g>
<!-- 6&#45;&#45;15 -->
<g id="edge32" class="edge"><title>6&#45;&#45;15</title>
<path fill="none" stroke="black" d="M434.443,-378.508C455.184,-371.213 485.679,-360.276 512,-350 531.299,-342.465 535.223,-338.173 555,-332 591.861,-320.494 603.361,-326.195 640,-314 646.402,-311.869 653.129,-309.026 659.241,-306.189"/>
<text text-anchor="middle" x="569" y="-337.4" font-family="Times Roman,serif" font-size="14.00">178</text>
</g>
<!-- 6&#45;&#45;16 -->
<g id="edge36" class="edge"><title>6&#45;&#45;16</title>
<path fill="none" stroke="black" d="M413.911,-368.192C421.58,-336.339 441.758,-272.115 485,-240 506.079,-224.345 534.604,-214.469 555.073,-208.897"/>
<text text-anchor="middle" x="465" y="-291.4" font-family="Times Roman,serif" font-size="14.00">155</text>
</g>
<!-- 7&#45;&#45;8 -->
<g id="edge40" class="edge"><title>7&#45;&#45;8</title>
<path fill="none" stroke="black" d="M232.938,-93.2615C224.615,-76.9704 212.348,-52.9579 204.034,-36.6841"/>
<text text-anchor="middle" x="236" y="-61.4" font-family="Times Roman,serif" font-size="14.00">274</text>
</g>
<!-- 9 -->
<g id="node10" class="node"><title>9</title>
<ellipse fill="none" stroke="aqua" cx="835" cy="-571" rx="27" ry="18.3848"/>
<text text-anchor="middle" x="835" y="-567.4" font-family="Times Roman,serif" font-size="14.00">9</text>
</g>
<!-- 10 -->
<g id="node11" class="node"><title>10</title>
<ellipse fill="none" stroke="olive" cx="803" cy="-479" rx="27" ry="18.3848"/>
<text text-anchor="middle" x="803" y="-475.4" font-family="Times Roman,serif" font-size="14.00">10</text>
</g>
<!-- 9&#45;&#45;10 -->
<g id="edge48" class="edge"><title>9&#45;&#45;10</title>
<path fill="none" stroke="black" d="M826.095,-553.182C823.287,-547.176 820.317,-540.379 818,-534 813.674,-522.093 809.924,-508.343 807.256,-497.57"/>
<text text-anchor="middle" x="832" y="-521.4" font-family="Times Roman,serif" font-size="14.00">307</text>
</g>
<!-- 11 -->
<g id="node12" class="node"><title>11</title>
<ellipse fill="none" stroke="red" cx="722" cy="-387" rx="27" ry="18.3848"/>
<text text-anchor="middle" x="722" y="-383.4" font-family="Times Roman,serif" font-size="14.00">11</text>
</g>
<!-- 9&#45;&#45;11 -->
<g id="edge46" class="edge"><title>9&#45;&#45;11</title>
<path fill="none" stroke="black" d="M812.686,-560.494C790.172,-548.645 756.332,-527.157 739,-498 721.866,-469.176 720.082,-428.977 720.756,-405.7"/>
<text text-anchor="middle" x="753" y="-475.4" font-family="Times Roman,serif" font-size="14.00">170</text>
</g>
<!-- 14 -->
<g id="node15" class="node"><title>14</title>
<ellipse fill="none" stroke="olive" cx="839" cy="-295" rx="27" ry="18.3848"/>
<text text-anchor="middle" x="839" y="-291.4" font-family="Times Roman,serif" font-size="14.00">14</text>
</g>
<!-- 9&#45;&#45;14 -->
<g id="edge42" class="edge"><title>9&#45;&#45;14</title>
<path fill="none" stroke="black" d="M841.55,-552.791C843.369,-546.878 845.093,-540.234 846,-534 858.927,-445.158 854.381,-421.386 846,-332 845.426,-325.882 844.33,-319.268 843.173,-313.347"/>
<text text-anchor="middle" x="868" y="-429.4" font-family="Times Roman,serif" font-size="14.00">314</text>
</g>
<!-- 17 -->
<g id="node18" class="node"><title>17</title>
<ellipse fill="none" stroke="orchid" cx="763" cy="-111" rx="27" ry="18.3848"/>
<text text-anchor="middle" x="763" y="-107.4" font-family="Times Roman,serif" font-size="14.00">17</text>
</g>
<!-- 9&#45;&#45;17 -->
<g id="edge44" class="edge"><title>9&#45;&#45;17</title>
<path fill="none" stroke="black" d="M853.942,-557.4C874.062,-541.214 903,-512.169 903,-479 903,-479 903,-479 903,-203 903,-149.195 829.888,-125.11 789.333,-115.888"/>
<text text-anchor="middle" x="912.5" y="-337.4" font-family="Times Roman,serif" font-size="14.00">54</text>
</g>
<!-- 10&#45;&#45;11 -->
<g id="edge50" class="edge"><title>10&#45;&#45;11</title>
<path fill="none" stroke="black" d="M788.891,-462.975C774.024,-446.089 750.753,-419.658 735.947,-402.842"/>
<text text-anchor="middle" x="783" y="-429.4" font-family="Times Roman,serif" font-size="14.00">148</text>
</g>
<!-- 11&#45;&#45;12 -->
<g id="edge56" class="edge"><title>11&#45;&#45;12</title>
<path fill="none" stroke="black" d="M695.842,-382.088C671.937,-376.78 636.263,-366.749 609,-350 592.432,-339.821 577.1,-323.691 566.857,-311.526"/>
<text text-anchor="middle" x="623" y="-337.4" font-family="Times Roman,serif" font-size="14.00">235</text>
</g>
<!-- 11&#45;&#45;16 -->
<g id="edge54" class="edge"><title>11&#45;&#45;16</title>
<path fill="none" stroke="black" d="M700.482,-375.463C678.936,-362.923 646.164,-341.015 626,-314 604.966,-285.82 611.571,-272.44 598,-240 595.381,-233.739 592.336,-226.971 589.552,-220.956"/>
<text text-anchor="middle" x="635.5" y="-291.4" font-family="Times Roman,serif" font-size="14.00">57</text>
</g>
<!-- 11&#45;&#45;17 -->
<g id="edge52" class="edge"><title>11&#45;&#45;17</title>
<path fill="none" stroke="black" d="M724.754,-368.462C732.223,-318.183 752.803,-179.642 760.258,-129.457"/>
<text text-anchor="middle" x="757" y="-245.4" font-family="Times Roman,serif" font-size="14.00">138</text>
</g>
<!-- 12&#45;&#45;16 -->
<g id="edge58" class="edge"><title>12&#45;&#45;16</title>
<path fill="none" stroke="black" d="M559.306,-276.659C562.409,-265.962 566.409,-252.212 570,-240 571.777,-233.957 573.733,-227.363 575.495,-221.437"/>
<text text-anchor="middle" x="584" y="-245.4" font-family="Times Roman,serif" font-size="14.00">191</text>
</g>
<!-- 13 -->
<g id="node14" class="node"><title>13</title>
<ellipse fill="none" stroke="aqua" cx="794" cy="-387" rx="27" ry="18.3848"/>
<text text-anchor="middle" x="794" y="-383.4" font-family="Times Roman,serif" font-size="14.00">13</text>
</g>
<!-- 13&#45;&#45;14 -->
<g id="edge64" class="edge"><title>13&#45;&#45;14</title>
<path fill="none" stroke="black" d="M801.315,-368.947C805.846,-358.106 811.941,-344.113 818,-332 821.238,-325.526 825.075,-318.587 828.577,-312.487"/>
<text text-anchor="middle" x="832" y="-337.4" font-family="Times Roman,serif" font-size="14.00">309</text>
</g>
<!-- 13&#45;&#45;15 -->
<g id="edge60" class="edge"><title>13&#45;&#45;15</title>
<path fill="none" stroke="black" d="M774.347,-373.812C764.445,-366.97 752.371,-358.32 742,-350 726.094,-337.241 708.925,-321.574 696.866,-310.23"/>
<text text-anchor="middle" x="756" y="-337.4" font-family="Times Roman,serif" font-size="14.00">121</text>
</g>
<!-- 13&#45;&#45;17 -->
<g id="edge62" class="edge"><title>13&#45;&#45;17</title>
<path fill="none" stroke="black" d="M791.918,-368.462C786.271,-318.183 770.71,-179.642 765.073,-129.457"/>
<text text-anchor="middle" x="793" y="-245.4" font-family="Times Roman,serif" font-size="14.00">101</text>
</g>
<!-- 14&#45;&#45;17 -->
<g id="edge66" class="edge"><title>14&#45;&#45;17</title>
<path fill="none" stroke="black" d="M837.399,-276.135C834.227,-246.911 825.213,-189.721 801,-148 795.916,-139.24 788.185,-131.176 781.021,-124.829"/>
<text text-anchor="middle" x="842" y="-199.4" font-family="Times Roman,serif" font-size="14.00">205</text>
</g>
<!-- 15&#45;&#45;16 -->
<g id="edge70" class="edge"><title>15&#45;&#45;16</title>
<path fill="none" stroke="black" d="M665.392,-279.903C653.799,-268.763 637.545,-253.295 623,-240 614.823,-232.526 605.6,-224.371 597.884,-217.624"/>
<text text-anchor="middle" x="656" y="-245.4" font-family="Times Roman,serif" font-size="14.00">159</text>
</g>
<!-- 15&#45;&#45;17 -->
<g id="edge68" class="edge"><title>15&#45;&#45;17</title>
<path fill="none" stroke="black" d="M681.873,-276.125C683.523,-253.366 688.283,-214.389 702,-184 712.396,-160.968 732.155,-139.392 746.371,-125.758"/>
<text text-anchor="middle" x="716" y="-199.4" font-family="Times Roman,serif" font-size="14.00">236</text>
</g>
<!-- 16&#45;&#45;17 -->
<g id="edge72" class="edge"><title>16&#45;&#45;17</title>
<path fill="none" stroke="black" d="M595.97,-187.288C608.366,-175.076 626.975,-158.499 646,-148 675.097,-131.942 712.179,-121.715 736.709,-116.176"/>
<text text-anchor="middle" x="660" y="-153.4" font-family="Times Roman,serif" font-size="14.00">270</text>
</g>
</g>
</svg>
