<?xml version="1.0" encoding="UTF-8" standalone="no"?>
<!DOCTYPE svg PUBLIC "-//W3C//DTD SVG 1.1//EN"
 "http://www.w3.org/Graphics/SVG/1.1/DTD/svg11.dtd">
<!-- Generated by graphviz version 2.26.3 (20100126.1600)
 -->
<!-- Title: coloured_mesh Pages: 1 -->
<svg width="775pt" height="490pt"
 viewBox="0.00 0.00 774.87 490.00" xmlns="http://www.w3.org/2000/svg" xmlns:xlink="http://www.w3.org/1999/xlink">
<g id="graph1" class="graph" transform="scale(1 1) rotate(0) translate(4 486)">
<title>coloured_mesh</title>
<polygon fill="white" stroke="white" points="-4,5 -4,-486 771.869,-486 771.869,5 -4,5"/>
<!-- 0 -->
<g id="node1" class="node"><title>0</title>
<ellipse fill="none" stroke="aqua" cx="349.869" cy="-389" rx="27" ry="18.3848"/>
<text text-anchor="middle" x="349.869" y="-385.4" font-family="Times Roman,serif" font-size="14.00">0</text>
</g>
<!-- 1 -->
<g id="node2" class="node"><title>1</title>
<ellipse fill="none" stroke="olive" cx="54.8692" cy="-315" rx="27" ry="18.3848"/>
<text text-anchor="middle" x="54.8692" y="-311.4" font-family="Times Roman,serif" font-size="14.00">1</text>
</g>
<!-- 0&#45;&#45;1 -->
<g id="edge8" class="edge"><title>0&#45;&#45;1</title>
<path fill="none" stroke="black" d="M324.265,-383.102C282.147,-373.332 195.655,-352.98 122.869,-334 108.636,-330.288 92.8049,-325.882 80.0015,-322.247"/>
</g>
<!-- 6 -->
<g id="node7" class="node"><title>6</title>
<ellipse fill="none" stroke="olive" cx="349.869" cy="-315" rx="27" ry="18.3848"/>
<text text-anchor="middle" x="349.869" y="-311.4" font-family="Times Roman,serif" font-size="14.00">6</text>
</g>
<!-- 0&#45;&#45;6 -->
<g id="edge4" class="edge"><title>0&#45;&#45;6</title>
<path fill="none" stroke="black" d="M349.869,-370.327C349.869,-359.109 349.869,-344.884 349.869,-333.667"/>
</g>
<!-- 8 -->
<g id="node9" class="node"><title>8</title>
<ellipse fill="none" stroke="purple" cx="157.869" cy="-19" rx="27" ry="18.3848"/>
<text text-anchor="middle" x="157.869" y="-15.4" font-family="Times Roman,serif" font-size="14.00">8</text>
</g>
<!-- 0&#45;&#45;8 -->
<g id="edge6" class="edge"><title>0&#45;&#45;8</title>
<path fill="none" stroke="black" d="M323.751,-383.781C266.874,-370.733 136.869,-331.059 136.869,-241 136.869,-241 136.869,-241 136.869,-167 136.869,-120.027 147.367,-65.4927 153.518,-37.5706"/>
</g>
<!-- 12 -->
<g id="node13" class="node"><title>12</title>
<ellipse fill="none" stroke="olive" cx="525.869" cy="-241" rx="27" ry="18.3848"/>
<text text-anchor="middle" x="525.869" y="-237.4" font-family="Times Roman,serif" font-size="14.00">12</text>
</g>
<!-- 0&#45;&#45;12 -->
<g id="edge10" class="edge"><title>0&#45;&#45;12</title>
<path fill="none" stroke="black" d="M376.218,-384.419C406.059,-377.975 454.472,-363.547 484.869,-334 505.999,-313.461 517.009,-280.142 522.11,-259.458"/>
</g>
<!-- 16 -->
<g id="node17" class="node"><title>16</title>
<ellipse fill="none" stroke="purple" cx="502.869" cy="-167" rx="27" ry="18.3848"/>
<text text-anchor="middle" x="502.869" y="-163.4" font-family="Times Roman,serif" font-size="14.00">16</text>
</g>
<!-- 0&#45;&#45;16 -->
<g id="edge2" class="edge"><title>0&#45;&#45;16</title>
<path fill="none" stroke="black" d="M362.783,-372.647C381.689,-348.488 417.711,-301.62 445.869,-260 463.272,-234.277 481.77,-203.344 492.818,-184.434"/>
</g>
<!-- 2 -->
<g id="node3" class="node"><title>2</title>
<ellipse fill="none" stroke="aqua" cx="81.8692" cy="-241" rx="27" ry="18.3848"/>
<text text-anchor="middle" x="81.8692" y="-237.4" font-family="Times Roman,serif" font-size="14.00">2</text>
</g>
<!-- 1&#45;&#45;2 -->
<g id="edge14" class="edge"><title>1&#45;&#45;2</title>
<path fill="none" stroke="black" d="M61.5433,-296.708C65.7285,-285.238 71.1013,-270.512 75.2718,-259.082"/>
</g>
<!-- 3 -->
<g id="node4" class="node"><title>3</title>
<ellipse fill="none" stroke="red" cx="43.8692" cy="-167" rx="27" ry="18.3848"/>
<text text-anchor="middle" x="43.8692" y="-163.4" font-family="Times Roman,serif" font-size="14.00">3</text>
</g>
<!-- 1&#45;&#45;3 -->
<g id="edge16" class="edge"><title>1&#45;&#45;3</title>
<path fill="none" stroke="black" d="M51.175,-296.499C49.22,-285.868 46.9962,-272.236 45.8692,-260 43.4992,-234.27 43.3104,-204.374 43.5021,-185.571"/>
</g>
<!-- 1&#45;&#45;8 -->
<g id="edge12" class="edge"><title>1&#45;&#45;8</title>
<path fill="none" stroke="black" d="M42.677,-298.281C21.8468,-267.512 -16.1263,-200.285 7.86917,-148 34.3734,-90.2489 100.906,-48.5982 135.771,-29.9373"/>
</g>
<!-- 2&#45;&#45;3 -->
<g id="edge22" class="edge"><title>2&#45;&#45;3</title>
<path fill="none" stroke="black" d="M72.8637,-223.463C66.8501,-211.752 58.9691,-196.405 52.9417,-184.668"/>
</g>
<!-- 5 -->
<g id="node6" class="node"><title>5</title>
<ellipse fill="none" stroke="olive" cx="191.869" cy="-167" rx="27" ry="18.3848"/>
<text text-anchor="middle" x="191.869" y="-163.4" font-family="Times Roman,serif" font-size="14.00">5</text>
</g>
<!-- 2&#45;&#45;5 -->
<g id="edge20" class="edge"><title>2&#45;&#45;5</title>
<path fill="none" stroke="black" d="M101.282,-227.941C121.265,-214.497 152.233,-193.664 172.281,-180.178"/>
</g>
<!-- 2&#45;&#45;8 -->
<g id="edge18" class="edge"><title>2&#45;&#45;8</title>
<path fill="none" stroke="black" d="M84.4192,-222.333C89.1694,-190.783 100.937,-125.339 122.869,-74 128.738,-60.2613 137.86,-46.0679 145.32,-35.5413"/>
</g>
<!-- 4 -->
<g id="node5" class="node"><title>4</title>
<ellipse fill="none" stroke="aqua" cx="210.869" cy="-241" rx="27" ry="18.3848"/>
<text text-anchor="middle" x="210.869" y="-237.4" font-family="Times Roman,serif" font-size="14.00">4</text>
</g>
<!-- 4&#45;&#45;5 -->
<g id="edge26" class="edge"><title>4&#45;&#45;5</title>
<path fill="none" stroke="black" d="M206.173,-222.708C203.249,-211.323 199.503,-196.732 196.578,-185.338"/>
</g>
<!-- 7 -->
<g id="node8" class="node"><title>7</title>
<ellipse fill="none" stroke="red" cx="238.869" cy="-93" rx="27" ry="18.3848"/>
<text text-anchor="middle" x="238.869" y="-89.4" font-family="Times Roman,serif" font-size="14.00">7</text>
</g>
<!-- 4&#45;&#45;7 -->
<g id="edge24" class="edge"><title>4&#45;&#45;7</title>
<path fill="none" stroke="black" d="M217.381,-222.886C220.968,-212.265 225.218,-198.515 227.869,-186 233.26,-160.551 236.209,-130.585 237.663,-111.69"/>
</g>
<!-- 5&#45;&#45;7 -->
<g id="edge28" class="edge"><title>5&#45;&#45;7</title>
<path fill="none" stroke="black" d="M202.77,-149.837C210.363,-137.882 220.447,-122.004 228.027,-110.07"/>
</g>
<!-- 5&#45;&#45;8 -->
<g id="edge30" class="edge"><title>5&#45;&#45;8</title>
<path fill="none" stroke="black" d="M187.632,-148.555C181.116,-120.194 168.707,-66.1777 162.16,-37.6775"/>
</g>
<!-- 6&#45;&#45;7 -->
<g id="edge34" class="edge"><title>6&#45;&#45;7</title>
<path fill="none" stroke="black" d="M336.201,-298.875C327.644,-288.279 316.782,-273.86 308.869,-260 279.567,-208.674 255.551,-142.669 244.86,-111.225"/>
</g>
<!-- 6&#45;&#45;8 -->
<g id="edge38" class="edge"><title>6&#45;&#45;8</title>
<path fill="none" stroke="black" d="M346.105,-296.384C335.605,-245.985 304.8,-108.365 274.869,-74 250.988,-46.5809 210.479,-31.8392 183.949,-24.7102"/>
</g>
<!-- 15 -->
<g id="node16" class="node"><title>15</title>
<ellipse fill="none" stroke="red" cx="377.869" cy="-241" rx="27" ry="18.3848"/>
<text text-anchor="middle" x="377.869" y="-237.4" font-family="Times Roman,serif" font-size="14.00">15</text>
</g>
<!-- 6&#45;&#45;15 -->
<g id="edge32" class="edge"><title>6&#45;&#45;15</title>
<path fill="none" stroke="black" d="M356.647,-297.087C361.017,-285.538 366.68,-270.572 371.057,-259.005"/>
</g>
<!-- 6&#45;&#45;16 -->
<g id="edge36" class="edge"><title>6&#45;&#45;16</title>
<path fill="none" stroke="black" d="M367.382,-300.736C380.476,-289.885 398.664,-274.412 413.869,-260 441.28,-234.018 471.287,-201.81 488.516,-182.92"/>
</g>
<!-- 7&#45;&#45;8 -->
<g id="edge40" class="edge"><title>7&#45;&#45;8</title>
<path fill="none" stroke="black" d="M222.478,-78.025C208.424,-65.1863 188.282,-46.785 174.236,-33.9527"/>
</g>
<!-- 9 -->
<g id="node10" class="node"><title>9</title>
<ellipse fill="none" stroke="aqua" cx="702.869" cy="-463" rx="27" ry="18.3848"/>
<text text-anchor="middle" x="702.869" y="-459.4" font-family="Times Roman,serif" font-size="14.00">9</text>
</g>
<!-- 10 -->
<g id="node11" class="node"><title>10</title>
<ellipse fill="none" stroke="olive" cx="628.869" cy="-389" rx="27" ry="18.3848"/>
<text text-anchor="middle" x="628.869" y="-385.4" font-family="Times Roman,serif" font-size="14.00">10</text>
</g>
<!-- 9&#45;&#45;10 -->
<g id="edge48" class="edge"><title>9&#45;&#45;10</title>
<path fill="none" stroke="black" d="M687.536,-447.667C674.836,-434.967 656.877,-417.008 644.182,-404.313"/>
</g>
<!-- 11 -->
<g id="node12" class="node"><title>11</title>
<ellipse fill="none" stroke="red" cx="652.869" cy="-315" rx="27" ry="18.3848"/>
<text text-anchor="middle" x="652.869" y="-311.4" font-family="Times Roman,serif" font-size="14.00">11</text>
</g>
<!-- 9&#45;&#45;11 -->
<g id="edge46" class="edge"><title>9&#45;&#45;11</title>
<path fill="none" stroke="black" d="M696.738,-444.852C687.142,-416.447 668.677,-361.792 659.05,-333.296"/>
</g>
<!-- 14 -->
<g id="node15" class="node"><title>14</title>
<ellipse fill="none" stroke="olive" cx="673.869" cy="-241" rx="27" ry="18.3848"/>
<text text-anchor="middle" x="673.869" y="-237.4" font-family="Times Roman,serif" font-size="14.00">14</text>
</g>
<!-- 9&#45;&#45;14 -->
<g id="edge42" class="edge"><title>9&#45;&#45;14</title>
<path fill="none" stroke="black" d="M702.414,-444.323C701.411,-413.301 698.288,-349.29 688.869,-296 686.664,-283.525 682.914,-269.775 679.715,-259.144"/>
</g>
<!-- 17 -->
<g id="node18" class="node"><title>17</title>
<ellipse fill="none" stroke="orchid" cx="641.869" cy="-93" rx="27" ry="18.3848"/>
<text text-anchor="middle" x="641.869" y="-89.4" font-family="Times Roman,serif" font-size="14.00">17</text>
</g>
<!-- 9&#45;&#45;17 -->
<g id="edge44" class="edge"><title>9&#45;&#45;17</title>
<path fill="none" stroke="black" d="M715.514,-446.257C734.165,-419.845 766.869,-366.229 766.869,-315 766.869,-315 766.869,-315 766.869,-241 766.869,-177.266 698.376,-126.792 662.791,-104.87"/>
</g>
<!-- 10&#45;&#45;11 -->
<g id="edge50" class="edge"><title>10&#45;&#45;11</title>
<path fill="none" stroke="black" d="M634.802,-370.708C638.522,-359.238 643.298,-344.512 647.005,-333.082"/>
</g>
<!-- 11&#45;&#45;12 -->
<g id="edge56" class="edge"><title>11&#45;&#45;12</title>
<path fill="none" stroke="black" d="M632.182,-302.946C608.565,-289.185 570.16,-266.808 546.548,-253.049"/>
</g>
<!-- 11&#45;&#45;16 -->
<g id="edge54" class="edge"><title>11&#45;&#45;16</title>
<path fill="none" stroke="black" d="M637.948,-299.317C620.096,-280.655 589.189,-248.666 561.869,-222 547.74,-208.208 531.276,-192.924 519.336,-181.976"/>
</g>
<!-- 11&#45;&#45;17 -->
<g id="edge52" class="edge"><title>11&#45;&#45;17</title>
<path fill="none" stroke="black" d="M672.737,-302.271C686.002,-292.508 702.343,-277.72 709.869,-260 716.471,-244.455 713.838,-238.416 709.869,-222 699.339,-178.444 670.863,-133.45 654.291,-109.829"/>
</g>
<!-- 12&#45;&#45;16 -->
<g id="edge58" class="edge"><title>12&#45;&#45;16</title>
<path fill="none" stroke="black" d="M520.184,-222.708C516.645,-211.323 512.11,-196.732 508.569,-185.338"/>
</g>
<!-- 13 -->
<g id="node14" class="node"><title>13</title>
<ellipse fill="none" stroke="aqua" cx="580.869" cy="-315" rx="27" ry="18.3848"/>
<text text-anchor="middle" x="580.869" y="-311.4" font-family="Times Roman,serif" font-size="14.00">13</text>
</g>
<!-- 13&#45;&#45;14 -->
<g id="edge64" class="edge"><title>13&#45;&#45;14</title>
<path fill="none" stroke="black" d="M598.801,-300.732C615.269,-287.628 639.542,-268.314 655.993,-255.224"/>
</g>
<!-- 13&#45;&#45;15 -->
<g id="edge60" class="edge"><title>13&#45;&#45;15</title>
<path fill="none" stroke="black" d="M556.785,-306.221C517.716,-291.979 440.971,-264.003 401.922,-249.768"/>
</g>
<!-- 13&#45;&#45;17 -->
<g id="edge62" class="edge"><title>13&#45;&#45;17</title>
<path fill="none" stroke="black" d="M585.965,-296.454C597.476,-254.562 625.374,-153.03 636.831,-111.337"/>
</g>
<!-- 14&#45;&#45;17 -->
<g id="edge66" class="edge"><title>14&#45;&#45;17</title>
<path fill="none" stroke="black" d="M669.881,-222.555C663.749,-194.194 652.07,-140.178 645.908,-111.678"/>
</g>
<!-- 15&#45;&#45;16 -->
<g id="edge70" class="edge"><title>15&#45;&#45;16</title>
<path fill="none" stroke="black" d="M398.51,-228.78C421.671,-215.069 459.024,-192.956 482.197,-179.238"/>
</g>
<!-- 15&#45;&#45;17 -->
<g id="edge68" class="edge"><title>15&#45;&#45;17</title>
<path fill="none" stroke="black" d="M389.782,-224.084C405.267,-203.294 434.219,-168.286 466.869,-148 514.479,-118.419 579.34,-103.516 615.229,-97.0902"/>
</g>
<!-- 16&#45;&#45;17 -->
<g id="edge72" class="edge"><title>16&#45;&#45;17</title>
<path fill="none" stroke="black" d="M524.283,-155.6C550.328,-141.734 594.043,-118.461 620.202,-104.535"/>
</g>
</g>
</svg>
