<?xml version="1.0" encoding="UTF-8" standalone="no"?>
<!DOCTYPE svg PUBLIC "-//W3C//DTD SVG 1.1//EN"
 "http://www.w3.org/Graphics/SVG/1.1/DTD/svg11.dtd">
<!-- Generated by graphviz version 2.26.3 (20100126.1600)
 -->
<!-- Title: mesh Pages: 1 -->
<svg width="1753pt" height="1006pt"
 viewBox="0.00 0.00 1753.00 1006.00" xmlns="http://www.w3.org/2000/svg" xmlns:xlink="http://www.w3.org/1999/xlink">
<g id="graph1" class="graph" transform="scale(1 1) rotate(0) translate(4 1002)">
<title>mesh</title>
<polygon fill="white" stroke="white" points="-4,5 -4,-1002 1750,-1002 1750,5 -4,5"/>
<!-- 0 -->
<g id="node1" class="node"><title>0</title>
<ellipse fill="none" stroke="aqua" cx="185" cy="-795" rx="27" ry="18.3848"/>
<text text-anchor="middle" x="185" y="-791.4" font-family="Times Roman,serif" font-size="14.00">0</text>
</g>
<!-- 1 -->
<g id="node2" class="node"><title>1</title>
<ellipse fill="none" stroke="olive" cx="185" cy="-703" rx="27" ry="18.3848"/>
<text text-anchor="middle" x="185" y="-699.4" font-family="Times Roman,serif" font-size="14.00">1</text>
</g>
<!-- 0&#45;&#45;1 -->
<g id="edge4" class="edge"><title>0&#45;&#45;1</title>
<path fill="none" stroke="black" d="M185,-776.382C185,-760.421 185,-737.543 185,-721.59"/>
<text text-anchor="middle" x="199" y="-745.4" font-family="Times Roman,serif" font-size="14.00">154</text>
</g>
<!-- 2 -->
<g id="node3" class="node"><title>2</title>
<ellipse fill="none" stroke="olive" cx="27" cy="-703" rx="27" ry="18.3848"/>
<text text-anchor="middle" x="27" y="-699.4" font-family="Times Roman,serif" font-size="14.00">2</text>
</g>
<!-- 0&#45;&#45;2 -->
<g id="edge8" class="edge"><title>0&#45;&#45;2</title>
<path fill="none" stroke="black" d="M158.845,-789.921C126.187,-783.164 72.6937,-770.598 57,-758 45.295,-748.604 37.4918,-733.355 32.7851,-721.295"/>
<text text-anchor="middle" x="66.5" y="-745.4" font-family="Times Roman,serif" font-size="14.00">77</text>
</g>
<!-- 3 -->
<g id="node4" class="node"><title>3</title>
<ellipse fill="none" stroke="red" cx="69" cy="-611" rx="27" ry="18.3848"/>
<text text-anchor="middle" x="69" y="-607.4" font-family="Times Roman,serif" font-size="14.00">3</text>
</g>
<!-- 0&#45;&#45;3 -->
<g id="edge2" class="edge"><title>0&#45;&#45;3</title>
<path fill="none" stroke="black" d="M171.629,-778.673C160.032,-764.191 143.099,-742.253 130,-722 109.46,-690.242 88.9844,-651.052 77.7586,-628.752"/>
<text text-anchor="middle" x="139.5" y="-699.4" font-family="Times Roman,serif" font-size="14.00">39</text>
</g>
<!-- 6 -->
<g id="node7" class="node"><title>6</title>
<ellipse fill="none" stroke="olive" cx="361" cy="-611" rx="27" ry="18.3848"/>
<text text-anchor="middle" x="361" y="-607.4" font-family="Times Roman,serif" font-size="14.00">6</text>
</g>
<!-- 0&#45;&#45;6 -->
<g id="edge10" class="edge"><title>0&#45;&#45;6</title>
<path fill="none" stroke="black" d="M211.529,-790.667C245.595,-784.595 302.104,-772.637 317,-758 352.533,-723.085 359.632,-660.742 360.878,-629.671"/>
<text text-anchor="middle" x="362.5" y="-699.4" font-family="Times Roman,serif" font-size="14.00">79</text>
</g>
<!-- 8 -->
<g id="node9" class="node"><title>8</title>
<ellipse fill="none" stroke="red" cx="339" cy="-519" rx="27" ry="18.3848"/>
<text text-anchor="middle" x="339" y="-515.4" font-family="Times Roman,serif" font-size="14.00">8</text>
</g>
<!-- 0&#45;&#45;8 -->
<g id="edge6" class="edge"><title>0&#45;&#45;8</title>
<path fill="none" stroke="black" d="M199.685,-779.316C205.371,-772.92 211.758,-765.319 217,-758 255.393,-704.396 262.417,-688.926 292,-630 308.056,-598.019 323.633,-559.236 332.207,-537.008"/>
<text text-anchor="middle" x="291.5" y="-653.4" font-family="Times Roman,serif" font-size="14.00">49</text>
</g>
<!-- 1&#45;&#45;3 -->
<g id="edge16" class="edge"><title>1&#45;&#45;3</title>
<path fill="none" stroke="black" d="M163.57,-691.68C151.485,-684.892 136.375,-675.71 124,-666 108.914,-654.163 93.642,-638.535 83.0316,-626.964"/>
<text text-anchor="middle" x="138" y="-653.4" font-family="Times Roman,serif" font-size="14.00">152</text>
</g>
<!-- 1&#45;&#45;8 -->
<g id="edge18" class="edge"><title>1&#45;&#45;8</title>
<path fill="none" stroke="black" d="M200.083,-687.302C205.938,-680.905 212.535,-673.306 218,-666 253.294,-618.818 250.458,-597.786 292,-556 300.493,-547.457 310.939,-539.059 319.825,-532.429"/>
<text text-anchor="middle" x="276" y="-607.4" font-family="Times Roman,serif" font-size="14.00">101</text>
</g>
<!-- 9 -->
<g id="node10" class="node"><title>9</title>
<ellipse fill="none" stroke="aqua" cx="339" cy="-407" rx="27" ry="18.3848"/>
<text text-anchor="middle" x="339" y="-403.4" font-family="Times Roman,serif" font-size="14.00">9</text>
</g>
<!-- 1&#45;&#45;9 -->
<g id="edge14" class="edge"><title>1&#45;&#45;9</title>
<path fill="none" stroke="black" d="M191.046,-684.877C200.734,-656.645 221.001,-600.761 244,-556 269.798,-505.791 307.589,-450.784 326.805,-423.814"/>
<text text-anchor="middle" x="258" y="-561.4" font-family="Times Roman,serif" font-size="14.00">149</text>
</g>
<!-- 11 -->
<g id="node12" class="node"><title>11</title>
<ellipse fill="none" stroke="purple" cx="173" cy="-315" rx="27" ry="18.3848"/>
<text text-anchor="middle" x="173" y="-311.4" font-family="Times Roman,serif" font-size="14.00">11</text>
</g>
<!-- 1&#45;&#45;11 -->
<g id="edge12" class="edge"><title>1&#45;&#45;11</title>
<path fill="none" stroke="black" d="M178.988,-684.899C173.422,-666.509 166,-637.095 166,-611 166,-611 166,-611 166,-407 166,-381.531 168.7,-352.209 170.747,-333.646"/>
<text text-anchor="middle" x="175.5" y="-515.4" font-family="Times Roman,serif" font-size="14.00">40</text>
</g>
<!-- 2&#45;&#45;3 -->
<g id="edge22" class="edge"><title>2&#45;&#45;3</title>
<path fill="none" stroke="black" d="M35.098,-685.261C42.5353,-668.97 53.4975,-644.958 60.9268,-628.684"/>
<text text-anchor="middle" x="61.5" y="-653.4" font-family="Times Roman,serif" font-size="14.00">74</text>
</g>
<!-- 4 -->
<g id="node5" class="node"><title>4</title>
<ellipse fill="none" stroke="aqua" cx="48" cy="-519" rx="27" ry="18.3848"/>
<text text-anchor="middle" x="48" y="-515.4" font-family="Times Roman,serif" font-size="14.00">4</text>
</g>
<!-- 2&#45;&#45;4 -->
<g id="edge20" class="edge"><title>2&#45;&#45;4</title>
<path fill="none" stroke="black" d="M18.412,-685.134C8.94818,-663.049 -3.83626,-624.411 5,-592 10.8033,-570.714 24.5687,-549.31 34.9733,-535.234"/>
<text text-anchor="middle" x="19" y="-607.4" font-family="Times Roman,serif" font-size="14.00">157</text>
</g>
<!-- 3&#45;&#45;4 -->
<g id="edge28" class="edge"><title>3&#45;&#45;4</title>
<path fill="none" stroke="black" d="M64.7503,-592.382C61.1069,-576.421 55.8849,-553.543 52.2433,-537.59"/>
<text text-anchor="middle" x="75" y="-561.4" font-family="Times Roman,serif" font-size="14.00">192</text>
</g>
<!-- 10 -->
<g id="node11" class="node"><title>10</title>
<ellipse fill="none" stroke="olive" cx="58" cy="-407" rx="27" ry="18.3848"/>
<text text-anchor="middle" x="58" y="-403.4" font-family="Times Roman,serif" font-size="14.00">10</text>
</g>
<!-- 3&#45;&#45;10 -->
<g id="edge24" class="edge"><title>3&#45;&#45;10</title>
<path fill="none" stroke="black" d="M82.4543,-594.705C86.69,-588.594 90.8274,-581.342 93,-574 101.639,-544.807 132.403,-564.935 87,-444 84.0167,-436.054 78.6712,-428.457 73.3751,-422.238"/>
<text text-anchor="middle" x="121.5" y="-515.4" font-family="Times Roman,serif" font-size="14.00">66</text>
</g>
<!-- 3&#45;&#45;11 -->
<g id="edge26" class="edge"><title>3&#45;&#45;11</title>
<path fill="none" stroke="black" d="M52.3598,-596.088C38.5572,-582.512 19.9538,-561.11 12,-538 0.111115,-503.456 1.65498,-417.436 22,-388 51.2207,-345.722 111.926,-327.041 146.812,-319.516"/>
<text text-anchor="middle" x="16.5" y="-459.4" font-family="Times Roman,serif" font-size="14.00">85</text>
</g>
<!-- 4&#45;&#45;10 -->
<g id="edge30" class="edge"><title>4&#45;&#45;10</title>
<path fill="none" stroke="black" d="M49.6513,-500.505C51.5041,-479.754 54.4924,-446.285 56.3463,-425.522"/>
<text text-anchor="middle" x="69" y="-459.4" font-family="Times Roman,serif" font-size="14.00">131</text>
</g>
<!-- 5 -->
<g id="node6" class="node"><title>5</title>
<ellipse fill="none" stroke="aqua" cx="498" cy="-703" rx="27" ry="18.3848"/>
<text text-anchor="middle" x="498" y="-699.4" font-family="Times Roman,serif" font-size="14.00">5</text>
</g>
<!-- 5&#45;&#45;6 -->
<g id="edge38" class="edge"><title>5&#45;&#45;6</title>
<path fill="none" stroke="black" d="M470.997,-700.824C445.356,-697.402 407.229,-688.607 383,-666 372.699,-656.388 367.122,-641.312 364.164,-629.374"/>
<text text-anchor="middle" x="397" y="-653.4" font-family="Times Roman,serif" font-size="14.00">186</text>
</g>
<!-- 7 -->
<g id="node8" class="node"><title>7</title>
<ellipse fill="none" stroke="olive" cx="498" cy="-611" rx="27" ry="18.3848"/>
<text text-anchor="middle" x="498" y="-607.4" font-family="Times Roman,serif" font-size="14.00">7</text>
</g>
<!-- 5&#45;&#45;7 -->
<g id="edge32" class="edge"><title>5&#45;&#45;7</title>
<path fill="none" stroke="black" d="M498,-684.382C498,-668.421 498,-645.543 498,-629.59"/>
<text text-anchor="middle" x="512" y="-653.4" font-family="Times Roman,serif" font-size="14.00">124</text>
</g>
<!-- 5&#45;&#45;8 -->
<g id="edge34" class="edge"><title>5&#45;&#45;8</title>
<path fill="none" stroke="black" d="M484.168,-686.993C454.097,-652.194 383.057,-569.985 352.913,-535.101"/>
<text text-anchor="middle" x="443.5" y="-607.4" font-family="Times Roman,serif" font-size="14.00">19</text>
</g>
<!-- 37 -->
<g id="node38" class="node"><title>37</title>
<ellipse fill="none" stroke="olive" cx="823" cy="-611" rx="27" ry="18.3848"/>
<text text-anchor="middle" x="823" y="-607.4" font-family="Times Roman,serif" font-size="14.00">37</text>
</g>
<!-- 5&#45;&#45;37 -->
<g id="edge40" class="edge"><title>5&#45;&#45;37</title>
<path fill="none" stroke="black" d="M522.963,-695.934C583.458,-678.809 737.369,-635.24 797.952,-618.09"/>
<text text-anchor="middle" x="703" y="-653.4" font-family="Times Roman,serif" font-size="14.00">116</text>
</g>
<!-- 38 -->
<g id="node39" class="node"><title>38</title>
<ellipse fill="none" stroke="red" cx="921" cy="-463" rx="27" ry="18.3848"/>
<text text-anchor="middle" x="921" y="-459.4" font-family="Times Roman,serif" font-size="14.00">38</text>
</g>
<!-- 5&#45;&#45;38 -->
<g id="edge36" class="edge"><title>5&#45;&#45;38</title>
<path fill="none" stroke="black" d="M524.801,-700.327C617.543,-690.429 921.796,-652.311 970,-574 989.766,-541.89 957.934,-500.415 936.997,-478.37"/>
<text text-anchor="middle" x="961.5" y="-607.4" font-family="Times Roman,serif" font-size="14.00">66</text>
</g>
<!-- 6&#45;&#45;8 -->
<g id="edge42" class="edge"><title>6&#45;&#45;8</title>
<path fill="none" stroke="black" d="M349.06,-594.093C345.437,-588.04 341.911,-580.982 340,-574 336.772,-562.21 336.522,-548.46 337.079,-537.657"/>
<text text-anchor="middle" x="354" y="-561.4" font-family="Times Roman,serif" font-size="14.00">129</text>
</g>
<!-- 7&#45;&#45;8 -->
<g id="edge54" class="edge"><title>7&#45;&#45;8</title>
<path fill="none" stroke="black" d="M474.273,-602.064C457.48,-595.321 434.71,-585.316 416,-574 404.893,-567.282 403.47,-563.672 393,-556 381.725,-547.738 368.818,-538.874 358.451,-531.893"/>
<text text-anchor="middle" x="425.5" y="-561.4" font-family="Times Roman,serif" font-size="14.00">93</text>
</g>
<!-- 7&#45;&#45;9 -->
<g id="edge50" class="edge"><title>7&#45;&#45;9</title>
<path fill="none" stroke="black" d="M482.903,-595.257C476.692,-588.723 469.454,-581.038 463,-574 448.532,-558.222 443.911,-555.076 431,-538 401.109,-498.465 400.622,-483.737 371,-444 365.62,-436.782 359.209,-429.198 353.543,-422.789"/>
<text text-anchor="middle" x="445" y="-515.4" font-family="Times Roman,serif" font-size="14.00">117</text>
</g>
<!-- 15 -->
<g id="node16" class="node"><title>15</title>
<ellipse fill="none" stroke="aqua" cx="547" cy="-519" rx="27" ry="18.3848"/>
<text text-anchor="middle" x="547" y="-515.4" font-family="Times Roman,serif" font-size="14.00">15</text>
</g>
<!-- 7&#45;&#45;15 -->
<g id="edge46" class="edge"><title>7&#45;&#45;15</title>
<path fill="none" stroke="black" d="M507.448,-593.261C516.124,-576.97 528.914,-552.958 537.581,-536.684"/>
<text text-anchor="middle" x="535.5" y="-561.4" font-family="Times Roman,serif" font-size="14.00">89</text>
</g>
<!-- 19 -->
<g id="node20" class="node"><title>19</title>
<ellipse fill="none" stroke="red" cx="366" cy="-203" rx="27" ry="18.3848"/>
<text text-anchor="middle" x="366" y="-199.4" font-family="Times Roman,serif" font-size="14.00">19</text>
</g>
<!-- 7&#45;&#45;19 -->
<g id="edge44" class="edge"><title>7&#45;&#45;19</title>
<path fill="none" stroke="black" d="M492.072,-592.676C470.149,-524.916 393.807,-288.95 371.912,-221.273"/>
<text text-anchor="middle" x="446.5" y="-403.4" font-family="Times Roman,serif" font-size="14.00">29</text>
</g>
<!-- 7&#45;&#45;38 -->
<g id="edge52" class="edge"><title>7&#45;&#45;38</title>
<path fill="none" stroke="black" d="M525.055,-610.66C595.03,-609.368 780.197,-603.206 833,-574 853.228,-562.811 891.205,-508.193 909.953,-479.966"/>
<text text-anchor="middle" x="866" y="-561.4" font-family="Times Roman,serif" font-size="14.00">124</text>
</g>
<!-- 39 -->
<g id="node40" class="node"><title>39</title>
<ellipse fill="none" stroke="purple" cx="848" cy="-203" rx="27" ry="18.3848"/>
<text text-anchor="middle" x="848" y="-199.4" font-family="Times Roman,serif" font-size="14.00">39</text>
</g>
<!-- 7&#45;&#45;39 -->
<g id="edge48" class="edge"><title>7&#45;&#45;39</title>
<path fill="none" stroke="black" d="M524.341,-606.244C579.046,-594.957 705.403,-561.33 772,-482 806.134,-441.339 835.742,-277.43 845.003,-221.674"/>
<text text-anchor="middle" x="823" y="-403.4" font-family="Times Roman,serif" font-size="14.00">113</text>
</g>
<!-- 8&#45;&#45;9 -->
<g id="edge56" class="edge"><title>8&#45;&#45;9</title>
<path fill="none" stroke="black" d="M339,-500.254C339,-479.579 339,-446.506 339,-425.807"/>
<text text-anchor="middle" x="353" y="-459.4" font-family="Times Roman,serif" font-size="14.00">165</text>
</g>
<!-- 9&#45;&#45;11 -->
<g id="edge60" class="edge"><title>9&#45;&#45;11</title>
<path fill="none" stroke="black" d="M317.976,-395.348C286.132,-377.7 226.012,-344.38 194.115,-326.702"/>
<text text-anchor="middle" x="279.5" y="-357.4" font-family="Times Roman,serif" font-size="14.00">27</text>
</g>
<!-- 9&#45;&#45;19 -->
<g id="edge58" class="edge"><title>9&#45;&#45;19</title>
<path fill="none" stroke="black" d="M341.444,-388.537C346.571,-349.795 358.403,-260.401 363.542,-221.569"/>
<text text-anchor="middle" x="367" y="-311.4" font-family="Times Roman,serif" font-size="14.00">187</text>
</g>
<!-- 10&#45;&#45;11 -->
<g id="edge64" class="edge"><title>10&#45;&#45;11</title>
<path fill="none" stroke="black" d="M74.909,-392.528C88.1343,-381.302 107.058,-365.443 124,-352 133.853,-344.182 145.034,-335.71 154.225,-328.848"/>
<text text-anchor="middle" x="138" y="-357.4" font-family="Times Roman,serif" font-size="14.00">129</text>
</g>
<!-- 14 -->
<g id="node15" class="node"><title>14</title>
<ellipse fill="none" stroke="red" cx="97" cy="-19" rx="27" ry="18.3848"/>
<text text-anchor="middle" x="97" y="-15.4" font-family="Times Roman,serif" font-size="14.00">14</text>
</g>
<!-- 10&#45;&#45;14 -->
<g id="edge62" class="edge"><title>10&#45;&#45;14</title>
<path fill="none" stroke="black" d="M45.7813,-390.309C34.0181,-372.562 18,-343.215 18,-315 18,-315 18,-315 18,-111 18,-75.2102 52.8373,-46.3837 76.2437,-31.0549"/>
<text text-anchor="middle" x="32" y="-199.4" font-family="Times Roman,serif" font-size="14.00">150</text>
</g>
<!-- 12 -->
<g id="node13" class="node"><title>12</title>
<ellipse fill="none" stroke="aqua" cx="193" cy="-203" rx="27" ry="18.3848"/>
<text text-anchor="middle" x="193" y="-199.4" font-family="Times Roman,serif" font-size="14.00">12</text>
</g>
<!-- 11&#45;&#45;12 -->
<g id="edge66" class="edge"><title>11&#45;&#45;12</title>
<path fill="none" stroke="black" d="M176.303,-296.505C180.008,-275.754 185.985,-242.285 189.693,-221.522"/>
<text text-anchor="middle" x="194.5" y="-255.4" font-family="Times Roman,serif" font-size="14.00">77</text>
</g>
<!-- 11&#45;&#45;14 -->
<g id="edge70" class="edge"><title>11&#45;&#45;14</title>
<path fill="none" stroke="black" d="M165.101,-296.979C153.222,-269.288 130.695,-214.395 117,-166 112.562,-150.316 112.988,-146.023 110,-130 105.365,-105.146 102.916,-99.1139 100,-74 98.5992,-61.9363 97.8499,-48.3061 97.4505,-37.6326"/>
<text text-anchor="middle" x="126.5" y="-153.4" font-family="Times Roman,serif" font-size="14.00">31</text>
</g>
<!-- 11&#45;&#45;19 -->
<g id="edge72" class="edge"><title>11&#45;&#45;19</title>
<path fill="none" stroke="black" d="M200.019,-313.003C228.055,-309.71 271.927,-301.001 302,-278 317.681,-266.007 312.427,-255.22 325,-240 331.839,-231.721 340.542,-223.604 348.168,-217.092"/>
<text text-anchor="middle" x="334.5" y="-255.4" font-family="Times Roman,serif" font-size="14.00">95</text>
</g>
<!-- 20 -->
<g id="node21" class="node"><title>20</title>
<ellipse fill="none" stroke="orchid" cx="392" cy="-19" rx="27" ry="18.3848"/>
<text text-anchor="middle" x="392" y="-15.4" font-family="Times Roman,serif" font-size="14.00">20</text>
</g>
<!-- 11&#45;&#45;20 -->
<g id="edge68" class="edge"><title>11&#45;&#45;20</title>
<path fill="none" stroke="black" d="M188.274,-299.415C194.513,-292.906 201.723,-285.197 208,-278 249.976,-229.877 260.745,-217.864 298,-166 330.518,-120.731 364.852,-64.5955 381.593,-36.6004"/>
<text text-anchor="middle" x="319.5" y="-153.4" font-family="Times Roman,serif" font-size="14.00">78</text>
</g>
<!-- 13 -->
<g id="node14" class="node"><title>13</title>
<ellipse fill="none" stroke="olive" cx="193" cy="-111" rx="27" ry="18.3848"/>
<text text-anchor="middle" x="193" y="-107.4" font-family="Times Roman,serif" font-size="14.00">13</text>
</g>
<!-- 12&#45;&#45;13 -->
<g id="edge74" class="edge"><title>12&#45;&#45;13</title>
<path fill="none" stroke="black" d="M193,-184.382C193,-168.421 193,-145.543 193,-129.59"/>
<text text-anchor="middle" x="207" y="-153.4" font-family="Times Roman,serif" font-size="14.00">117</text>
</g>
<!-- 12&#45;&#45;14 -->
<g id="edge78" class="edge"><title>12&#45;&#45;14</title>
<path fill="none" stroke="black" d="M176.545,-188.315C162.081,-174.566 141.449,-152.776 129,-130 112.551,-99.9071 103.799,-60.4902 99.8005,-37.6325"/>
<text text-anchor="middle" x="143" y="-107.4" font-family="Times Roman,serif" font-size="14.00">111</text>
</g>
<!-- 18 -->
<g id="node19" class="node"><title>18</title>
<ellipse fill="none" stroke="olive" cx="439" cy="-111" rx="27" ry="18.3848"/>
<text text-anchor="middle" x="439" y="-107.4" font-family="Times Roman,serif" font-size="14.00">18</text>
</g>
<!-- 12&#45;&#45;18 -->
<g id="edge76" class="edge"><title>12&#45;&#45;18</title>
<path fill="none" stroke="black" d="M212.451,-190.107C222.818,-183.126 235.725,-174.262 247,-166 257.47,-158.328 258.054,-153.077 270,-148 322.872,-125.529 342.898,-146.253 398,-130 404.471,-128.091 411.222,-125.321 417.333,-122.483"/>
<text text-anchor="middle" x="284" y="-153.4" font-family="Times Roman,serif" font-size="14.00">171</text>
</g>
<!-- 12&#45;&#45;20 -->
<g id="edge80" class="edge"><title>12&#45;&#45;20</title>
<path fill="none" stroke="black" d="M206.037,-186.458C211.046,-180.079 216.806,-172.713 222,-166 259.641,-117.347 257.498,-93.8343 306,-56 324.198,-41.8043 348.668,-31.9728 366.853,-26.0318"/>
<text text-anchor="middle" x="278.5" y="-107.4" font-family="Times Roman,serif" font-size="14.00">51</text>
</g>
<!-- 13&#45;&#45;14 -->
<g id="edge82" class="edge"><title>13&#45;&#45;14</title>
<path fill="none" stroke="black" d="M177.148,-95.8081C159.36,-78.762 130.673,-51.2698 112.876,-34.2145"/>
<text text-anchor="middle" x="167" y="-61.4" font-family="Times Roman,serif" font-size="14.00">158</text>
</g>
<!-- 16 -->
<g id="node17" class="node"><title>16</title>
<ellipse fill="none" stroke="olive" cx="604" cy="-407" rx="27" ry="18.3848"/>
<text text-anchor="middle" x="604" y="-403.4" font-family="Times Roman,serif" font-size="14.00">16</text>
</g>
<!-- 15&#45;&#45;16 -->
<g id="edge84" class="edge"><title>15&#45;&#45;16</title>
<path fill="none" stroke="black" d="M555.906,-501.5C566.552,-480.582 584.267,-445.773 594.968,-424.747"/>
<text text-anchor="middle" x="592.5" y="-459.4" font-family="Times Roman,serif" font-size="14.00">95</text>
</g>
<!-- 17 -->
<g id="node18" class="node"><title>17</title>
<ellipse fill="none" stroke="red" cx="496" cy="-259" rx="27" ry="18.3848"/>
<text text-anchor="middle" x="496" y="-255.4" font-family="Times Roman,serif" font-size="14.00">17</text>
</g>
<!-- 15&#45;&#45;17 -->
<g id="edge88" class="edge"><title>15&#45;&#45;17</title>
<path fill="none" stroke="black" d="M540.039,-500.98C537.752,-494.961 535.226,-488.206 533,-482 524.126,-457.261 519.665,-451.665 514,-426 502.31,-373.035 498.105,-308.877 496.679,-277.75"/>
<text text-anchor="middle" x="523.5" y="-403.4" font-family="Times Roman,serif" font-size="14.00">42</text>
</g>
<!-- 15&#45;&#45;19 -->
<g id="edge92" class="edge"><title>15&#45;&#45;19</title>
<path fill="none" stroke="black" d="M531.21,-503.782C525.258,-497.451 518.779,-489.772 514,-482 506.238,-469.378 421.642,-240.811 421,-240 412.286,-228.991 399.387,-220.072 388.27,-213.751"/>
<text text-anchor="middle" x="482" y="-357.4" font-family="Times Roman,serif" font-size="14.00">112</text>
</g>
<!-- 15&#45;&#45;20 -->
<g id="edge90" class="edge"><title>15&#45;&#45;20</title>
<path fill="none" stroke="black" d="M548.648,-500.354C552.93,-445.152 561.548,-278.283 523,-148 509.736,-103.17 506.909,-87.0976 472,-56 456.118,-41.8516 433.897,-32.1593 416.904,-26.2552"/>
<text text-anchor="middle" x="555.5" y="-255.4" font-family="Times Roman,serif" font-size="14.00">24</text>
</g>
<!-- 34 -->
<g id="node35" class="node"><title>34</title>
<ellipse fill="none" stroke="red" cx="672" cy="-315" rx="27" ry="18.3848"/>
<text text-anchor="middle" x="672" y="-311.4" font-family="Times Roman,serif" font-size="14.00">34</text>
</g>
<!-- 15&#45;&#45;34 -->
<g id="edge86" class="edge"><title>15&#45;&#45;34</title>
<path fill="none" stroke="black" d="M569.203,-508.305C581.076,-501.837 595.391,-492.764 606,-482 645.495,-441.93 649.818,-424.175 665,-370 668.325,-358.136 670.075,-344.386 670.994,-333.602"/>
<text text-anchor="middle" x="673" y="-403.4" font-family="Times Roman,serif" font-size="14.00">129</text>
</g>
<!-- 15&#45;&#45;39 -->
<g id="edge94" class="edge"><title>15&#45;&#45;39</title>
<path fill="none" stroke="black" d="M571.803,-511.464C590.176,-505.215 615.329,-495.219 635,-482 664.214,-462.367 667.32,-452.042 691,-426 726.68,-386.76 737.878,-378.325 767,-334 792.758,-294.795 788.504,-278.71 815,-240 820.153,-232.471 826.697,-224.833 832.596,-218.468"/>
<text text-anchor="middle" x="763.5" y="-357.4" font-family="Times Roman,serif" font-size="14.00">51</text>
</g>
<!-- 16&#45;&#45;17 -->
<g id="edge96" class="edge"><title>16&#45;&#45;17</title>
<path fill="none" stroke="black" d="M588.882,-391.63C582.778,-385.154 575.818,-377.411 570,-370 545.257,-338.484 520.162,-298.873 506.489,-276.5"/>
<text text-anchor="middle" x="584" y="-357.4" font-family="Times Roman,serif" font-size="14.00">191</text>
</g>
<!-- 16&#45;&#45;34 -->
<g id="edge100" class="edge"><title>16&#45;&#45;34</title>
<path fill="none" stroke="black" d="M616.472,-390.126C628.742,-373.526 647.365,-348.33 659.607,-331.767"/>
<text text-anchor="middle" x="653.5" y="-357.4" font-family="Times Roman,serif" font-size="14.00">32</text>
</g>
<!-- 36 -->
<g id="node37" class="node"><title>36</title>
<ellipse fill="none" stroke="aqua" cx="668" cy="-19" rx="27" ry="18.3848"/>
<text text-anchor="middle" x="668" y="-15.4" font-family="Times Roman,serif" font-size="14.00">36</text>
</g>
<!-- 16&#45;&#45;36 -->
<g id="edge98" class="edge"><title>16&#45;&#45;36</title>
<path fill="none" stroke="black" d="M606.575,-388.364C608.914,-369.808 612,-340.492 612,-315 612,-315 612,-315 612,-111 612,-80.1475 635.264,-50.8471 651.802,-33.9148"/>
<text text-anchor="middle" x="626" y="-199.4" font-family="Times Roman,serif" font-size="14.00">151</text>
</g>
<!-- 17&#45;&#45;18 -->
<g id="edge102" class="edge"><title>17&#45;&#45;18</title>
<path fill="none" stroke="black" d="M475.89,-246.607C467.42,-240.31 458.312,-231.891 453,-222 437.193,-192.568 436.307,-152.578 437.427,-129.503"/>
<text text-anchor="middle" x="467" y="-199.4" font-family="Times Roman,serif" font-size="14.00">158</text>
</g>
<!-- 17&#45;&#45;20 -->
<g id="edge104" class="edge"><title>17&#45;&#45;20</title>
<path fill="none" stroke="black" d="M496.402,-240.304C496.487,-208.713 494.073,-143.207 475,-92 468.288,-73.9798 464.786,-69.4065 451,-56 440.165,-45.4633 425.845,-36.3949 414.026,-29.873"/>
<text text-anchor="middle" x="505" y="-153.4" font-family="Times Roman,serif" font-size="14.00">131</text>
</g>
<!-- 18&#45;&#45;20 -->
<g id="edge106" class="edge"><title>18&#45;&#45;20</title>
<path fill="none" stroke="black" d="M429.938,-93.2615C421.615,-76.9704 409.348,-52.9579 401.034,-36.6841"/>
<text text-anchor="middle" x="433" y="-61.4" font-family="Times Roman,serif" font-size="14.00">128</text>
</g>
<!-- 19&#45;&#45;20 -->
<g id="edge108" class="edge"><title>19&#45;&#45;20</title>
<path fill="none" stroke="black" d="M366.666,-184.44C367.652,-162.317 369.96,-124.284 375,-92 377.93,-73.2287 383.048,-52.1247 386.904,-37.4542"/>
<text text-anchor="middle" x="389" y="-107.4" font-family="Times Roman,serif" font-size="14.00">159</text>
</g>
<!-- 21 -->
<g id="node22" class="node"><title>21</title>
<ellipse fill="none" stroke="aqua" cx="1636" cy="-979" rx="27" ry="18.3848"/>
<text text-anchor="middle" x="1636" y="-975.4" font-family="Times Roman,serif" font-size="14.00">21</text>
</g>
<!-- 22 -->
<g id="node23" class="node"><title>22</title>
<ellipse fill="none" stroke="olive" cx="1581" cy="-887" rx="27" ry="18.3848"/>
<text text-anchor="middle" x="1581" y="-883.4" font-family="Times Roman,serif" font-size="14.00">22</text>
</g>
<!-- 21&#45;&#45;22 -->
<g id="edge112" class="edge"><title>21&#45;&#45;22</title>
<path fill="none" stroke="black" d="M1616.4,-965.908C1608.34,-959.582 1599.6,-951.333 1594,-942 1587.39,-930.978 1584.14,-916.834 1582.54,-905.65"/>
<text text-anchor="middle" x="1608" y="-929.4" font-family="Times Roman,serif" font-size="14.00">187</text>
</g>
<!-- 24 -->
<g id="node25" class="node"><title>24</title>
<ellipse fill="none" stroke="red" cx="1586" cy="-703" rx="27" ry="18.3848"/>
<text text-anchor="middle" x="1586" y="-699.4" font-family="Times Roman,serif" font-size="14.00">24</text>
</g>
<!-- 21&#45;&#45;24 -->
<g id="edge110" class="edge"><title>21&#45;&#45;24</title>
<path fill="none" stroke="black" d="M1633.71,-960.453C1629.2,-924.659 1618.49,-843.614 1606,-776 1603.02,-759.882 1602.31,-755.813 1598,-740 1596.33,-733.876 1594.27,-727.26 1592.33,-721.34"/>
<text text-anchor="middle" x="1632" y="-837.4" font-family="Times Roman,serif" font-size="14.00">121</text>
</g>
<!-- 40 -->
<g id="node41" class="node"><title>40</title>
<ellipse fill="none" stroke="purple" cx="1679" cy="-519" rx="27" ry="18.3848"/>
<text text-anchor="middle" x="1679" y="-515.4" font-family="Times Roman,serif" font-size="14.00">40</text>
</g>
<!-- 21&#45;&#45;40 -->
<g id="edge114" class="edge"><title>21&#45;&#45;40</title>
<path fill="none" stroke="black" d="M1657.28,-967.076C1681.28,-951.877 1717,-923.177 1717,-887 1717,-887 1717,-887 1717,-611 1717,-583.005 1701.78,-553.599 1690.61,-535.779"/>
<text text-anchor="middle" x="1731" y="-745.4" font-family="Times Roman,serif" font-size="14.00">109</text>
</g>
<!-- 23 -->
<g id="node24" class="node"><title>23</title>
<ellipse fill="none" stroke="aqua" cx="1500" cy="-795" rx="27" ry="18.3848"/>
<text text-anchor="middle" x="1500" y="-791.4" font-family="Times Roman,serif" font-size="14.00">23</text>
</g>
<!-- 22&#45;&#45;23 -->
<g id="edge116" class="edge"><title>22&#45;&#45;23</title>
<path fill="none" stroke="black" d="M1566.89,-870.975C1552.02,-854.089 1528.75,-827.658 1513.95,-810.842"/>
<text text-anchor="middle" x="1556.5" y="-837.4" font-family="Times Roman,serif" font-size="14.00">80</text>
</g>
<!-- 22&#45;&#45;24 -->
<g id="edge118" class="edge"><title>22&#45;&#45;24</title>
<path fill="none" stroke="black" d="M1581.51,-868.345C1582.47,-833.078 1584.53,-757.009 1585.49,-721.705"/>
<text text-anchor="middle" x="1592.5" y="-791.4" font-family="Times Roman,serif" font-size="14.00">29</text>
</g>
<!-- 23&#45;&#45;24 -->
<g id="edge126" class="edge"><title>23&#45;&#45;24</title>
<path fill="none" stroke="black" d="M1511.99,-777.936C1520.2,-766.703 1531.62,-751.926 1543,-740 1550.75,-731.877 1560.12,-723.651 1568.14,-717.025"/>
<text text-anchor="middle" x="1557" y="-745.4" font-family="Times Roman,serif" font-size="14.00">117</text>
</g>
<!-- 25 -->
<g id="node26" class="node"><title>25</title>
<ellipse fill="none" stroke="olive" cx="1500" cy="-611" rx="27" ry="18.3848"/>
<text text-anchor="middle" x="1500" y="-607.4" font-family="Times Roman,serif" font-size="14.00">25</text>
</g>
<!-- 23&#45;&#45;25 -->
<g id="edge124" class="edge"><title>23&#45;&#45;25</title>
<path fill="none" stroke="black" d="M1500,-776.345C1500,-741.078 1500,-665.009 1500,-629.705"/>
<text text-anchor="middle" x="1509.5" y="-699.4" font-family="Times Roman,serif" font-size="14.00">82</text>
</g>
<!-- 27 -->
<g id="node28" class="node"><title>27</title>
<ellipse fill="none" stroke="olive" cx="1271" cy="-611" rx="27" ry="18.3848"/>
<text text-anchor="middle" x="1271" y="-607.4" font-family="Times Roman,serif" font-size="14.00">27</text>
</g>
<!-- 23&#45;&#45;27 -->
<g id="edge122" class="edge"><title>23&#45;&#45;27</title>
<path fill="none" stroke="black" d="M1473.69,-790.078C1420.55,-779.568 1303.4,-753.317 1279,-722 1258.22,-695.328 1262.11,-653.251 1266.65,-629.295"/>
<text text-anchor="middle" x="1288.5" y="-699.4" font-family="Times Roman,serif" font-size="14.00">93</text>
</g>
<!-- 28 -->
<g id="node29" class="node"><title>28</title>
<ellipse fill="none" stroke="red" cx="1321" cy="-519" rx="27" ry="18.3848"/>
<text text-anchor="middle" x="1321" y="-515.4" font-family="Times Roman,serif" font-size="14.00">28</text>
</g>
<!-- 23&#45;&#45;28 -->
<g id="edge120" class="edge"><title>23&#45;&#45;28</title>
<path fill="none" stroke="black" d="M1473.19,-791.942C1425.77,-786.224 1329.23,-773.117 1299,-758 1277.9,-747.449 1273.01,-741.677 1260,-722 1227.55,-672.921 1210.29,-645.394 1235,-592 1248.16,-563.564 1278.47,-542.157 1299.34,-530.101"/>
<text text-anchor="middle" x="1237.5" y="-653.4" font-family="Times Roman,serif" font-size="14.00">63</text>
</g>
<!-- 24&#45;&#45;25 -->
<g id="edge128" class="edge"><title>24&#45;&#45;25</title>
<path fill="none" stroke="black" d="M1568.21,-688.526C1560.49,-681.943 1551.51,-673.876 1544,-666 1532.52,-653.965 1520.82,-639.195 1512.37,-627.992"/>
<text text-anchor="middle" x="1558" y="-653.4" font-family="Times Roman,serif" font-size="14.00">154</text>
</g>
<!-- 24&#45;&#45;40 -->
<g id="edge134" class="edge"><title>24&#45;&#45;40</title>
<path fill="none" stroke="black" d="M1607.97,-691.981C1618.46,-685.691 1630.36,-676.881 1638,-666 1666.01,-626.103 1674.94,-567.617 1677.74,-537.875"/>
<text text-anchor="middle" x="1677.5" y="-607.4" font-family="Times Roman,serif" font-size="14.00">46</text>
</g>
<!-- 41 -->
<g id="node42" class="node"><title>41</title>
<ellipse fill="none" stroke="orchid" cx="1240" cy="-111" rx="27" ry="18.3848"/>
<text text-anchor="middle" x="1240" y="-107.4" font-family="Times Roman,serif" font-size="14.00">41</text>
</g>
<!-- 24&#45;&#45;41 -->
<g id="edge130" class="edge"><title>24&#45;&#45;41</title>
<path fill="none" stroke="black" d="M1586,-684.322C1586,-665.735 1586,-636.396 1586,-611 1586,-611 1586,-611 1586,-203 1586,-137.114 1348.72,-117.259 1267.15,-112.38"/>
<text text-anchor="middle" x="1595.5" y="-403.4" font-family="Times Roman,serif" font-size="14.00">58</text>
</g>
<!-- 42 -->
<g id="node43" class="node"><title>42</title>
<ellipse fill="none" stroke="aqua" cx="1240" cy="-19" rx="27" ry="18.3848"/>
<text text-anchor="middle" x="1240" y="-15.4" font-family="Times Roman,serif" font-size="14.00">42</text>
</g>
<!-- 24&#45;&#45;42 -->
<g id="edge132" class="edge"><title>24&#45;&#45;42</title>
<path fill="none" stroke="black" d="M1593.77,-685.222C1596.11,-679.219 1598.47,-672.413 1600,-666 1631.71,-533.393 1633,-497.347 1633,-361 1633,-361 1633,-361 1633,-111 1633,-35.6707 1355.8,-21.98 1267.01,-19.5269"/>
<text text-anchor="middle" x="1647" y="-357.4" font-family="Times Roman,serif" font-size="14.00">102</text>
</g>
<!-- 25&#45;&#45;28 -->
<g id="edge140" class="edge"><title>25&#45;&#45;28</title>
<path fill="none" stroke="black" d="M1478.06,-600.018C1464.72,-593.066 1447.52,-583.602 1433,-574 1422.17,-566.84 1421.21,-562.551 1410,-556 1389.34,-543.923 1363.99,-533.794 1345.64,-527.204"/>
<text text-anchor="middle" x="1447" y="-561.4" font-family="Times Roman,serif" font-size="14.00">113</text>
</g>
<!-- 31 -->
<g id="node32" class="node"><title>31</title>
<ellipse fill="none" stroke="purple" cx="1321" cy="-315" rx="27" ry="18.3848"/>
<text text-anchor="middle" x="1321" y="-311.4" font-family="Times Roman,serif" font-size="14.00">31</text>
</g>
<!-- 25&#45;&#45;31 -->
<g id="edge136" class="edge"><title>25&#45;&#45;31</title>
<path fill="none" stroke="black" d="M1494.39,-592.877C1478.4,-541.362 1433.44,-397.189 1428,-388 1409.1,-356.072 1370.11,-334.975 1344.78,-324.011"/>
<text text-anchor="middle" x="1468.5" y="-459.4" font-family="Times Roman,serif" font-size="14.00">77</text>
</g>
<!-- 33 -->
<g id="node34" class="node"><title>33</title>
<ellipse fill="none" stroke="red" cx="1268" cy="-203" rx="27" ry="18.3848"/>
<text text-anchor="middle" x="1268" y="-199.4" font-family="Times Roman,serif" font-size="14.00">33</text>
</g>
<!-- 25&#45;&#45;33 -->
<g id="edge138" class="edge"><title>25&#45;&#45;33</title>
<path fill="none" stroke="black" d="M1500.38,-592.422C1500.47,-561.003 1498.31,-495.747 1481,-444 1459.29,-379.107 1349.58,-253.461 1334,-240 1321.08,-228.834 1304.26,-219.467 1290.84,-212.951"/>
<text text-anchor="middle" x="1482.5" y="-403.4" font-family="Times Roman,serif" font-size="14.00">80</text>
</g>
<!-- 25&#45;&#45;41 -->
<g id="edge142" class="edge"><title>25&#45;&#45;41</title>
<path fill="none" stroke="black" d="M1512.22,-594.309C1523.98,-576.562 1540,-547.215 1540,-519 1540,-519 1540,-519 1540,-203 1540,-146.139 1340.52,-120.837 1266.89,-113.434"/>
<text text-anchor="middle" x="1549.5" y="-357.4" font-family="Times Roman,serif" font-size="14.00">82</text>
</g>
<!-- 26 -->
<g id="node27" class="node"><title>26</title>
<ellipse fill="none" stroke="aqua" cx="1334" cy="-703" rx="27" ry="18.3848"/>
<text text-anchor="middle" x="1334" y="-699.4" font-family="Times Roman,serif" font-size="14.00">26</text>
</g>
<!-- 26&#45;&#45;27 -->
<g id="edge148" class="edge"><title>26&#45;&#45;27</title>
<path fill="none" stroke="black" d="M1318.7,-687.459C1312.82,-681.084 1306.26,-673.458 1301,-666 1292.67,-654.175 1284.9,-639.792 1279.35,-628.7"/>
<text text-anchor="middle" x="1310.5" y="-653.4" font-family="Times Roman,serif" font-size="14.00">93</text>
</g>
<!-- 26&#45;&#45;28 -->
<g id="edge146" class="edge"><title>26&#45;&#45;28</title>
<path fill="none" stroke="black" d="M1332.68,-684.345C1330.19,-649.078 1324.82,-573.009 1322.32,-537.705"/>
<text text-anchor="middle" x="1337.5" y="-607.4" font-family="Times Roman,serif" font-size="14.00">85</text>
</g>
<!-- 30 -->
<g id="node31" class="node"><title>30</title>
<ellipse fill="none" stroke="olive" cx="1392" cy="-407" rx="27" ry="18.3848"/>
<text text-anchor="middle" x="1392" y="-403.4" font-family="Times Roman,serif" font-size="14.00">30</text>
</g>
<!-- 26&#45;&#45;30 -->
<g id="edge144" class="edge"><title>26&#45;&#45;30</title>
<path fill="none" stroke="black" d="M1339.25,-684.622C1340.86,-678.7 1342.59,-672.093 1344,-666 1347.68,-650.122 1347.97,-646.016 1351,-630 1365.34,-554.19 1381.75,-463.746 1388.66,-425.514"/>
<text text-anchor="middle" x="1378" y="-561.4" font-family="Times Roman,serif" font-size="14.00">109</text>
</g>
<!-- 27&#45;&#45;28 -->
<g id="edge150" class="edge"><title>27&#45;&#45;28</title>
<path fill="none" stroke="black" d="M1276.42,-592.802C1280.06,-581.783 1285.41,-567.654 1292,-556 1296.18,-548.612 1301.75,-541.12 1306.89,-534.828"/>
<text text-anchor="middle" x="1306" y="-561.4" font-family="Times Roman,serif" font-size="14.00">175</text>
</g>
<!-- 28&#45;&#45;30 -->
<g id="edge152" class="edge"><title>28&#45;&#45;30</title>
<path fill="none" stroke="black" d="M1326.47,-500.671C1331.74,-484.796 1340.72,-461.668 1353,-444 1358.86,-435.57 1366.88,-427.554 1374.13,-421.151"/>
<text text-anchor="middle" x="1362.5" y="-459.4" font-family="Times Roman,serif" font-size="14.00">58</text>
</g>
<!-- 28&#45;&#45;31 -->
<g id="edge154" class="edge"><title>28&#45;&#45;31</title>
<path fill="none" stroke="black" d="M1321,-500.174C1321,-461.311 1321,-372.605 1321,-333.781"/>
<text text-anchor="middle" x="1335" y="-403.4" font-family="Times Roman,serif" font-size="14.00">111</text>
</g>
<!-- 29 -->
<g id="node30" class="node"><title>29</title>
<ellipse fill="none" stroke="aqua" cx="1234" cy="-519" rx="27" ry="18.3848"/>
<text text-anchor="middle" x="1234" y="-515.4" font-family="Times Roman,serif" font-size="14.00">29</text>
</g>
<!-- 29&#45;&#45;30 -->
<g id="edge158" class="edge"><title>29&#45;&#45;30</title>
<path fill="none" stroke="black" d="M1247.43,-502.604C1261.61,-486.103 1285.3,-460.759 1310,-444 1326.47,-432.825 1332.86,-434.184 1351,-426 1357.01,-423.29 1363.49,-420.313 1369.48,-417.535"/>
<text text-anchor="middle" x="1319.5" y="-459.4" font-family="Times Roman,serif" font-size="14.00">90</text>
</g>
<!-- 29&#45;&#45;31 -->
<g id="edge160" class="edge"><title>29&#45;&#45;31</title>
<path fill="none" stroke="black" d="M1241.72,-500.896C1258.27,-462.086 1297,-371.283 1313.42,-332.772"/>
<text text-anchor="middle" x="1297.5" y="-403.4" font-family="Times Roman,serif" font-size="14.00">94</text>
</g>
<!-- 29&#45;&#45;33 -->
<g id="edge162" class="edge"><title>29&#45;&#45;33</title>
<path fill="none" stroke="black" d="M1236.03,-500.179C1242.07,-443.975 1259.95,-277.797 1265.99,-221.722"/>
<text text-anchor="middle" x="1265" y="-357.4" font-family="Times Roman,serif" font-size="14.00">126</text>
</g>
<!-- 35 -->
<g id="node36" class="node"><title>35</title>
<ellipse fill="none" stroke="olive" cx="977" cy="-111" rx="27" ry="18.3848"/>
<text text-anchor="middle" x="977" y="-107.4" font-family="Times Roman,serif" font-size="14.00">35</text>
</g>
<!-- 29&#45;&#45;35 -->
<g id="edge156" class="edge"><title>29&#45;&#45;35</title>
<path fill="none" stroke="black" d="M1207.58,-514.602C1164.23,-505.916 1078.49,-482.279 1035,-426 963.942,-334.036 970.25,-182.278 974.962,-129.655"/>
<text text-anchor="middle" x="1004" y="-311.4" font-family="Times Roman,serif" font-size="14.00">151</text>
</g>
<!-- 30&#45;&#45;31 -->
<g id="edge164" class="edge"><title>30&#45;&#45;31</title>
<path fill="none" stroke="black" d="M1379.31,-390.552C1366.46,-373.91 1346.71,-348.318 1333.82,-331.616"/>
<text text-anchor="middle" x="1376" y="-357.4" font-family="Times Roman,serif" font-size="14.00">171</text>
</g>
<!-- 31&#45;&#45;33 -->
<g id="edge166" class="edge"><title>31&#45;&#45;33</title>
<path fill="none" stroke="black" d="M1312.48,-297.005C1302.59,-276.105 1286.38,-241.831 1276.49,-220.95"/>
<text text-anchor="middle" x="1316" y="-255.4" font-family="Times Roman,serif" font-size="14.00">111</text>
</g>
<!-- 32 -->
<g id="node33" class="node"><title>32</title>
<ellipse fill="none" stroke="aqua" cx="1071" cy="-407" rx="27" ry="18.3848"/>
<text text-anchor="middle" x="1071" y="-403.4" font-family="Times Roman,serif" font-size="14.00">32</text>
</g>
<!-- 32&#45;&#45;33 -->
<g id="edge170" class="edge"><title>32&#45;&#45;33</title>
<path fill="none" stroke="black" d="M1091.73,-394.972C1101.9,-388.425 1113.9,-379.69 1123,-370 1149.52,-341.778 1144.46,-325.955 1169,-296 1194.26,-265.172 1229.31,-234.517 1250.22,-217.241"/>
<text text-anchor="middle" x="1183" y="-311.4" font-family="Times Roman,serif" font-size="14.00">206</text>
</g>
<!-- 32&#45;&#45;34 -->
<g id="edge172" class="edge"><title>32&#45;&#45;34</title>
<path fill="none" stroke="black" d="M1044.3,-403.984C1013,-399.677 960.18,-389.964 919,-370 907.32,-364.337 908.05,-356.827 896,-352 820.136,-321.607 791.852,-355.484 713,-334 706.49,-332.226 699.727,-329.5 693.616,-326.662"/>
<text text-anchor="middle" x="928.5" y="-357.4" font-family="Times Roman,serif" font-size="14.00">98</text>
</g>
<!-- 32&#45;&#45;35 -->
<g id="edge168" class="edge"><title>32&#45;&#45;35</title>
<path fill="none" stroke="black" d="M1072.31,-388.335C1075.66,-335.647 1082.46,-187.064 1056,-148 1044.03,-130.319 1021.28,-120.891 1003.25,-115.987"/>
<text text-anchor="middle" x="1084.5" y="-255.4" font-family="Times Roman,serif" font-size="14.00">52</text>
</g>
<!-- 32&#45;&#45;39 -->
<g id="edge174" class="edge"><title>32&#45;&#45;39</title>
<path fill="none" stroke="black" d="M1045.87,-399.756C1014.53,-389.604 960.947,-368.428 927,-334 894.344,-300.88 906.943,-278.604 881,-240 875.911,-232.427 869.378,-224.782 863.47,-218.423"/>
<text text-anchor="middle" x="941" y="-311.4" font-family="Times Roman,serif" font-size="14.00">151</text>
</g>
<!-- 32&#45;&#45;41 -->
<g id="edge176" class="edge"><title>32&#45;&#45;41</title>
<path fill="none" stroke="black" d="M1078.83,-388.986C1101.45,-337.376 1167.22,-189.995 1199,-148 1205.48,-139.437 1214.14,-131.285 1221.83,-124.823"/>
<text text-anchor="middle" x="1155.5" y="-255.4" font-family="Times Roman,serif" font-size="14.00">61</text>
</g>
<!-- 33&#45;&#45;35 -->
<g id="edge178" class="edge"><title>33&#45;&#45;35</title>
<path fill="none" stroke="black" d="M1243.19,-195.156C1188.21,-177.775 1056.67,-136.187 1001.75,-118.824"/>
<text text-anchor="middle" x="1157.5" y="-153.4" font-family="Times Roman,serif" font-size="14.00">27</text>
</g>
<!-- 33&#45;&#45;41 -->
<g id="edge180" class="edge"><title>33&#45;&#45;41</title>
<path fill="none" stroke="black" d="M1262.47,-184.824C1257.56,-168.695 1250.43,-145.256 1245.52,-129.138"/>
<text text-anchor="middle" x="1265.5" y="-153.4" font-family="Times Roman,serif" font-size="14.00">98</text>
</g>
<!-- 34&#45;&#45;35 -->
<g id="edge184" class="edge"><title>34&#45;&#45;35</title>
<path fill="none" stroke="black" d="M679.907,-297.154C687.506,-281.171 700.025,-257.607 715,-240 779.382,-164.303 898.759,-128.9 951.18,-116.462"/>
<text text-anchor="middle" x="792" y="-199.4" font-family="Times Roman,serif" font-size="14.00">109</text>
</g>
<!-- 34&#45;&#45;36 -->
<g id="edge182" class="edge"><title>34&#45;&#45;36</title>
<path fill="none" stroke="black" d="M671.75,-296.484C671.031,-243.326 668.968,-90.658 668.25,-37.5091"/>
<text text-anchor="middle" x="678.5" y="-153.4" font-family="Times Roman,serif" font-size="14.00">94</text>
</g>
<!-- 34&#45;&#45;39 -->
<g id="edge186" class="edge"><title>34&#45;&#45;39</title>
<path fill="none" stroke="black" d="M688.363,-299.992C709.413,-280.875 745.043,-249.209 760,-240 780.181,-227.574 805.274,-217.485 823.495,-211"/>
<text text-anchor="middle" x="769.5" y="-255.4" font-family="Times Roman,serif" font-size="14.00">91</text>
</g>
<!-- 35&#45;&#45;36 -->
<g id="edge188" class="edge"><title>35&#45;&#45;36</title>
<path fill="none" stroke="black" d="M952.236,-103.627C894.378,-86.4005 750.856,-43.6692 692.882,-26.4083"/>
<text text-anchor="middle" x="864" y="-61.4" font-family="Times Roman,serif" font-size="14.00">136</text>
</g>
<!-- 37&#45;&#45;38 -->
<g id="edge190" class="edge"><title>37&#45;&#45;38</title>
<path fill="none" stroke="black" d="M846.913,-602.025C860.135,-595.95 875.885,-586.7 886,-574 907.779,-546.657 916.106,-505.578 919.216,-481.815"/>
<text text-anchor="middle" x="906.5" y="-561.4" font-family="Times Roman,serif" font-size="14.00">98</text>
</g>
<!-- 37&#45;&#45;40 -->
<g id="edge194" class="edge"><title>37&#45;&#45;40</title>
<path fill="none" stroke="black" d="M849.631,-607.234C877.598,-603.308 922.866,-597.038 962,-592 1094.32,-574.966 1127.32,-569.869 1260,-556 1407.8,-540.55 1585.39,-526.283 1652.01,-521.081"/>
<text text-anchor="middle" x="1269.5" y="-561.4" font-family="Times Roman,serif" font-size="14.00">72</text>
</g>
<!-- 37&#45;&#45;42 -->
<g id="edge192" class="edge"><title>37&#45;&#45;42</title>
<path fill="none" stroke="black" d="M814.968,-592.903C804.205,-568.195 784.96,-522.355 772,-482 751.269,-417.445 743.284,-401.294 735,-334 732.936,-317.238 728.327,-311.515 735,-296 739.596,-285.314 748.561,-288.282 754,-278 800.741,-189.646 716.594,-123.843 790,-56 821.086,-27.2693 1120.08,-20.6808 1212.75,-19.3234"/>
<text text-anchor="middle" x="749" y="-311.4" font-family="Times Roman,serif" font-size="14.00">116</text>
</g>
<!-- 38&#45;&#45;39 -->
<g id="edge196" class="edge"><title>38&#45;&#45;39</title>
<path fill="none" stroke="black" d="M907.774,-446.687C894.22,-428.973 873.789,-399.274 864,-370 846.728,-318.346 846.152,-253.047 847.096,-221.599"/>
<text text-anchor="middle" x="878" y="-357.4" font-family="Times Roman,serif" font-size="14.00">152</text>
</g>
<!-- 38&#45;&#45;41 -->
<g id="edge198" class="edge"><title>38&#45;&#45;41</title>
<path fill="none" stroke="black" d="M947.638,-459.675C992.232,-453.785 1079.79,-440.739 1107,-426 1157.3,-398.759 1170.46,-384.672 1197,-334 1215.75,-298.199 1232.04,-176.737 1237.79,-129.762"/>
<text text-anchor="middle" x="1218.5" y="-311.4" font-family="Times Roman,serif" font-size="14.00">85</text>
</g>
<!-- 38&#45;&#45;42 -->
<g id="edge200" class="edge"><title>38&#45;&#45;42</title>
<path fill="none" stroke="black" d="M935.847,-447.072C956.863,-423.807 995.355,-378.447 1019,-334 1060.71,-255.598 1039.21,-219.413 1092,-148 1129.28,-97.567 1189.43,-52.9898 1220.31,-31.9045"/>
<text text-anchor="middle" x="1059.5" y="-255.4" font-family="Times Roman,serif" font-size="14.00">53</text>
</g>
<!-- 39&#45;&#45;41 -->
<g id="edge202" class="edge"><title>39&#45;&#45;41</title>
<path fill="none" stroke="black" d="M873.602,-196.55C915.309,-186.086 1000.55,-164.88 1073,-148 1122.89,-136.377 1181.37,-123.618 1214.21,-116.532"/>
<text text-anchor="middle" x="1082.5" y="-153.4" font-family="Times Roman,serif" font-size="14.00">29</text>
</g>
<!-- 40&#45;&#45;42 -->
<g id="edge204" class="edge"><title>40&#45;&#45;42</title>
<path fill="none" stroke="black" d="M1678.46,-500.374C1677.87,-478.149 1677,-439.866 1677,-407 1677,-407 1677,-407 1677,-111 1677,-83.1556 1670.27,-71.2839 1647,-56 1615.31,-35.1885 1352.8,-23.3357 1267.01,-19.9902"/>
<text text-anchor="middle" x="1691" y="-255.4" font-family="Times Roman,serif" font-size="14.00">154</text>
</g>
<!-- 41&#45;&#45;42 -->
<g id="edge206" class="edge"><title>41&#45;&#45;42</title>
<path fill="none" stroke="black" d="M1240,-92.3824C1240,-76.4208 1240,-53.5435 1240,-37.5899"/>
<text text-anchor="middle" x="1254" y="-61.4" font-family="Times Roman,serif" font-size="14.00">181</text>
</g>
</g>
</svg>
