<?xml version="1.0" encoding="UTF-8" standalone="no"?>
<!DOCTYPE svg PUBLIC "-//W3C//DTD SVG 1.1//EN"
 "http://www.w3.org/Graphics/SVG/1.1/DTD/svg11.dtd">
<!-- Generated by graphviz version 2.26.3 (20100126.1600)
 -->
<!-- Title: mesh Pages: 1 -->
<svg width="741pt" height="712pt"
 viewBox="0.00 0.00 741.00 712.00" xmlns="http://www.w3.org/2000/svg" xmlns:xlink="http://www.w3.org/1999/xlink">
<g id="graph1" class="graph" transform="scale(1 1) rotate(0) translate(4 708)">
<title>mesh</title>
<polygon fill="white" stroke="white" points="-4,5 -4,-708 738,-708 738,5 -4,5"/>
<!-- 0 -->
<g id="node1" class="node"><title>0</title>
<ellipse fill="none" stroke="black" cx="109" cy="-685" rx="27" ry="18.3848"/>
<text text-anchor="middle" x="109" y="-681.4" font-family="Times Roman,serif" font-size="14.00">0</text>
</g>
<!-- 1 -->
<g id="node3" class="node"><title>1</title>
<ellipse fill="none" stroke="black" cx="82" cy="-611" rx="27" ry="18.3848"/>
<text text-anchor="middle" x="82" y="-607.4" font-family="Times Roman,serif" font-size="14.00">1</text>
</g>
<!-- 0&#45;&#45;1 -->
<g id="edge2" class="edge"><title>0&#45;&#45;1</title>
<path fill="none" stroke="black" d="M102.326,-666.708C98.1407,-655.238 92.7679,-640.512 88.5974,-629.082"/>
</g>
<!-- 2 -->
<g id="node5" class="node"><title>2</title>
<ellipse fill="none" stroke="black" cx="137" cy="-537" rx="27" ry="18.3848"/>
<text text-anchor="middle" x="137" y="-533.4" font-family="Times Roman,serif" font-size="14.00">2</text>
</g>
<!-- 0&#45;&#45;2 -->
<g id="edge4" class="edge"><title>0&#45;&#45;2</title>
<path fill="none" stroke="black" d="M112.49,-666.555C117.855,-638.194 128.074,-584.178 133.466,-555.678"/>
</g>
<!-- 6 -->
<g id="node7" class="node"><title>6</title>
<ellipse fill="none" stroke="black" cx="27" cy="-537" rx="27" ry="18.3848"/>
<text text-anchor="middle" x="27" y="-533.4" font-family="Times Roman,serif" font-size="14.00">6</text>
</g>
<!-- 0&#45;&#45;6 -->
<g id="edge6" class="edge"><title>0&#45;&#45;6</title>
<path fill="none" stroke="black" d="M88.8194,-672.593C74.6237,-662.79 56.3748,-647.817 46,-630 32.4831,-606.787 28.4763,-575.431 27.349,-555.713"/>
</g>
<!-- 16 -->
<g id="node9" class="node"><title>16</title>
<ellipse fill="none" stroke="black" cx="475" cy="-19" rx="27" ry="18.3848"/>
<text text-anchor="middle" x="475" y="-15.4" font-family="Times Roman,serif" font-size="14.00">16</text>
</g>
<!-- 0&#45;&#45;16 -->
<g id="edge8" class="edge"><title>0&#45;&#45;16</title>
<path fill="none" stroke="black" d="M135.322,-680.278C219.242,-664.485 475,-610.338 475,-537 475,-537 475,-537 475,-167 475,-120.493 475,-65.7656 475,-37.6905"/>
</g>
<!-- 1&#45;&#45;2 -->
<g id="edge14" class="edge"><title>1&#45;&#45;2</title>
<path fill="none" stroke="black" d="M94.4804,-594.208C103.481,-582.098 115.579,-565.821 124.569,-553.725"/>
</g>
<!-- 1&#45;&#45;6 -->
<g id="edge10" class="edge"><title>1&#45;&#45;6</title>
<path fill="none" stroke="black" d="M69.5196,-594.208C60.5186,-582.098 48.4207,-565.821 39.431,-553.725"/>
</g>
<!-- 7 -->
<g id="node12" class="node"><title>7</title>
<ellipse fill="none" stroke="black" cx="139" cy="-241" rx="27" ry="18.3848"/>
<text text-anchor="middle" x="139" y="-237.4" font-family="Times Roman,serif" font-size="14.00">7</text>
</g>
<!-- 1&#45;&#45;7 -->
<g id="edge12" class="edge"><title>1&#45;&#45;7</title>
<path fill="none" stroke="black" d="M82,-592.309C82,-564.234 82,-509.507 82,-463 82,-463 82,-463 82,-389 82,-338.612 111.127,-284.635 127.739,-257.948"/>
</g>
<!-- 2&#45;&#45;7 -->
<g id="edge16" class="edge"><title>2&#45;&#45;7</title>
<path fill="none" stroke="black" d="M137.125,-518.484C137.484,-465.326 138.516,-312.658 138.875,-259.509"/>
</g>
<!-- 3 -->
<g id="node16" class="node"><title>3</title>
<ellipse fill="none" stroke="black" cx="234" cy="-463" rx="27" ry="18.3848"/>
<text text-anchor="middle" x="234" y="-459.4" font-family="Times Roman,serif" font-size="14.00">3</text>
</g>
<!-- 2&#45;&#45;3 -->
<g id="edge18" class="edge"><title>2&#45;&#45;3</title>
<path fill="none" stroke="black" d="M155.245,-523.081C172.587,-509.851 198.522,-490.066 215.837,-476.856"/>
</g>
<!-- 6&#45;&#45;7 -->
<g id="edge40" class="edge"><title>6&#45;&#45;7</title>
<path fill="none" stroke="black" d="M25.7755,-518.22C23.8769,-475.476 24.2416,-368.982 68,-296 79.626,-276.61 100.86,-261.54 117.088,-252.117"/>
</g>
<!-- 3&#45;&#45;16 -->
<g id="edge26" class="edge"><title>3&#45;&#45;16</title>
<path fill="none" stroke="black" d="M234,-444.309C234,-416.234 234,-361.507 234,-315 234,-315 234,-315 234,-167 234,-67.3269 385.541,-32.6668 448.288,-22.5875"/>
</g>
<!-- 3&#45;&#45;7 -->
<g id="edge20" class="edge"><title>3&#45;&#45;7</title>
<path fill="none" stroke="black" d="M226.386,-445.208C208.598,-403.64 164.474,-300.528 146.65,-258.877"/>
</g>
<!-- 4 -->
<g id="node19" class="node"><title>4</title>
<ellipse fill="none" stroke="black" cx="289" cy="-389" rx="27" ry="18.3848"/>
<text text-anchor="middle" x="289" y="-385.4" font-family="Times Roman,serif" font-size="14.00">4</text>
</g>
<!-- 3&#45;&#45;4 -->
<g id="edge22" class="edge"><title>3&#45;&#45;4</title>
<path fill="none" stroke="black" d="M246.48,-446.208C255.481,-434.098 267.579,-417.821 276.569,-405.725"/>
</g>
<!-- 15 -->
<g id="node21" class="node"><title>15</title>
<ellipse fill="none" stroke="black" cx="420" cy="-93" rx="27" ry="18.3848"/>
<text text-anchor="middle" x="420" y="-89.4" font-family="Times Roman,serif" font-size="14.00">15</text>
</g>
<!-- 3&#45;&#45;15 -->
<g id="edge24" class="edge"><title>3&#45;&#45;15</title>
<path fill="none" stroke="black" d="M259.71,-457.164C314.335,-443.081 437,-401.794 437,-315 437,-315 437,-315 437,-241 437,-194.187 428.502,-139.586 423.522,-111.612"/>
</g>
<!-- 4&#45;&#45;7 -->
<g id="edge30" class="edge"><title>4&#45;&#45;7</title>
<path fill="none" stroke="black" d="M273.512,-373.719C244.769,-345.359 183.477,-284.884 154.628,-256.42"/>
</g>
<!-- 4&#45;&#45;15 -->
<g id="edge34" class="edge"><title>4&#45;&#45;15</title>
<path fill="none" stroke="black" d="M302.199,-372.626C309.982,-362.162 319.378,-347.976 325,-334 343.901,-287.014 328.487,-269.521 346,-222 361.892,-178.877 391.46,-133.356 408.003,-109.619"/>
</g>
<!-- 5 -->
<g id="node24" class="node"><title>5</title>
<ellipse fill="none" stroke="black" cx="289" cy="-315" rx="27" ry="18.3848"/>
<text text-anchor="middle" x="289" y="-311.4" font-family="Times Roman,serif" font-size="14.00">5</text>
</g>
<!-- 4&#45;&#45;5 -->
<g id="edge28" class="edge"><title>4&#45;&#45;5</title>
<path fill="none" stroke="black" d="M289,-370.327C289,-359.109 289,-344.884 289,-333.667"/>
</g>
<!-- 11 -->
<g id="node27" class="node"><title>11</title>
<ellipse fill="none" stroke="black" cx="382" cy="-241" rx="27" ry="18.3848"/>
<text text-anchor="middle" x="382" y="-237.4" font-family="Times Roman,serif" font-size="14.00">11</text>
</g>
<!-- 4&#45;&#45;11 -->
<g id="edge32" class="edge"><title>4&#45;&#45;11</title>
<path fill="none" stroke="black" d="M310.174,-377.258C325.668,-367.599 346,-352.51 358,-334 372.876,-311.054 378.542,-279.34 380.693,-259.509"/>
</g>
<!-- 15&#45;&#45;16 -->
<g id="edge72" class="edge"><title>15&#45;&#45;16</title>
<path fill="none" stroke="black" d="M432.48,-76.2083C441.481,-64.0977 453.579,-47.8206 462.569,-35.7253"/>
</g>
<!-- 5&#45;&#45;7 -->
<g id="edge36" class="edge"><title>5&#45;&#45;7</title>
<path fill="none" stroke="black" d="M266.867,-304.081C238.507,-290.09 189.628,-265.976 161.224,-251.964"/>
</g>
<!-- 5&#45;&#45;11 -->
<g id="edge38" class="edge"><title>5&#45;&#45;11</title>
<path fill="none" stroke="black" d="M306.931,-300.732C323.4,-287.628 347.673,-268.314 364.124,-255.224"/>
</g>
<!-- 11&#45;&#45;15 -->
<g id="edge60" class="edge"><title>11&#45;&#45;15</title>
<path fill="none" stroke="black" d="M386.736,-222.555C394.018,-194.194 407.887,-140.178 415.204,-111.678"/>
</g>
<!-- 14 -->
<g id="node40" class="node"><title>14</title>
<ellipse fill="none" stroke="black" cx="530" cy="-167" rx="27" ry="18.3848"/>
<text text-anchor="middle" x="530" y="-163.4" font-family="Times Roman,serif" font-size="14.00">14</text>
</g>
<!-- 11&#45;&#45;14 -->
<g id="edge62" class="edge"><title>11&#45;&#45;14</title>
<path fill="none" stroke="black" d="M403.838,-230.081C431.82,-216.09 480.048,-191.976 508.072,-177.964"/>
</g>
<!-- 8 -->
<g id="node32" class="node"><title>8</title>
<ellipse fill="none" stroke="black" cx="613" cy="-463" rx="27" ry="18.3848"/>
<text text-anchor="middle" x="613" y="-459.4" font-family="Times Roman,serif" font-size="14.00">8</text>
</g>
<!-- 8&#45;&#45;16 -->
<g id="edge46" class="edge"><title>8&#45;&#45;16</title>
<path fill="none" stroke="black" d="M633.356,-450.741C667.593,-428.394 733,-377.52 733,-315 733,-315 733,-315 733,-167 733,-61.4 568.363,-30.0698 502.123,-21.7379"/>
</g>
<!-- 10 -->
<g id="node34" class="node"><title>10</title>
<ellipse fill="none" stroke="black" cx="530" cy="-315" rx="27" ry="18.3848"/>
<text text-anchor="middle" x="530" y="-311.4" font-family="Times Roman,serif" font-size="14.00">10</text>
</g>
<!-- 8&#45;&#45;10 -->
<g id="edge42" class="edge"><title>8&#45;&#45;10</title>
<path fill="none" stroke="black" d="M601.146,-445.97C593.87,-435.26 584.534,-421.045 577,-408 562.252,-382.465 547.231,-351.744 538.263,-332.793"/>
</g>
<!-- 9 -->
<g id="node36" class="node"><title>9</title>
<ellipse fill="none" stroke="black" cx="613" cy="-389" rx="27" ry="18.3848"/>
<text text-anchor="middle" x="613" y="-385.4" font-family="Times Roman,serif" font-size="14.00">9</text>
</g>
<!-- 8&#45;&#45;9 -->
<g id="edge44" class="edge"><title>8&#45;&#45;9</title>
<path fill="none" stroke="black" d="M613,-444.327C613,-433.109 613,-418.884 613,-407.667"/>
</g>
<!-- 10&#45;&#45;11 -->
<g id="edge56" class="edge"><title>10&#45;&#45;11</title>
<path fill="none" stroke="black" d="M508.162,-304.081C480.18,-290.09 431.952,-265.976 403.928,-251.964"/>
</g>
<!-- 10&#45;&#45;14 -->
<g id="edge58" class="edge"><title>10&#45;&#45;14</title>
<path fill="none" stroke="black" d="M530,-296.256C530,-267.787 530,-213.97 530,-185.592"/>
</g>
<!-- 9&#45;&#45;10 -->
<g id="edge48" class="edge"><title>9&#45;&#45;10</title>
<path fill="none" stroke="black" d="M596.204,-374.025C581.709,-361.102 560.892,-342.543 546.488,-329.7"/>
</g>
<!-- 9&#45;&#45;14 -->
<g id="edge50" class="edge"><title>9&#45;&#45;14</title>
<path fill="none" stroke="black" d="M606.208,-370.833C590.605,-329.1 552.351,-226.781 536.77,-185.107"/>
</g>
<!-- 12 -->
<g id="node42" class="node"><title>12</title>
<ellipse fill="none" stroke="black" cx="640" cy="-315" rx="27" ry="18.3848"/>
<text text-anchor="middle" x="640" y="-311.4" font-family="Times Roman,serif" font-size="14.00">12</text>
</g>
<!-- 9&#45;&#45;12 -->
<g id="edge52" class="edge"><title>9&#45;&#45;12</title>
<path fill="none" stroke="black" d="M619.674,-370.708C623.859,-359.238 629.232,-344.512 633.403,-333.082"/>
</g>
<!-- 13 -->
<g id="node44" class="node"><title>13</title>
<ellipse fill="none" stroke="black" cx="678" cy="-241" rx="27" ry="18.3848"/>
<text text-anchor="middle" x="678" y="-237.4" font-family="Times Roman,serif" font-size="14.00">13</text>
</g>
<!-- 9&#45;&#45;13 -->
<g id="edge54" class="edge"><title>9&#45;&#45;13</title>
<path fill="none" stroke="black" d="M634.158,-377.105C648.84,-367.557 667.269,-352.677 676,-334 687.148,-310.153 684.91,-278.971 681.814,-259.462"/>
</g>
<!-- 14&#45;&#45;16 -->
<g id="edge70" class="edge"><title>14&#45;&#45;16</title>
<path fill="none" stroke="black" d="M523.256,-148.852C512.7,-120.447 492.389,-65.7925 481.799,-37.2961"/>
</g>
<!-- 14&#45;&#45;15 -->
<g id="edge68" class="edge"><title>14&#45;&#45;15</title>
<path fill="none" stroke="black" d="M510.587,-153.941C490.604,-140.497 459.636,-119.664 439.589,-106.178"/>
</g>
<!-- 12&#45;&#45;14 -->
<g id="edge64" class="edge"><title>12&#45;&#45;14</title>
<path fill="none" stroke="black" d="M634.764,-296.481C628.522,-276.643 616.663,-244.922 599,-222 585.536,-204.526 565.387,-189.308 550.333,-179.337"/>
</g>
<!-- 12&#45;&#45;13 -->
<g id="edge66" class="edge"><title>12&#45;&#45;13</title>
<path fill="none" stroke="black" d="M649.005,-297.463C655.019,-285.752 662.9,-270.405 668.927,-258.668"/>
</g>
</g>
</svg>
