<?xml version="1.0" encoding="UTF-8" standalone="no"?>
<!DOCTYPE svg PUBLIC "-//W3C//DTD SVG 1.1//EN"
 "http://www.w3.org/Graphics/SVG/1.1/DTD/svg11.dtd">
<!-- Generated by graphviz version 2.26.3 (20100126.1600)
 -->
<!-- Title: schedule Pages: 1 -->
<svg width="2317pt" height="2302pt"
 viewBox="0.00 0.00 2316.58 2302.32" xmlns="http://www.w3.org/2000/svg" xmlns:xlink="http://www.w3.org/1999/xlink">
<g id="graph1" class="graph" transform="scale(1 1) rotate(0) translate(4 2298.32)">
<title>schedule</title>
<polygon fill="white" stroke="white" points="-4,5 -4,-2298.32 2313.58,-2298.32 2313.58,5 -4,5"/>
<!-- 0 -->
<g id="node1" class="node"><title>0</title>
<ellipse fill="none" stroke="red" cx="588.035" cy="-171.672" rx="27" ry="18.3848"/>
<text text-anchor="middle" x="588.035" y="-168.072" font-family="Times Roman,serif" font-size="14.00">0</text>
</g>
<!-- 86 -->
<g id="node5" class="node"><title>86</title>
<ellipse fill="none" stroke="black" cx="659.797" cy="-133.332" rx="27" ry="18.3848"/>
<text text-anchor="middle" x="659.797" y="-129.732" font-family="Times Roman,serif" font-size="14.00">86</text>
</g>
<!-- 0&#45;&gt;86 -->
<g id="edge4" class="edge"><title>0&#45;&gt;86</title>
<path fill="none" stroke="black" d="M609.566,-160.169C615.81,-156.833 622.749,-153.125 629.426,-149.558"/>
<polygon fill="black" stroke="black" points="631.11,-152.626 638.281,-144.827 627.811,-146.452 631.11,-152.626"/>
</g>
<!-- 2 -->
<g id="node2" class="node"><title>2</title>
<ellipse fill="none" stroke="black" cx="519.691" cy="-215.764" rx="27" ry="18.3848"/>
<text text-anchor="middle" x="519.691" y="-212.164" font-family="Times Roman,serif" font-size="14.00">2</text>
</g>
<!-- 2&#45;&gt;0 -->
<g id="edge2" class="edge"><title>2&#45;&gt;0</title>
<path fill="none" stroke="black" d="M539.459,-203.011C545.638,-199.024 552.587,-194.541 559.255,-190.239"/>
<polygon fill="black" stroke="black" points="561.569,-192.912 568.075,-184.549 557.774,-187.029 561.569,-192.912"/>
</g>
<!-- 83 -->
<g id="node7" class="node"><title>83</title>
<ellipse fill="none" stroke="black" cx="734.383" cy="-100.887" rx="27" ry="18.3848"/>
<text text-anchor="middle" x="734.383" y="-97.2866" font-family="Times Roman,serif" font-size="14.00">83</text>
</g>
<!-- 86&#45;&gt;83 -->
<g id="edge6" class="edge"><title>86&#45;&gt;83</title>
<path fill="none" stroke="black" d="M682.987,-123.244C689.078,-120.594 695.758,-117.688 702.228,-114.874"/>
<polygon fill="black" stroke="black" points="703.689,-118.055 711.463,-110.857 700.896,-111.636 703.689,-118.055"/>
</g>
<!-- 80 -->
<g id="node9" class="node"><title>80</title>
<ellipse fill="none" stroke="black" cx="810.931" cy="-73.4186" rx="27" ry="18.3848"/>
<text text-anchor="middle" x="810.931" y="-69.8186" font-family="Times Roman,serif" font-size="14.00">80</text>
</g>
<!-- 83&#45;&gt;80 -->
<g id="edge8" class="edge"><title>83&#45;&gt;80</title>
<path fill="none" stroke="black" d="M758.603,-92.1956C764.524,-90.0708 770.967,-87.759 777.242,-85.5071"/>
<polygon fill="black" stroke="black" points="778.638,-88.725 786.868,-82.0531 776.273,-82.1363 778.638,-88.725"/>
</g>
<!-- 84 -->
<g id="node11" class="node"><title>84</title>
<ellipse fill="none" stroke="black" cx="889.1" cy="-50.9368" rx="27" ry="18.3848"/>
<text text-anchor="middle" x="889.1" y="-47.3368" font-family="Times Roman,serif" font-size="14.00">84</text>
</g>
<!-- 80&#45;&gt;84 -->
<g id="edge10" class="edge"><title>80&#45;&gt;84</title>
<path fill="none" stroke="black" d="M836.094,-66.1815C841.813,-64.5368 847.988,-62.7607 854.035,-61.0218"/>
<polygon fill="black" stroke="black" points="855.341,-64.2881 863.984,-58.1604 853.406,-57.5608 855.341,-64.2881"/>
</g>
<!-- 77 -->
<g id="node13" class="node"><title>77</title>
<ellipse fill="none" stroke="black" cx="968.771" cy="-34.4768" rx="27" ry="18.3848"/>
<text text-anchor="middle" x="968.771" y="-30.8768" font-family="Times Roman,serif" font-size="14.00">77</text>
</g>
<!-- 84&#45;&gt;77 -->
<g id="edge12" class="edge"><title>84&#45;&gt;77</title>
<path fill="none" stroke="black" d="M915.187,-45.5471C920.886,-44.3699 927.012,-43.1043 933.013,-41.8644"/>
<polygon fill="black" stroke="black" points="933.812,-45.2732 942.897,-39.8223 932.396,-38.418 933.812,-45.2732"/>
</g>
<!-- 78 -->
<g id="node15" class="node"><title>78</title>
<ellipse fill="none" stroke="black" cx="1049.46" cy="-23.9543" rx="27" ry="18.3848"/>
<text text-anchor="middle" x="1049.46" y="-20.3543" font-family="Times Roman,serif" font-size="14.00">78</text>
</g>
<!-- 77&#45;&gt;78 -->
<g id="edge14" class="edge"><title>77&#45;&gt;78</title>
<path fill="none" stroke="black" d="M995.638,-30.9729C1001.08,-30.263 1006.9,-29.5048 1012.61,-28.7589"/>
<polygon fill="black" stroke="black" points="1013.24,-32.2067 1022.71,-27.4428 1012.34,-25.2655 1013.24,-32.2067"/>
</g>
<!-- 85 -->
<g id="node17" class="node"><title>85</title>
<ellipse fill="none" stroke="black" cx="1130.71" cy="-19.5" rx="27" ry="18.3848"/>
<text text-anchor="middle" x="1130.71" y="-15.9" font-family="Times Roman,serif" font-size="14.00">85</text>
</g>
<!-- 78&#45;&gt;85 -->
<g id="edge16" class="edge"><title>78&#45;&gt;85</title>
<path fill="none" stroke="black" d="M1076.51,-22.4711C1081.99,-22.1705 1087.85,-21.8496 1093.61,-21.5339"/>
<polygon fill="black" stroke="black" points="1093.98,-25.019 1103.77,-20.9767 1093.59,-18.0295 1093.98,-25.019"/>
</g>
<!-- 81 -->
<g id="node19" class="node"><title>81</title>
<ellipse fill="none" stroke="black" cx="1212.08" cy="-20.4705" rx="27" ry="18.3848"/>
<text text-anchor="middle" x="1212.08" y="-16.8705" font-family="Times Roman,serif" font-size="14.00">81</text>
</g>
<!-- 85&#45;&gt;81 -->
<g id="edge18" class="edge"><title>85&#45;&gt;81</title>
<path fill="none" stroke="black" d="M1157.8,-19.8232C1163.23,-19.888 1169.03,-19.9571 1174.74,-20.0252"/>
<polygon fill="black" stroke="black" points="1174.78,-23.5258 1184.82,-20.1454 1174.86,-16.5263 1174.78,-23.5258"/>
</g>
<!-- 76 -->
<g id="node21" class="node"><title>76</title>
<ellipse fill="none" stroke="black" cx="1293.11" cy="-27.9339" rx="27" ry="18.3848"/>
<text text-anchor="middle" x="1293.11" y="-24.3339" font-family="Times Roman,serif" font-size="14.00">76</text>
</g>
<!-- 81&#45;&gt;76 -->
<g id="edge20" class="edge"><title>81&#45;&gt;76</title>
<path fill="none" stroke="black" d="M1239.06,-22.9557C1244.53,-23.4592 1250.36,-23.997 1256.11,-24.526"/>
<polygon fill="black" stroke="black" points="1255.96,-28.0275 1266.24,-25.4595 1256.61,-21.057 1255.96,-28.0275"/>
</g>
<!-- 75 -->
<g id="node23" class="node"><title>75</title>
<ellipse fill="none" stroke="black" cx="1373.38" cy="-41.2481" rx="27" ry="18.3848"/>
<text text-anchor="middle" x="1373.38" y="-37.6481" font-family="Times Roman,serif" font-size="14.00">75</text>
</g>
<!-- 76&#45;&gt;75 -->
<g id="edge22" class="edge"><title>76&#45;&gt;75</title>
<path fill="none" stroke="black" d="M1319.39,-32.2934C1325.07,-33.236 1331.18,-34.2485 1337.17,-35.2416"/>
<polygon fill="black" stroke="black" points="1336.6,-38.6951 1347.04,-36.8787 1337.74,-31.7895 1336.6,-38.6951"/>
</g>
<!-- 82 -->
<g id="node25" class="node"><title>82</title>
<ellipse fill="none" stroke="black" cx="1452.7" cy="-59.3845" rx="27" ry="18.3848"/>
<text text-anchor="middle" x="1452.7" y="-55.7845" font-family="Times Roman,serif" font-size="14.00">82</text>
</g>
<!-- 75&#45;&gt;82 -->
<g id="edge24" class="edge"><title>75&#45;&gt;82</title>
<path fill="none" stroke="black" d="M1399.35,-47.1866C1405.03,-48.4838 1411.12,-49.8783 1417.1,-51.2444"/>
<polygon fill="black" stroke="black" points="1416.41,-54.6775 1426.94,-53.4945 1417.97,-47.8536 1416.41,-54.6775"/>
</g>
<!-- 72 -->
<g id="node27" class="node"><title>72</title>
<ellipse fill="none" stroke="black" cx="1530.39" cy="-83.6318" rx="27" ry="18.3848"/>
<text text-anchor="middle" x="1530.39" y="-80.0318" font-family="Times Roman,serif" font-size="14.00">72</text>
</g>
<!-- 82&#45;&gt;72 -->
<g id="edge26" class="edge"><title>82&#45;&gt;72</title>
<path fill="none" stroke="black" d="M1477.28,-67.0565C1483.23,-68.9139 1489.7,-70.9333 1496.02,-72.9028"/>
<polygon fill="black" stroke="black" points="1495.11,-76.2882 1505.7,-75.9265 1497.2,-69.6061 1495.11,-76.2882"/>
</g>
<!-- 73 -->
<g id="node29" class="node"><title>73</title>
<ellipse fill="none" stroke="black" cx="1606.01" cy="-113.76" rx="27" ry="18.3848"/>
<text text-anchor="middle" x="1606.01" y="-110.16" font-family="Times Roman,serif" font-size="14.00">73</text>
</g>
<!-- 72&#45;&gt;73 -->
<g id="edge28" class="edge"><title>72&#45;&gt;73</title>
<path fill="none" stroke="black" d="M1553.9,-92.9994C1559.88,-95.38 1566.41,-97.9831 1572.77,-100.517"/>
<polygon fill="black" stroke="black" points="1571.93,-103.948 1582.51,-104.398 1574.52,-97.4454 1571.93,-103.948"/>
</g>
<!-- 79 -->
<g id="node31" class="node"><title>79</title>
<ellipse fill="none" stroke="black" cx="1678.68" cy="-150.362" rx="27" ry="18.3848"/>
<text text-anchor="middle" x="1678.68" y="-146.762" font-family="Times Roman,serif" font-size="14.00">79</text>
</g>
<!-- 73&#45;&gt;79 -->
<g id="edge30" class="edge"><title>73&#45;&gt;79</title>
<path fill="none" stroke="black" d="M1627.81,-124.742C1634.14,-127.927 1641.16,-131.466 1647.93,-134.871"/>
<polygon fill="black" stroke="black" points="1646.39,-138.015 1656.89,-139.388 1649.54,-131.764 1646.39,-138.015"/>
</g>
<!-- 71 -->
<g id="node33" class="node"><title>71</title>
<ellipse fill="none" stroke="black" cx="1748.97" cy="-191.277" rx="27" ry="18.3848"/>
<text text-anchor="middle" x="1748.97" y="-187.677" font-family="Times Roman,serif" font-size="14.00">71</text>
</g>
<!-- 79&#45;&gt;71 -->
<g id="edge32" class="edge"><title>79&#45;&gt;71</title>
<path fill="none" stroke="black" d="M1699.39,-162.416C1705.62,-166.047 1712.59,-170.104 1719.29,-174.003"/>
<polygon fill="black" stroke="black" points="1717.76,-177.161 1728.16,-179.167 1721.28,-171.111 1717.76,-177.161"/>
</g>
<!-- 74 -->
<g id="node35" class="node"><title>74</title>
<ellipse fill="none" stroke="black" cx="1815.54" cy="-237.942" rx="27" ry="18.3848"/>
<text text-anchor="middle" x="1815.54" y="-234.342" font-family="Times Roman,serif" font-size="14.00">74</text>
</g>
<!-- 71&#45;&gt;74 -->
<g id="edge34" class="edge"><title>71&#45;&gt;74</title>
<path fill="none" stroke="black" d="M1767.86,-204.525C1774.13,-208.92 1781.25,-213.907 1788.03,-218.662"/>
<polygon fill="black" stroke="black" points="1786.16,-221.626 1796.36,-224.5 1790.18,-215.894 1786.16,-221.626"/>
</g>
<!-- 68 -->
<g id="node37" class="node"><title>68</title>
<ellipse fill="none" stroke="black" cx="1878.35" cy="-289.458" rx="27" ry="18.3848"/>
<text text-anchor="middle" x="1878.35" y="-285.858" font-family="Times Roman,serif" font-size="14.00">68</text>
</g>
<!-- 74&#45;&gt;68 -->
<g id="edge36" class="edge"><title>74&#45;&gt;68</title>
<path fill="none" stroke="black" d="M1833.04,-252.292C1839.16,-257.316 1846.17,-263.066 1852.82,-268.517"/>
<polygon fill="black" stroke="black" points="1851,-271.55 1860.95,-275.185 1855.44,-266.137 1851,-271.55"/>
</g>
<!-- 64 -->
<g id="node39" class="node"><title>64</title>
<ellipse fill="none" stroke="black" cx="1938.59" cy="-343.936" rx="27" ry="18.3848"/>
<text text-anchor="middle" x="1938.59" y="-340.336" font-family="Times Roman,serif" font-size="14.00">64</text>
</g>
<!-- 68&#45;&gt;64 -->
<g id="edge38" class="edge"><title>68&#45;&gt;64</title>
<path fill="none" stroke="black" d="M1894.81,-304.344C1900.92,-309.869 1907.98,-316.255 1914.62,-322.262"/>
<polygon fill="black" stroke="black" points="1912.38,-324.956 1922.15,-329.068 1917.08,-319.764 1912.38,-324.956"/>
</g>
<!-- 70 -->
<g id="node41" class="node"><title>70</title>
<ellipse fill="none" stroke="black" cx="1995.56" cy="-401.888" rx="27" ry="18.3848"/>
<text text-anchor="middle" x="1995.56" y="-398.288" font-family="Times Roman,serif" font-size="14.00">70</text>
</g>
<!-- 64&#45;&gt;70 -->
<g id="edge40" class="edge"><title>64&#45;&gt;70</title>
<path fill="none" stroke="black" d="M1953.85,-359.466C1959.73,-365.443 1966.57,-372.399 1972.99,-378.93"/>
<polygon fill="black" stroke="black" points="1970.74,-381.638 1980.25,-386.315 1975.73,-376.73 1970.74,-381.638"/>
</g>
<!-- 69 -->
<g id="node43" class="node"><title>69</title>
<ellipse fill="none" stroke="black" cx="2047.08" cy="-464.76" rx="27" ry="18.3848"/>
<text text-anchor="middle" x="2047.08" y="-461.16" font-family="Times Roman,serif" font-size="14.00">69</text>
</g>
<!-- 70&#45;&gt;69 -->
<g id="edge42" class="edge"><title>70&#45;&gt;69</title>
<path fill="none" stroke="black" d="M2008.82,-418.079C2014.43,-424.919 2021.08,-433.03 2027.24,-440.556"/>
<polygon fill="black" stroke="black" points="2024.63,-442.889 2033.68,-448.405 2030.04,-438.452 2024.63,-442.889"/>
</g>
<!-- 66 -->
<g id="node45" class="node"><title>66</title>
<ellipse fill="none" stroke="black" cx="2094.37" cy="-530.854" rx="27" ry="18.3848"/>
<text text-anchor="middle" x="2094.37" y="-527.254" font-family="Times Roman,serif" font-size="14.00">66</text>
</g>
<!-- 69&#45;&gt;66 -->
<g id="edge44" class="edge"><title>69&#45;&gt;66</title>
<path fill="none" stroke="black" d="M2059.01,-481.438C2064.29,-488.818 2070.62,-497.654 2076.45,-505.801"/>
<polygon fill="black" stroke="black" points="2073.61,-507.856 2082.28,-513.951 2079.31,-503.782 2073.61,-507.856"/>
</g>
<!-- 63 -->
<g id="node47" class="node"><title>63</title>
<ellipse fill="none" stroke="black" cx="2136.83" cy="-600.198" rx="27" ry="18.3848"/>
<text text-anchor="middle" x="2136.83" y="-596.598" font-family="Times Roman,serif" font-size="14.00">63</text>
</g>
<!-- 66&#45;&gt;63 -->
<g id="edge46" class="edge"><title>66&#45;&gt;63</title>
<path fill="none" stroke="black" d="M2104.87,-547.995C2109.68,-555.854 2115.49,-565.343 2120.83,-574.063"/>
<polygon fill="black" stroke="black" points="2117.95,-576.072 2126.16,-582.773 2123.92,-572.416 2117.95,-576.072"/>
</g>
<!-- 67 -->
<g id="node49" class="node"><title>67</title>
<ellipse fill="none" stroke="black" cx="2173.44" cy="-672.807" rx="27" ry="18.3848"/>
<text text-anchor="middle" x="2173.44" y="-669.207" font-family="Times Roman,serif" font-size="14.00">67</text>
</g>
<!-- 63&#45;&gt;67 -->
<g id="edge48" class="edge"><title>63&#45;&gt;67</title>
<path fill="none" stroke="black" d="M2145.69,-617.775C2149.98,-626.274 2155.22,-636.659 2159.98,-646.108"/>
<polygon fill="black" stroke="black" points="2156.91,-647.788 2164.54,-655.141 2163.16,-644.636 2156.91,-647.788"/>
</g>
<!-- 65 -->
<g id="node51" class="node"><title>65</title>
<ellipse fill="none" stroke="black" cx="2207.05" cy="-746.892" rx="27" ry="18.3848"/>
<text text-anchor="middle" x="2207.05" y="-743.292" font-family="Times Roman,serif" font-size="14.00">65</text>
</g>
<!-- 67&#45;&gt;65 -->
<g id="edge50" class="edge"><title>67&#45;&gt;65</title>
<path fill="none" stroke="black" d="M2181.58,-690.741C2185.54,-699.477 2190.39,-710.166 2194.79,-719.864"/>
<polygon fill="black" stroke="black" points="2191.67,-721.462 2198.99,-729.123 2198.04,-718.571 2191.67,-721.462"/>
</g>
<!-- 62 -->
<g id="node53" class="node"><title>62</title>
<ellipse fill="none" stroke="black" cx="2233.66" cy="-823.806" rx="27" ry="18.3848"/>
<text text-anchor="middle" x="2233.66" y="-820.206" font-family="Times Roman,serif" font-size="14.00">62</text>
</g>
<!-- 65&#45;&gt;62 -->
<g id="edge52" class="edge"><title>65&#45;&gt;62</title>
<path fill="none" stroke="black" d="M2213.35,-765.12C2216.57,-774.411 2220.55,-785.905 2224.13,-796.251"/>
<polygon fill="black" stroke="black" points="2220.82,-797.404 2227.4,-805.709 2227.44,-795.115 2220.82,-797.404"/>
</g>
<!-- 60 -->
<g id="node55" class="node"><title>60</title>
<ellipse fill="none" stroke="black" cx="2252.75" cy="-902.916" rx="27" ry="18.3848"/>
<text text-anchor="middle" x="2252.75" y="-899.316" font-family="Times Roman,serif" font-size="14.00">60</text>
</g>
<!-- 62&#45;&gt;60 -->
<g id="edge54" class="edge"><title>62&#45;&gt;60</title>
<path fill="none" stroke="black" d="M2238.09,-842.154C2240.41,-851.77 2243.3,-863.76 2245.91,-874.542"/>
<polygon fill="black" stroke="black" points="2242.54,-875.493 2248.28,-884.393 2249.34,-873.851 2242.54,-875.493"/>
</g>
<!-- 58 -->
<g id="node57" class="node"><title>58</title>
<ellipse fill="none" stroke="black" cx="2268.8" cy="-982.696" rx="27" ry="18.3848"/>
<text text-anchor="middle" x="2268.8" y="-979.096" font-family="Times Roman,serif" font-size="14.00">58</text>
</g>
<!-- 60&#45;&gt;58 -->
<g id="edge56" class="edge"><title>60&#45;&gt;58</title>
<path fill="none" stroke="black" d="M2256.48,-921.419C2258.44,-931.187 2260.89,-943.383 2263.09,-954.317"/>
<polygon fill="black" stroke="black" points="2259.7,-955.179 2265.1,-964.293 2266.56,-953.799 2259.7,-955.179"/>
</g>
<!-- 55 -->
<g id="node59" class="node"><title>55</title>
<ellipse fill="none" stroke="black" cx="2278.01" cy="-1063.58" rx="27" ry="18.3848"/>
<text text-anchor="middle" x="2278.01" y="-1059.98" font-family="Times Roman,serif" font-size="14.00">55</text>
</g>
<!-- 58&#45;&gt;55 -->
<g id="edge58" class="edge"><title>58&#45;&gt;55</title>
<path fill="none" stroke="black" d="M2270.94,-1001.46C2272.07,-1011.36 2273.47,-1023.72 2274.74,-1034.81"/>
<polygon fill="black" stroke="black" points="2271.28,-1035.38 2275.89,-1044.92 2278.23,-1034.59 2271.28,-1035.38"/>
</g>
<!-- 61 -->
<g id="node61" class="node"><title>61</title>
<ellipse fill="none" stroke="black" cx="2280.58" cy="-1144.94" rx="27" ry="18.3848"/>
<text text-anchor="middle" x="2280.58" y="-1141.34" font-family="Times Roman,serif" font-size="14.00">61</text>
</g>
<!-- 55&#45;&gt;61 -->
<g id="edge60" class="edge"><title>55&#45;&gt;61</title>
<path fill="none" stroke="black" d="M2278.61,-1082.45C2278.92,-1092.41 2279.31,-1104.85 2279.67,-1116"/>
<polygon fill="black" stroke="black" points="2276.17,-1116.29 2279.99,-1126.17 2283.17,-1116.07 2276.17,-1116.29"/>
</g>
<!-- 53 -->
<g id="node63" class="node"><title>53</title>
<ellipse fill="none" stroke="black" cx="2276.58" cy="-1226.2" rx="27" ry="18.3848"/>
<text text-anchor="middle" x="2276.58" y="-1222.6" font-family="Times Roman,serif" font-size="14.00">53</text>
</g>
<!-- 61&#45;&gt;53 -->
<g id="edge62" class="edge"><title>61&#45;&gt;53</title>
<path fill="none" stroke="black" d="M2279.65,-1163.79C2279.16,-1173.74 2278.55,-1186.16 2278.01,-1197.3"/>
<polygon fill="black" stroke="black" points="2274.5,-1197.3 2277.51,-1207.46 2281.49,-1197.64 2274.5,-1197.3"/>
</g>
<!-- 57 -->
<g id="node65" class="node"><title>57</title>
<ellipse fill="none" stroke="black" cx="2266.68" cy="-1306.9" rx="27" ry="18.3848"/>
<text text-anchor="middle" x="2266.68" y="-1303.3" font-family="Times Roman,serif" font-size="14.00">57</text>
</g>
<!-- 53&#45;&gt;57 -->
<g id="edge64" class="edge"><title>53&#45;&gt;57</title>
<path fill="none" stroke="black" d="M2274.29,-1244.92C2273.08,-1254.8 2271.56,-1267.14 2270.2,-1278.2"/>
<polygon fill="black" stroke="black" points="2266.71,-1277.94 2268.97,-1288.29 2273.66,-1278.79 2266.71,-1277.94"/>
</g>
<!-- 59 -->
<g id="node67" class="node"><title>59</title>
<ellipse fill="none" stroke="black" cx="2252.19" cy="-1386.89" rx="27" ry="18.3848"/>
<text text-anchor="middle" x="2252.19" y="-1383.29" font-family="Times Roman,serif" font-size="14.00">59</text>
</g>
<!-- 57&#45;&gt;59 -->
<g id="edge66" class="edge"><title>57&#45;&gt;59</title>
<path fill="none" stroke="black" d="M2263.32,-1325.45C2261.55,-1335.25 2259.33,-1347.47 2257.35,-1358.44"/>
<polygon fill="black" stroke="black" points="2253.87,-1357.97 2255.54,-1368.44 2260.76,-1359.22 2253.87,-1357.97"/>
</g>
<!-- 54 -->
<g id="node69" class="node"><title>54</title>
<ellipse fill="none" stroke="black" cx="2233.36" cy="-1466" rx="27" ry="18.3848"/>
<text text-anchor="middle" x="2233.36" y="-1462.4" font-family="Times Roman,serif" font-size="14.00">54</text>
</g>
<!-- 59&#45;&gt;54 -->
<g id="edge68" class="edge"><title>59&#45;&gt;54</title>
<path fill="none" stroke="black" d="M2247.83,-1405.24C2245.54,-1414.85 2242.68,-1426.84 2240.11,-1437.62"/>
<polygon fill="black" stroke="black" points="2236.68,-1436.94 2237.77,-1447.47 2243.49,-1438.56 2236.68,-1436.94"/>
</g>
<!-- 51 -->
<g id="node71" class="node"><title>51</title>
<ellipse fill="none" stroke="black" cx="2206.6" cy="-1542.79" rx="27" ry="18.3848"/>
<text text-anchor="middle" x="2206.6" y="-1539.19" font-family="Times Roman,serif" font-size="14.00">51</text>
</g>
<!-- 54&#45;&gt;51 -->
<g id="edge70" class="edge"><title>54&#45;&gt;51</title>
<path fill="none" stroke="black" d="M2227.02,-1484.2C2223.78,-1493.47 2219.78,-1504.95 2216.18,-1515.28"/>
<polygon fill="black" stroke="black" points="2212.88,-1514.13 2212.89,-1524.72 2219.49,-1516.43 2212.88,-1514.13"/>
</g>
<!-- 50 -->
<g id="node73" class="node"><title>50</title>
<ellipse fill="none" stroke="black" cx="2174.86" cy="-1617.64" rx="27" ry="18.3848"/>
<text text-anchor="middle" x="2174.86" y="-1614.04" font-family="Times Roman,serif" font-size="14.00">50</text>
</g>
<!-- 51&#45;&gt;50 -->
<g id="edge72" class="edge"><title>51&#45;&gt;50</title>
<path fill="none" stroke="black" d="M2198.91,-1560.91C2195.17,-1569.74 2190.59,-1580.53 2186.44,-1590.33"/>
<polygon fill="black" stroke="black" points="2183.15,-1589.11 2182.47,-1599.69 2189.6,-1591.85 2183.15,-1589.11"/>
</g>
<!-- 56 -->
<g id="node75" class="node"><title>56</title>
<ellipse fill="none" stroke="black" cx="2138" cy="-1690.09" rx="27" ry="18.3848"/>
<text text-anchor="middle" x="2138" y="-1686.49" font-family="Times Roman,serif" font-size="14.00">56</text>
</g>
<!-- 50&#45;&gt;56 -->
<g id="edge74" class="edge"><title>50&#45;&gt;56</title>
<path fill="none" stroke="black" d="M2165.94,-1635.18C2161.62,-1643.66 2156.35,-1654.02 2151.55,-1663.45"/>
<polygon fill="black" stroke="black" points="2148.38,-1661.96 2146.97,-1672.46 2154.62,-1665.14 2148.38,-1661.96"/>
</g>
<!-- 47 -->
<g id="node77" class="node"><title>47</title>
<ellipse fill="none" stroke="black" cx="2094.92" cy="-1758.99" rx="27" ry="18.3848"/>
<text text-anchor="middle" x="2094.92" y="-1755.39" font-family="Times Roman,serif" font-size="14.00">47</text>
</g>
<!-- 56&#45;&gt;47 -->
<g id="edge76" class="edge"><title>56&#45;&gt;47</title>
<path fill="none" stroke="black" d="M2127.35,-1707.12C2122.47,-1714.93 2116.57,-1724.36 2111.16,-1733.02"/>
<polygon fill="black" stroke="black" points="2108.08,-1731.34 2105.75,-1741.67 2114.02,-1735.05 2108.08,-1731.34"/>
</g>
<!-- 48 -->
<g id="node79" class="node"><title>48</title>
<ellipse fill="none" stroke="black" cx="2047.77" cy="-1825.08" rx="27" ry="18.3848"/>
<text text-anchor="middle" x="2047.77" y="-1821.48" font-family="Times Roman,serif" font-size="14.00">48</text>
</g>
<!-- 47&#45;&gt;48 -->
<g id="edge78" class="edge"><title>47&#45;&gt;48</title>
<path fill="none" stroke="black" d="M2083.02,-1775.66C2077.76,-1783.04 2071.46,-1791.88 2065.64,-1800.02"/>
<polygon fill="black" stroke="black" points="2062.79,-1798 2059.83,-1808.17 2068.49,-1802.07 2062.79,-1798"/>
</g>
<!-- 52 -->
<g id="node81" class="node"><title>52</title>
<ellipse fill="none" stroke="black" cx="1996.71" cy="-1888.24" rx="27" ry="18.3848"/>
<text text-anchor="middle" x="1996.71" y="-1884.64" font-family="Times Roman,serif" font-size="14.00">52</text>
</g>
<!-- 48&#45;&gt;52 -->
<g id="edge80" class="edge"><title>48&#45;&gt;52</title>
<path fill="none" stroke="black" d="M2034.62,-1841.34C2029.07,-1848.21 2022.48,-1856.36 2016.37,-1863.92"/>
<polygon fill="black" stroke="black" points="2013.56,-1861.83 2010,-1871.81 2019,-1866.23 2013.56,-1861.83"/>
</g>
<!-- 46 -->
<g id="node83" class="node"><title>46</title>
<ellipse fill="none" stroke="black" cx="1941.86" cy="-1948.13" rx="27" ry="18.3848"/>
<text text-anchor="middle" x="1941.86" y="-1944.53" font-family="Times Roman,serif" font-size="14.00">46</text>
</g>
<!-- 52&#45;&gt;46 -->
<g id="edge82" class="edge"><title>52&#45;&gt;46</title>
<path fill="none" stroke="black" d="M1982.3,-1903.97C1976.55,-1910.25 1969.81,-1917.61 1963.5,-1924.51"/>
<polygon fill="black" stroke="black" points="1960.54,-1922.55 1956.37,-1932.29 1965.7,-1927.28 1960.54,-1922.55"/>
</g>
<!-- 44 -->
<g id="node85" class="node"><title>44</title>
<ellipse fill="none" stroke="black" cx="1883.22" cy="-2004.4" rx="27" ry="18.3848"/>
<text text-anchor="middle" x="1883.22" y="-2000.8" font-family="Times Roman,serif" font-size="14.00">44</text>
</g>
<!-- 46&#45;&gt;44 -->
<g id="edge84" class="edge"><title>46&#45;&gt;44</title>
<path fill="none" stroke="black" d="M1926.14,-1963.21C1920.1,-1969.01 1913.06,-1975.77 1906.45,-1982.11"/>
<polygon fill="black" stroke="black" points="1903.77,-1979.83 1898.97,-1989.28 1908.61,-1984.88 1903.77,-1979.83"/>
</g>
<!-- 49 -->
<g id="node87" class="node"><title>49</title>
<ellipse fill="none" stroke="black" cx="1820.35" cy="-2056.01" rx="27" ry="18.3848"/>
<text text-anchor="middle" x="1820.35" y="-2052.41" font-family="Times Roman,serif" font-size="14.00">49</text>
</g>
<!-- 44&#45;&gt;49 -->
<g id="edge86" class="edge"><title>44&#45;&gt;49</title>
<path fill="none" stroke="black" d="M1865.7,-2018.78C1859.57,-2023.81 1852.55,-2029.57 1845.9,-2035.03"/>
<polygon fill="black" stroke="black" points="1843.27,-2032.66 1837.76,-2041.71 1847.71,-2038.07 1843.27,-2032.66"/>
</g>
<!-- 42 -->
<g id="node89" class="node"><title>42</title>
<ellipse fill="none" stroke="black" cx="1754.76" cy="-2104.28" rx="27" ry="18.3848"/>
<text text-anchor="middle" x="1754.76" y="-2100.68" font-family="Times Roman,serif" font-size="14.00">42</text>
</g>
<!-- 49&#45;&gt;42 -->
<g id="edge88" class="edge"><title>49&#45;&gt;42</title>
<path fill="none" stroke="black" d="M1801.73,-2069.71C1795.44,-2074.34 1788.3,-2079.6 1781.51,-2084.59"/>
<polygon fill="black" stroke="black" points="1779.18,-2081.96 1773.2,-2090.71 1783.32,-2087.6 1779.18,-2081.96"/>
</g>
<!-- 45 -->
<g id="node91" class="node"><title>45</title>
<ellipse fill="none" stroke="black" cx="1683.38" cy="-2143.54" rx="27" ry="18.3848"/>
<text text-anchor="middle" x="1683.38" y="-2139.94" font-family="Times Roman,serif" font-size="14.00">45</text>
</g>
<!-- 42&#45;&gt;45 -->
<g id="edge90" class="edge"><title>42&#45;&gt;45</title>
<path fill="none" stroke="black" d="M1733.34,-2116.06C1727.13,-2119.47 1720.23,-2123.27 1713.59,-2126.92"/>
<polygon fill="black" stroke="black" points="1711.85,-2123.88 1704.78,-2131.77 1715.23,-2130.02 1711.85,-2123.88"/>
</g>
<!-- 43 -->
<g id="node93" class="node"><title>43</title>
<ellipse fill="none" stroke="black" cx="1610.62" cy="-2180.1" rx="27" ry="18.3848"/>
<text text-anchor="middle" x="1610.62" y="-2176.5" font-family="Times Roman,serif" font-size="14.00">43</text>
</g>
<!-- 45&#45;&gt;43 -->
<g id="edge92" class="edge"><title>45&#45;&gt;43</title>
<path fill="none" stroke="black" d="M1661.55,-2154.51C1655.22,-2157.69 1648.18,-2161.23 1641.41,-2164.63"/>
<polygon fill="black" stroke="black" points="1639.8,-2161.52 1632.44,-2169.14 1642.94,-2167.78 1639.8,-2161.52"/>
</g>
<!-- 41 -->
<g id="node95" class="node"><title>41</title>
<ellipse fill="none" stroke="black" cx="1534.88" cy="-2209.99" rx="27" ry="18.3848"/>
<text text-anchor="middle" x="1534.88" y="-2206.39" font-family="Times Roman,serif" font-size="14.00">41</text>
</g>
<!-- 43&#45;&gt;41 -->
<g id="edge94" class="edge"><title>43&#45;&gt;41</title>
<path fill="none" stroke="black" d="M1587.07,-2189.4C1580.94,-2191.81 1574.23,-2194.46 1567.72,-2197.03"/>
<polygon fill="black" stroke="black" points="1566.43,-2193.78 1558.41,-2200.7 1569,-2200.29 1566.43,-2193.78"/>
</g>
<!-- 39 -->
<g id="node97" class="node"><title>39</title>
<ellipse fill="none" stroke="black" cx="1457.2" cy="-2234.4" rx="27" ry="18.3848"/>
<text text-anchor="middle" x="1457.2" y="-2230.8" font-family="Times Roman,serif" font-size="14.00">39</text>
</g>
<!-- 41&#45;&gt;39 -->
<g id="edge96" class="edge"><title>41&#45;&gt;39</title>
<path fill="none" stroke="black" d="M1510.3,-2217.71C1504.35,-2219.58 1497.88,-2221.62 1491.57,-2223.6"/>
<polygon fill="black" stroke="black" points="1490.38,-2220.31 1481.89,-2226.64 1492.48,-2226.98 1490.38,-2220.31"/>
</g>
<!-- 36 -->
<g id="node99" class="node"><title>36</title>
<ellipse fill="none" stroke="black" cx="1377.97" cy="-2252.99" rx="27" ry="18.3848"/>
<text text-anchor="middle" x="1377.97" y="-2249.39" font-family="Times Roman,serif" font-size="14.00">36</text>
</g>
<!-- 39&#45;&gt;36 -->
<g id="edge98" class="edge"><title>39&#45;&gt;36</title>
<path fill="none" stroke="black" d="M1431.26,-2240.49C1425.59,-2241.81 1419.5,-2243.24 1413.53,-2244.64"/>
<polygon fill="black" stroke="black" points="1412.64,-2241.26 1403.7,-2246.95 1414.23,-2248.07 1412.64,-2241.26"/>
</g>
<!-- 31 -->
<g id="node101" class="node"><title>31</title>
<ellipse fill="none" stroke="black" cx="1297.62" cy="-2265.98" rx="27" ry="18.3848"/>
<text text-anchor="middle" x="1297.62" y="-2262.38" font-family="Times Roman,serif" font-size="14.00">31</text>
</g>
<!-- 36&#45;&gt;31 -->
<g id="edge100" class="edge"><title>36&#45;&gt;31</title>
<path fill="none" stroke="black" d="M1351.66,-2257.24C1345.97,-2258.16 1339.86,-2259.15 1333.86,-2260.12"/>
<polygon fill="black" stroke="black" points="1333.3,-2256.66 1323.99,-2261.72 1334.42,-2263.57 1333.3,-2256.66"/>
</g>
<!-- 40 -->
<g id="node103" class="node"><title>40</title>
<ellipse fill="none" stroke="black" cx="1216.58" cy="-2273.4" rx="27" ry="18.3848"/>
<text text-anchor="middle" x="1216.58" y="-2269.8" font-family="Times Roman,serif" font-size="14.00">40</text>
</g>
<!-- 31&#45;&gt;40 -->
<g id="edge102" class="edge"><title>31&#45;&gt;40</title>
<path fill="none" stroke="black" d="M1270.63,-2268.45C1265.17,-2268.95 1259.33,-2269.48 1253.58,-2270.01"/>
<polygon fill="black" stroke="black" points="1253.09,-2266.54 1243.45,-2270.94 1253.73,-2273.51 1253.09,-2266.54"/>
</g>
<!-- 35 -->
<g id="node105" class="node"><title>35</title>
<ellipse fill="none" stroke="black" cx="1135.23" cy="-2274.82" rx="27" ry="18.3848"/>
<text text-anchor="middle" x="1135.23" y="-2271.22" font-family="Times Roman,serif" font-size="14.00">35</text>
</g>
<!-- 40&#45;&gt;35 -->
<g id="edge104" class="edge"><title>40&#45;&gt;35</title>
<path fill="none" stroke="black" d="M1189.49,-2273.87C1184.06,-2273.97 1178.27,-2274.07 1172.56,-2274.17"/>
<polygon fill="black" stroke="black" points="1172.41,-2270.67 1162.48,-2274.34 1172.54,-2277.67 1172.41,-2270.67"/>
</g>
<!-- 33 -->
<g id="node107" class="node"><title>33</title>
<ellipse fill="none" stroke="black" cx="1053.99" cy="-2270.41" rx="27" ry="18.3848"/>
<text text-anchor="middle" x="1053.99" y="-2266.81" font-family="Times Roman,serif" font-size="14.00">33</text>
</g>
<!-- 35&#45;&gt;33 -->
<g id="edge106" class="edge"><title>35&#45;&gt;33</title>
<path fill="none" stroke="black" d="M1108.18,-2273.35C1102.7,-2273.05 1096.84,-2272.73 1091.09,-2272.42"/>
<polygon fill="black" stroke="black" points="1091.1,-2268.92 1080.92,-2271.87 1090.72,-2275.91 1091.1,-2268.92"/>
</g>
<!-- 37 -->
<g id="node109" class="node"><title>37</title>
<ellipse fill="none" stroke="black" cx="973.319" cy="-2259.93" rx="27" ry="18.3848"/>
<text text-anchor="middle" x="973.319" y="-2256.33" font-family="Times Roman,serif" font-size="14.00">37</text>
</g>
<!-- 33&#45;&gt;37 -->
<g id="edge108" class="edge"><title>33&#45;&gt;37</title>
<path fill="none" stroke="black" d="M1027.13,-2266.92C1021.69,-2266.21 1015.87,-2265.46 1010.15,-2264.72"/>
<polygon fill="black" stroke="black" points="1010.43,-2261.22 1000.06,-2263.41 1009.53,-2268.16 1010.43,-2261.22"/>
</g>
<!-- 38 -->
<g id="node111" class="node"><title>38</title>
<ellipse fill="none" stroke="black" cx="893.621" cy="-2243.7" rx="27" ry="18.3848"/>
<text text-anchor="middle" x="893.621" y="-2240.1" font-family="Times Roman,serif" font-size="14.00">38</text>
</g>
<!-- 37&#45;&gt;38 -->
<g id="edge110" class="edge"><title>37&#45;&gt;38</title>
<path fill="none" stroke="black" d="M947.223,-2254.62C941.523,-2253.46 935.395,-2252.21 929.391,-2250.98"/>
<polygon fill="black" stroke="black" points="930.001,-2247.54 919.503,-2248.97 928.603,-2254.4 930.001,-2247.54"/>
</g>
<!-- 34 -->
<g id="node113" class="node"><title>34</title>
<ellipse fill="none" stroke="black" cx="815.216" cy="-2222.08" rx="27" ry="18.3848"/>
<text text-anchor="middle" x="815.216" y="-2218.48" font-family="Times Roman,serif" font-size="14.00">34</text>
</g>
<!-- 38&#45;&gt;34 -->
<g id="edge112" class="edge"><title>38&#45;&gt;34</title>
<path fill="none" stroke="black" d="M868.382,-2236.74C862.646,-2235.16 856.452,-2233.45 850.387,-2231.78"/>
<polygon fill="black" stroke="black" points="850.979,-2228.31 840.408,-2229.03 849.118,-2235.06 850.979,-2228.31"/>
</g>
<!-- 30 -->
<g id="node115" class="node"><title>30</title>
<ellipse fill="none" stroke="black" cx="738.385" cy="-2195.36" rx="27" ry="18.3848"/>
<text text-anchor="middle" x="738.385" y="-2191.76" font-family="Times Roman,serif" font-size="14.00">30</text>
</g>
<!-- 34&#45;&gt;30 -->
<g id="edge114" class="edge"><title>34&#45;&gt;30</title>
<path fill="none" stroke="black" d="M790.906,-2213.63C784.963,-2211.56 778.497,-2209.31 772.198,-2207.12"/>
<polygon fill="black" stroke="black" points="773.132,-2203.74 762.537,-2203.76 770.832,-2210.35 773.132,-2203.74"/>
</g>
<!-- 32 -->
<g id="node117" class="node"><title>32</title>
<ellipse fill="none" stroke="black" cx="664.011" cy="-2162.42" rx="27" ry="18.3848"/>
<text text-anchor="middle" x="664.011" y="-2158.82" font-family="Times Roman,serif" font-size="14.00">32</text>
</g>
<!-- 30&#45;&gt;32 -->
<g id="edge116" class="edge"><title>30&#45;&gt;32</title>
<path fill="none" stroke="black" d="M715.666,-2185.3C709.524,-2182.58 702.758,-2179.58 696.203,-2176.68"/>
<polygon fill="black" stroke="black" points="697.407,-2173.38 686.847,-2172.53 694.572,-2179.78 697.407,-2173.38"/>
</g>
<!-- 28 -->
<g id="node119" class="node"><title>28</title>
<ellipse fill="none" stroke="black" cx="591.871" cy="-2124.81" rx="27" ry="18.3848"/>
<text text-anchor="middle" x="591.871" y="-2121.21" font-family="Times Roman,serif" font-size="14.00">28</text>
</g>
<!-- 32&#45;&gt;28 -->
<g id="edge118" class="edge"><title>32&#45;&gt;28</title>
<path fill="none" stroke="black" d="M642.366,-2151.13C636.089,-2147.86 629.114,-2144.22 622.401,-2140.72"/>
<polygon fill="black" stroke="black" points="623.985,-2137.6 613.5,-2136.08 620.749,-2143.81 623.985,-2137.6"/>
</g>
<!-- 25 -->
<g id="node121" class="node"><title>25</title>
<ellipse fill="none" stroke="black" cx="522.893" cy="-2081.65" rx="27" ry="18.3848"/>
<text text-anchor="middle" x="522.893" y="-2078.05" font-family="Times Roman,serif" font-size="14.00">25</text>
</g>
<!-- 28&#45;&gt;25 -->
<g id="edge120" class="edge"><title>28&#45;&gt;25</title>
<path fill="none" stroke="black" d="M571.92,-2112.32C565.683,-2108.42 558.669,-2104.03 551.94,-2099.82"/>
<polygon fill="black" stroke="black" points="553.372,-2096.59 543.038,-2094.25 549.659,-2102.52 553.372,-2096.59"/>
</g>
<!-- 20 -->
<g id="node123" class="node"><title>20</title>
<ellipse fill="none" stroke="black" cx="457.457" cy="-2033.32" rx="27" ry="18.3848"/>
<text text-anchor="middle" x="457.457" y="-2029.72" font-family="Times Roman,serif" font-size="14.00">20</text>
</g>
<!-- 25&#45;&gt;20 -->
<g id="edge122" class="edge"><title>25&#45;&gt;20</title>
<path fill="none" stroke="black" d="M504.316,-2067.93C498.046,-2063.3 490.919,-2058.03 484.147,-2053.03"/>
<polygon fill="black" stroke="black" points="485.976,-2050.03 475.853,-2046.9 481.818,-2055.66 485.976,-2050.03"/>
</g>
<!-- 26 -->
<g id="node125" class="node"><title>26</title>
<ellipse fill="none" stroke="black" cx="395.35" cy="-1980.79" rx="27" ry="18.3848"/>
<text text-anchor="middle" x="395.35" y="-1977.19" font-family="Times Roman,serif" font-size="14.00">26</text>
</g>
<!-- 20&#45;&gt;26 -->
<g id="edge124" class="edge"><title>20&#45;&gt;26</title>
<path fill="none" stroke="black" d="M440.157,-2018.69C434.1,-2013.56 427.168,-2007.7 420.597,-2002.14"/>
<polygon fill="black" stroke="black" points="422.453,-1999.13 412.558,-1995.34 417.933,-2004.47 422.453,-1999.13"/>
</g>
<!-- 29 -->
<g id="node127" class="node"><title>29</title>
<ellipse fill="none" stroke="black" cx="338.018" cy="-1923.12" rx="27" ry="18.3848"/>
<text text-anchor="middle" x="338.018" y="-1919.52" font-family="Times Roman,serif" font-size="14.00">29</text>
</g>
<!-- 26&#45;&gt;29 -->
<g id="edge126" class="edge"><title>26&#45;&gt;29</title>
<path fill="none" stroke="black" d="M379.986,-1965.34C374.074,-1959.39 367.192,-1952.46 360.731,-1945.97"/>
<polygon fill="black" stroke="black" points="362.957,-1943.24 353.425,-1938.61 357.992,-1948.17 362.957,-1943.24"/>
</g>
<!-- 24 -->
<g id="node129" class="node"><title>24</title>
<ellipse fill="none" stroke="black" cx="284.518" cy="-1861.89" rx="27" ry="18.3848"/>
<text text-anchor="middle" x="284.518" y="-1858.29" font-family="Times Roman,serif" font-size="14.00">24</text>
</g>
<!-- 29&#45;&gt;24 -->
<g id="edge128" class="edge"><title>29&#45;&gt;24</title>
<path fill="none" stroke="black" d="M323.962,-1907.03C318.354,-1900.61 311.778,-1893.09 305.62,-1886.04"/>
<polygon fill="black" stroke="black" points="307.882,-1883.31 298.667,-1878.08 302.611,-1887.92 307.882,-1883.31"/>
</g>
<!-- 21 -->
<g id="node131" class="node"><title>21</title>
<ellipse fill="none" stroke="black" cx="234.735" cy="-1797.61" rx="27" ry="18.3848"/>
<text text-anchor="middle" x="234.735" y="-1794.01" font-family="Times Roman,serif" font-size="14.00">21</text>
</g>
<!-- 24&#45;&gt;21 -->
<g id="edge130" class="edge"><title>24&#45;&gt;21</title>
<path fill="none" stroke="black" d="M271.698,-1845.34C266.282,-1838.35 259.859,-1830.05 253.9,-1822.36"/>
<polygon fill="black" stroke="black" points="256.575,-1820.1 247.685,-1814.33 251.041,-1824.38 256.575,-1820.1"/>
</g>
<!-- 19 -->
<g id="node133" class="node"><title>19</title>
<ellipse fill="none" stroke="black" cx="191.05" cy="-1729.04" rx="27" ry="18.3848"/>
<text text-anchor="middle" x="191.05" y="-1725.44" font-family="Times Roman,serif" font-size="14.00">19</text>
</g>
<!-- 21&#45;&gt;19 -->
<g id="edge132" class="edge"><title>21&#45;&gt;19</title>
<path fill="none" stroke="black" d="M223.711,-1780.31C218.759,-1772.53 212.814,-1763.2 207.361,-1754.64"/>
<polygon fill="black" stroke="black" points="210.243,-1752.65 201.919,-1746.1 204.34,-1756.41 210.243,-1752.65"/>
</g>
<!-- 27 -->
<g id="node135" class="node"><title>27</title>
<ellipse fill="none" stroke="black" cx="152.43" cy="-1657.54" rx="27" ry="18.3848"/>
<text text-anchor="middle" x="152.43" y="-1653.94" font-family="Times Roman,serif" font-size="14.00">27</text>
</g>
<!-- 19&#45;&gt;27 -->
<g id="edge134" class="edge"><title>19&#45;&gt;27</title>
<path fill="none" stroke="black" d="M181.503,-1711.36C177.06,-1703.14 171.681,-1693.18 166.765,-1684.08"/>
<polygon fill="black" stroke="black" points="169.698,-1682.14 161.866,-1675.01 163.539,-1685.47 169.698,-1682.14"/>
</g>
<!-- 23 -->
<g id="node137" class="node"><title>23</title>
<ellipse fill="none" stroke="black" cx="118.051" cy="-1583.92" rx="27" ry="18.3848"/>
<text text-anchor="middle" x="118.051" y="-1580.32" font-family="Times Roman,serif" font-size="14.00">23</text>
</g>
<!-- 27&#45;&gt;23 -->
<g id="edge136" class="edge"><title>27&#45;&gt;23</title>
<path fill="none" stroke="black" d="M144.108,-1639.72C140.054,-1631.04 135.094,-1620.42 130.593,-1610.78"/>
<polygon fill="black" stroke="black" points="133.699,-1609.16 126.297,-1601.58 127.357,-1612.12 133.699,-1609.16"/>
</g>
<!-- 22 -->
<g id="node139" class="node"><title>22</title>
<ellipse fill="none" stroke="black" cx="88.0562" cy="-1508.39" rx="27" ry="18.3848"/>
<text text-anchor="middle" x="88.0562" y="-1504.79" font-family="Times Roman,serif" font-size="14.00">22</text>
</g>
<!-- 23&#45;&gt;22 -->
<g id="edge138" class="edge"><title>23&#45;&gt;22</title>
<path fill="none" stroke="black" d="M110.943,-1566.02C107.383,-1557.06 102.993,-1546 99.0142,-1535.98"/>
<polygon fill="black" stroke="black" points="102.161,-1534.43 95.2175,-1526.42 95.6553,-1537.01 102.161,-1534.43"/>
</g>
<!-- 18 -->
<g id="node141" class="node"><title>18</title>
<ellipse fill="none" stroke="black" cx="64.9437" cy="-1430.45" rx="27" ry="18.3848"/>
<text text-anchor="middle" x="64.9437" y="-1426.85" font-family="Times Roman,serif" font-size="14.00">18</text>
</g>
<!-- 22&#45;&gt;18 -->
<g id="edge140" class="edge"><title>22&#45;&gt;18</title>
<path fill="none" stroke="black" d="M82.5789,-1489.92C79.8156,-1480.6 76.4041,-1469.09 73.3202,-1458.69"/>
<polygon fill="black" stroke="black" points="76.5803,-1457.38 70.3817,-1448.78 69.8691,-1459.37 76.5803,-1457.38"/>
</g>
<!-- 16 -->
<g id="node143" class="node"><title>16</title>
<ellipse fill="none" stroke="black" cx="45.7836" cy="-1351.42" rx="27" ry="18.3848"/>
<text text-anchor="middle" x="45.7836" y="-1347.82" font-family="Times Roman,serif" font-size="14.00">16</text>
</g>
<!-- 18&#45;&gt;16 -->
<g id="edge142" class="edge"><title>18&#45;&gt;16</title>
<path fill="none" stroke="black" d="M60.4998,-1412.12C58.1708,-1402.51 55.2669,-1390.53 52.6555,-1379.76"/>
<polygon fill="black" stroke="black" points="56.0275,-1378.82 50.2697,-1369.92 49.2246,-1380.47 56.0275,-1378.82"/>
</g>
<!-- 12 -->
<g id="node145" class="node"><title>12</title>
<ellipse fill="none" stroke="black" cx="33.7843" cy="-1270.96" rx="27" ry="18.3848"/>
<text text-anchor="middle" x="33.7843" y="-1267.36" font-family="Times Roman,serif" font-size="14.00">12</text>
</g>
<!-- 16&#45;&gt;12 -->
<g id="edge144" class="edge"><title>16&#45;&gt;12</title>
<path fill="none" stroke="black" d="M43.0005,-1332.76C41.5315,-1322.91 39.6972,-1310.61 38.0527,-1299.58"/>
<polygon fill="black" stroke="black" points="41.489,-1298.89 36.5522,-1289.52 34.5656,-1299.93 41.489,-1298.89"/>
</g>
<!-- 9 -->
<g id="node147" class="node"><title>9</title>
<ellipse fill="none" stroke="black" cx="28" cy="-1189.81" rx="27" ry="18.3848"/>
<text text-anchor="middle" x="28" y="-1186.21" font-family="Times Roman,serif" font-size="14.00">9</text>
</g>
<!-- 12&#45;&gt;9 -->
<g id="edge146" class="edge"><title>12&#45;&gt;9</title>
<path fill="none" stroke="black" d="M32.4427,-1252.14C31.7346,-1242.2 30.8503,-1229.8 30.0576,-1218.68"/>
<polygon fill="black" stroke="black" points="33.5365,-1218.25 29.3343,-1208.53 26.5542,-1218.75 33.5365,-1218.25"/>
</g>
<!-- 17 -->
<g id="node149" class="node"><title>17</title>
<ellipse fill="none" stroke="black" cx="28.8452" cy="-1108.49" rx="27" ry="18.3848"/>
<text text-anchor="middle" x="28.8452" y="-1104.89" font-family="Times Roman,serif" font-size="14.00">17</text>
</g>
<!-- 9&#45;&gt;17 -->
<g id="edge148" class="edge"><title>9&#45;&gt;17</title>
<path fill="none" stroke="black" d="M28.196,-1170.95C28.2995,-1160.99 28.4287,-1148.56 28.5445,-1137.41"/>
<polygon fill="black" stroke="black" points="32.046,-1137.28 28.6502,-1127.24 25.0464,-1137.21 32.046,-1137.28"/>
</g>
<!-- 14 -->
<g id="node151" class="node"><title>14</title>
<ellipse fill="none" stroke="black" cx="35.9362" cy="-1027.52" rx="27" ry="18.3848"/>
<text text-anchor="middle" x="35.9362" y="-1023.92" font-family="Times Roman,serif" font-size="14.00">14</text>
</g>
<!-- 17&#45;&gt;14 -->
<g id="edge150" class="edge"><title>17&#45;&gt;14</title>
<path fill="none" stroke="black" d="M30.4898,-1089.71C31.358,-1079.79 32.4419,-1067.42 33.4138,-1056.32"/>
<polygon fill="black" stroke="black" points="36.9146,-1056.46 34.3005,-1046.19 29.9413,-1055.85 36.9146,-1056.46"/>
</g>
<!-- 11 -->
<g id="node153" class="node"><title>11</title>
<ellipse fill="none" stroke="black" cx="46.9654" cy="-947.002" rx="27" ry="18.3848"/>
<text text-anchor="middle" x="46.9654" y="-943.402" font-family="Times Roman,serif" font-size="14.00">11</text>
</g>
<!-- 14&#45;&gt;11 -->
<g id="edge152" class="edge"><title>14&#45;&gt;11</title>
<path fill="none" stroke="black" d="M38.4942,-1008.84C39.8445,-998.985 41.5305,-986.677 43.0421,-975.642"/>
<polygon fill="black" stroke="black" points="46.5315,-975.957 44.4212,-965.575 39.5963,-975.007 46.5315,-975.957"/>
</g>
<!-- 15 -->
<g id="node155" class="node"><title>15</title>
<ellipse fill="none" stroke="black" cx="64.2914" cy="-867.599" rx="27" ry="18.3848"/>
<text text-anchor="middle" x="64.2914" y="-863.999" font-family="Times Roman,serif" font-size="14.00">15</text>
</g>
<!-- 11&#45;&gt;15 -->
<g id="edge154" class="edge"><title>11&#45;&gt;15</title>
<path fill="none" stroke="black" d="M50.9838,-928.586C53.105,-918.865 55.7536,-906.727 58.1282,-895.844"/>
<polygon fill="black" stroke="black" points="61.5823,-896.432 60.2947,-885.915 54.7432,-894.939 61.5823,-896.432"/>
</g>
<!-- 13 -->
<g id="node157" class="node"><title>13</title>
<ellipse fill="none" stroke="black" cx="86.2699" cy="-789.34" rx="27" ry="18.3848"/>
<text text-anchor="middle" x="86.2699" y="-785.74" font-family="Times Roman,serif" font-size="14.00">13</text>
</g>
<!-- 15&#45;&gt;13 -->
<g id="edge156" class="edge"><title>15&#45;&gt;13</title>
<path fill="none" stroke="black" d="M69.5,-849.052C72.1277,-839.696 75.3718,-828.145 78.3043,-817.703"/>
<polygon fill="black" stroke="black" points="81.7644,-818.327 81.0987,-807.753 75.0252,-816.434 81.7644,-818.327"/>
</g>
<!-- 8 -->
<g id="node159" class="node"><title>8</title>
<ellipse fill="none" stroke="black" cx="113.577" cy="-712.717" rx="27" ry="18.3848"/>
<text text-anchor="middle" x="113.577" y="-709.117" font-family="Times Roman,serif" font-size="14.00">8</text>
</g>
<!-- 13&#45;&gt;8 -->
<g id="edge158" class="edge"><title>13&#45;&gt;8</title>
<path fill="none" stroke="black" d="M92.7414,-771.181C96.0402,-761.925 100.121,-750.475 103.794,-740.168"/>
<polygon fill="black" stroke="black" points="107.092,-741.34 107.152,-730.745 100.498,-738.99 107.092,-741.34"/>
</g>
<!-- 4 -->
<g id="node161" class="node"><title>4</title>
<ellipse fill="none" stroke="black" cx="146.891" cy="-638.472" rx="27" ry="18.3848"/>
<text text-anchor="middle" x="146.891" y="-634.872" font-family="Times Roman,serif" font-size="14.00">4</text>
</g>
<!-- 8&#45;&gt;4 -->
<g id="edge160" class="edge"><title>8&#45;&gt;4</title>
<path fill="none" stroke="black" d="M121.642,-694.744C125.57,-685.989 130.376,-675.278 134.737,-665.558"/>
<polygon fill="black" stroke="black" points="138,-666.835 138.901,-656.279 131.614,-663.97 138,-666.835"/>
</g>
<!-- 5 -->
<g id="node163" class="node"><title>5</title>
<ellipse fill="none" stroke="black" cx="186.021" cy="-567.101" rx="27" ry="18.3848"/>
<text text-anchor="middle" x="186.021" y="-563.501" font-family="Times Roman,serif" font-size="14.00">5</text>
</g>
<!-- 4&#45;&gt;5 -->
<g id="edge162" class="edge"><title>4&#45;&gt;5</title>
<path fill="none" stroke="black" d="M156.564,-620.829C161.065,-612.619 166.515,-602.679 171.497,-593.592"/>
<polygon fill="black" stroke="black" points="174.721,-594.991 176.46,-584.54 168.583,-591.626 174.721,-594.991"/>
</g>
<!-- 7 -->
<g id="node165" class="node"><title>7</title>
<ellipse fill="none" stroke="black" cx="230.843" cy="-499.173" rx="27" ry="18.3848"/>
<text text-anchor="middle" x="230.843" y="-495.573" font-family="Times Roman,serif" font-size="14.00">7</text>
</g>
<!-- 5&#45;&gt;7 -->
<g id="edge164" class="edge"><title>5&#45;&gt;7</title>
<path fill="none" stroke="black" d="M197.331,-549.96C202.413,-542.259 208.513,-533.014 214.108,-524.535"/>
<polygon fill="black" stroke="black" points="217.105,-526.347 219.691,-516.073 211.262,-522.492 217.105,-526.347"/>
</g>
<!-- 1 -->
<g id="node167" class="node"><title>1</title>
<ellipse fill="none" stroke="black" cx="280.079" cy="-434.401" rx="27" ry="18.3848"/>
<text text-anchor="middle" x="280.079" y="-430.801" font-family="Times Roman,serif" font-size="14.00">1</text>
</g>
<!-- 7&#45;&gt;1 -->
<g id="edge166" class="edge"><title>7&#45;&gt;1</title>
<path fill="none" stroke="black" d="M243.522,-482.492C248.879,-475.445 255.231,-467.09 261.125,-459.336"/>
<polygon fill="black" stroke="black" points="264.006,-461.329 267.271,-451.25 258.433,-457.093 264.006,-461.329"/>
</g>
<!-- 3 -->
<g id="node169" class="node"><title>3</title>
<ellipse fill="none" stroke="black" cx="334.847" cy="-374.279" rx="27" ry="18.3848"/>
<text text-anchor="middle" x="334.847" y="-370.679" font-family="Times Roman,serif" font-size="14.00">3</text>
</g>
<!-- 1&#45;&gt;3 -->
<g id="edge168" class="edge"><title>1&#45;&gt;3</title>
<path fill="none" stroke="black" d="M294.469,-418.605C300.209,-412.303 306.941,-404.913 313.245,-397.993"/>
<polygon fill="black" stroke="black" points="316.216,-399.928 320.363,-390.178 311.042,-395.214 316.216,-399.928"/>
</g>
<!-- 10 -->
<g id="node171" class="node"><title>10</title>
<ellipse fill="none" stroke="black" cx="392.291" cy="-316.721" rx="27" ry="18.3848"/>
<text text-anchor="middle" x="392.291" y="-313.121" font-family="Times Roman,serif" font-size="14.00">10</text>
</g>
<!-- 3&#45;&gt;10 -->
<g id="edge170" class="edge"><title>3&#45;&gt;10</title>
<path fill="none" stroke="black" d="M350.241,-358.854C356.165,-352.919 363.061,-346.009 369.534,-339.523"/>
<polygon fill="black" stroke="black" points="372.268,-341.738 376.855,-332.188 367.313,-336.794 372.268,-341.738"/>
</g>
<!-- 6 -->
<g id="node173" class="node"><title>6</title>
<ellipse fill="none" stroke="black" cx="454.291" cy="-264.096" rx="27" ry="18.3848"/>
<text text-anchor="middle" x="454.291" y="-260.496" font-family="Times Roman,serif" font-size="14.00">6</text>
</g>
<!-- 10&#45;&gt;6 -->
<g id="edge172" class="edge"><title>10&#45;&gt;6</title>
<path fill="none" stroke="black" d="M409.562,-302.062C415.608,-296.93 422.528,-291.056 429.088,-285.488"/>
<polygon fill="black" stroke="black" points="431.754,-287.816 437.113,-278.676 427.225,-282.479 431.754,-287.816"/>
</g>
<!-- 6&#45;&gt;2 -->
<g id="edge174" class="edge"><title>6&#45;&gt;2</title>
<path fill="none" stroke="black" d="M472.857,-250.375C479.124,-245.744 486.248,-240.479 493.015,-235.478"/>
<polygon fill="black" stroke="black" points="495.343,-238.11 501.305,-229.351 491.183,-232.48 495.343,-238.11"/>
</g>
</g>
</svg>
